<svg width="1017px" height="144px" viewBox="-26 146 1017 144" version="1.1" xmlns="http://www.w3.org/2000/svg" xmlns:xlink="http://www.w3.org/1999/xlink">
    <!-- Generator: Sketch 41.2 (35397) - http://www.bohemiancoding.com/sketch -->
    <desc>Created with Sketch.</desc>
    <defs></defs>
    <g id="FDC_Delhi" stroke="none" stroke-width="1" fill="none" fill-rule="evenodd" transform="translate(-26.000000, 146.000000)">
        <g id="Layer_2">
            <path d="M165.8,37.2 L156.3,37.2 L156.3,82.6 L166,82.6 C180.9,82.6 191.1,75.3 191.1,59.9 C191.1,45.8 181.7,37.2 165.8,37.2 M165.7,88 L150.3,88 L150.3,32 L166.2,32 C185.3,32 197.1,43.1 197.1,59.6 C197,77.2 185.6,88 165.7,88" id="Shape" fill="#3B5998"></path>
            <path d="M235.3,63.1 C235.4,62.7 235.4,61.8 235.4,61.3 C235.4,55 231.9,50.7 225.1,50.7 C217.4,50.7 212.5,56.4 211.6,63.2 L235.3,63.1 Z M211.3,68.1 C211.5,77.3 217.3,84 226.2,84 C230.9,84 235.3,82.7 238.6,80.6 L239.7,85.7 C236.1,87.9 231.3,89.2 226,89.2 C213.7,89.2 205.4,80.3 205.4,67.9 C205.4,55 214,45.9 225.6,45.9 C235,45.9 241.2,51.8 241.2,61 C241.2,63.2 240.8,65.8 240.3,67.5 L211.4,67.7 L211.4,68.1 L211.3,68.1 Z" id="Shape" fill="#3B5998"></path>
            <polygon id="Shape" fill="#3B5998" points="268.2 88.1 263 88.1 246.1 46.9 252.4 46.9 265.9 80.8 279 46.9 285 46.9"></polygon>
            <path d="M318.9,63.1 C319,62.7 319,61.8 319,61.3 C319,55 315.5,50.7 308.7,50.7 C301,50.7 296.1,56.4 295.2,63.2 L318.9,63.1 Z M294.8,68.1 C295,77.3 300.8,84 309.7,84 C314.4,84 318.8,82.7 322.1,80.6 L323.2,85.7 C319.6,87.9 314.8,89.2 309.5,89.2 C297.2,89.2 288.9,80.3 288.9,67.9 C288.9,55 297.5,45.9 309.1,45.9 C318.5,45.9 324.7,51.8 324.7,61 C324.7,63.2 324.3,65.8 323.8,67.5 L294.9,67.7 L294.9,68.1 L294.8,68.1 Z" id="Shape" fill="#3B5998"></path>
            <polygon id="Shape" fill="#3B5998" points="335.6 88 335.6 27.6 341.4 26.4 341.4 88"></polygon>
            <path d="M372.9,50.8 C363.8,50.8 357.9,57.7 357.9,67.4 C357.9,77.4 364,84.2 373,84.2 C382,84.2 388,77.3 388,67.6 C388,57.5 381.9,50.8 372.9,50.8 M372.7,89.1 C360.8,89.1 352.1,80.7 352.1,67.5 C352.1,54.4 361.3,45.7 373.2,45.7 C385.1,45.7 393.7,54.1 393.7,67.3 C393.7,80.4 384.5,89.1 372.7,89.1" id="Shape" fill="#3B5998"></path>
            <path d="M410.2,80.9 C412.8,82.9 416.8,84.1 420.9,84.1 C430.1,84.1 435.7,77 435.7,67.3 C435.7,57.8 430.3,51.1 421.6,51.1 C417.2,51.1 413.2,53 410.1,55.7 L410.1,80.9 L410.2,80.9 Z M422.6,46 C434.2,46 441.7,54.8 441.7,67.2 C441.7,79.9 432.9,89.1 420.6,89.1 C417.2,89.1 413,88.2 410.1,86.9 L410.1,108.8 L404.3,108.8 L404.3,46.7 L410.1,45.5 L410.1,51 C413.1,48.5 417.4,46 422.6,46 L422.6,46 Z" id="Shape" fill="#3B5998"></path>
            <path d="M479.7,63.1 C479.8,62.7 479.8,61.8 479.8,61.3 C479.8,55 476.3,50.7 469.5,50.7 C461.8,50.7 456.9,56.4 456,63.2 L479.7,63.1 Z M455.6,68.1 C455.8,77.3 461.6,84 470.5,84 C475.2,84 479.6,82.7 482.9,80.6 L484,85.7 C480.4,87.9 475.6,89.2 470.3,89.2 C458,89.2 449.7,80.3 449.7,67.9 C449.7,55 458.3,45.9 469.9,45.9 C479.3,45.9 485.5,51.8 485.5,61 C485.5,63.2 485.1,65.8 484.6,67.5 L455.7,67.7 L455.7,68.1 L455.6,68.1 Z" id="Shape" fill="#3B5998"></path>
            <path d="M502.2,88 L496.4,88 L496.4,47 L502.2,45.8 L502.2,54.6 C505,49.3 509.2,45.8 514.8,45.8 C517.6,45.8 520.3,46.6 522.3,47.7 L520.8,52.9 C518.9,51.8 516.7,51.1 514.3,51.1 C509.8,51.1 505.6,54.3 502.3,61.7 L502.3,88 L502.2,88 Z" id="Shape" fill="#3B5998"></path>
            <path d="M593,40.5 C588.3,37.6 582.9,36 576.8,36 C564.1,36 554.8,44.7 554.8,59.9 C554.8,74.7 563.7,83.9 577,83.9 C583.3,83.9 589.3,81.7 593.3,78.9 L594.4,84.5 C590.1,87.2 583.7,89.1 576.8,89.1 C559.9,89.1 548.6,77.8 548.6,60.1 C548.6,42.3 560.5,30.8 576.8,30.8 C583.9,30.8 590.5,32.9 594.8,35.4 L593,40.5 Z" id="Shape" fill="#3B5998"></path>
            <path d="M605.8,88 L605.8,47 L611.6,45.8 L611.6,88 L605.8,88 Z M608.7,37.5 C606.1,37.5 604.8,35.5 604.8,33.4 C604.8,31.3 606.1,29.5 608.7,29.5 C611.3,29.5 612.6,31.4 612.6,33.4 C612.6,35.5 611.3,37.5 608.7,37.5 L608.7,37.5 Z" id="Shape" fill="#3B5998"></path>
            <path d="M631,88 L625.2,88 L625.2,47 L631,45.8 L631,54.6 C633.8,49.3 638,45.8 643.6,45.8 C646.4,45.8 649.1,46.6 651.1,47.7 L649.6,52.9 C647.7,51.8 645.5,51.1 643.1,51.1 C638.6,51.1 634.4,54.3 631.1,61.7 L631.1,88 L631,88 Z" id="Shape" fill="#3B5998"></path>
            <path d="M675.7,89.1 C662.8,89.1 654.8,80.2 654.8,67.5 C654.8,54.7 663.7,45.7 675.8,45.7 C681,45.7 685.5,47 689.1,49.2 L687.6,54.2 C684.3,52.1 680.2,50.9 675.7,50.9 C666.5,50.9 660.7,57.5 660.7,67.3 C660.7,77.3 666.8,83.9 675.8,83.9 C680.1,83.9 684.4,82.6 687.7,80.5 L688.9,85.6 C685.3,87.8 680.6,89.1 675.7,89.1" id="Shape" fill="#3B5998"></path>
            <polygon id="Shape" fill="#3B5998" points="699.7 88 699.7 27.6 705.5 26.4 705.5 88"></polygon>
            <path d="M746.1,63.1 C746.2,62.7 746.2,61.8 746.2,61.3 C746.2,55 742.7,50.7 735.9,50.7 C728.2,50.7 723.3,56.4 722.4,63.2 L746.1,63.1 Z M722,68.1 C722.2,77.3 728,84 736.9,84 C741.6,84 746,82.7 749.3,80.6 L750.4,85.7 C746.8,87.9 742,89.2 736.7,89.2 C724.4,89.2 716.1,80.3 716.1,67.9 C716.1,55 724.7,45.9 736.3,45.9 C745.7,45.9 751.9,51.8 751.9,61 C751.9,63.2 751.5,65.8 751,67.5 L722,67.6 L722,68.1 Z" id="Shape" fill="#3B5998"></path>
            <path d="M773.2,89.1 C768.2,89.1 762.8,87.7 759.2,85.4 L760.8,80.3 C764.4,82.6 769,84.1 773.4,84.1 C778.5,84.1 783,81.7 783,77.2 C783,72.3 777.6,70.8 772.3,69.2 C766.4,67.5 759.9,64.7 759.9,57.6 C759.9,50.2 766.3,45.8 774.4,45.8 C779.1,45.8 783.7,47.1 787.4,48.8 L785.7,53.8 C782.2,51.9 777.8,50.8 774,50.8 C768.8,50.8 765.4,53.1 765.4,57.1 C765.4,61.8 770.4,63.2 775.9,64.8 C782,66.5 788.5,69.2 788.5,76.8 C788.5,84.3 781.8,89.1 773.2,89.1" id="Shape" fill="#3B5998"></path>
            <path d="M104.9,100.2 C106.2,95.4 106,89.6 104.1,83.1 C107.1,78.7 109.7,74.2 111.6,69.8 C115.8,81.2 115.3,91.4 109.3,97.2 C108.1,98.4 106.6,99.4 104.9,100.2 M99.1,107.1 C97.8,108.3 96.3,109.3 94.6,110.1 C95.2,108.1 95.4,105.9 95.4,103.6 C97.8,103.6 100.1,103.3 102.2,102.8 C101.4,104.4 100.4,105.8 99.1,107.1 M88.8,117 C83.3,122.3 73.9,123.3 62.3,119.8 C61.7,119.6 61.1,119.4 60.5,119.2 C65.1,117.3 69.7,114.9 74.3,111.9 C78.2,112.9 81.8,113.4 85.2,113.4 C87.6,113.4 89.9,113.1 92,112.6 C91.1,114.3 90.1,115.8 88.8,117 M41.7,121.9 C36,121.9 31.1,120.3 27.7,117 C26.4,115.7 25.4,114.3 24.6,112.7 C26.7,113.2 29,113.5 31.4,113.5 C34.7,113.5 38.4,113 42.3,112 C46.9,114.9 51.5,117.4 56.1,119.3 C50.9,121 46.1,121.9 41.7,121.9 M17.4,107.1 C16.1,105.8 15.1,104.4 14.3,102.8 C16.4,103.3 18.6,103.6 21.1,103.6 C21.1,105.9 21.4,108.1 21.9,110.1 C20.2,109.4 18.7,108.4 17.4,107.1 M7.1,97.2 C1.1,91.4 0.6,81.2 4.8,69.8 C6.7,74.2 9.3,78.7 12.3,83.1 C10.5,89.6 10.2,95.4 11.5,100.2 C9.9,99.4 8.4,98.4 7.1,97.2 M4.3,63.8 C0.6,52.6 1.7,43.5 7.2,38.2 C8.5,37 10,35.9 11.7,35.2 C10.4,40 10.6,45.8 12.5,52.3 C9.5,56.7 6.9,61.2 5,65.6 C4.6,64.9 4.4,64.3 4.3,63.8 M17.4,28.2 C18.7,27 20.2,25.9 21.9,25.2 C21.3,27.2 21.1,29.4 21.1,31.7 C18.7,31.7 16.4,32 14.3,32.5 C15.1,30.9 16.1,29.4 17.4,28.2 M27.7,18.2 C31,15 35.8,13.3 41.7,13.3 C45.5,13.3 49.7,14 54.3,15.4 C54.9,15.6 55.5,15.8 56.1,16 C51.5,17.9 46.9,20.3 42.3,23.3 C35.6,21.5 29.6,21.3 24.6,22.6 C25.4,20.9 26.4,19.5 27.7,18.2 M62.3,15.4 C66.9,14 71.1,13.3 74.9,13.3 C80.7,13.3 85.5,14.9 88.9,18.2 C90.2,19.5 91.2,20.9 92,22.5 C87,21.3 81,21.5 74.2,23.3 C69.6,20.4 65,17.9 60.4,16 C61.1,15.8 61.7,15.6 62.3,15.4 M99.1,28.2 C100.4,29.5 101.4,30.9 102.2,32.5 C100.1,32 97.9,31.7 95.4,31.7 C95.4,29.4 95.1,27.2 94.6,25.2 C96.3,25.9 97.8,26.9 99.1,28.2 M103.5,81 C102.1,76.6 100,72.1 97.4,67.6 C100,63.1 102.1,58.6 103.5,54.2 L103.5,54.1 C106.6,58.7 109,63.2 110.8,67.6 C109,72 106.6,76.5 103.5,81.1 L103.5,81 M93.9,93.3 C93.7,92.5 93.5,91.8 93.2,91 C92,87.4 90.5,83.8 88.5,80.2 C91.5,76.6 94.1,72.9 96.4,69.2 C99.1,73.9 101.1,78.4 102.4,82.8 C99.9,86.3 97.1,89.8 93.9,93.3 M86.7,102.6 C89.2,103.2 91.6,103.5 93.9,103.6 C93.9,106.3 93.5,108.7 92.7,110.9 C88.2,112.4 82.5,112.4 76,110.9 C79.6,108.4 83.2,105.6 86.7,102.6 M72.5,109.9 C68.3,108.6 64.1,106.8 59.8,104.5 C63.6,102.3 67.4,99.7 71.1,96.9 C74.8,98.8 78.6,100.3 82.3,101.4 C83.1,101.7 83.9,101.9 84.7,102.1 C81.2,105.2 77.5,107.9 73.9,110.3 C73.5,110.2 73,110 72.5,109.9 M44.4,111.4 C48.9,110 53.6,108 58.2,105.5 C62.8,108 67.5,110 72,111.4 L72.1,111.4 C67.4,114.3 62.7,116.7 58.2,118.4 C53.6,116.6 48.9,114.3 44.2,111.4 L44.4,111.4 M31.7,102.1 C32.5,101.9 33.3,101.7 34.1,101.4 C37.8,100.3 41.5,98.8 45.3,96.9 C49,99.8 52.8,102.3 56.6,104.5 C51.8,107.1 47,109 42.5,110.3 C38.9,107.9 35.2,105.1 31.7,102.1 M29.8,102.5 C33.3,105.5 36.8,108.3 40.5,110.8 C37.3,111.6 34.2,111.9 31.4,111.9 C28.6,111.9 26.1,111.5 23.8,110.8 C23,108.6 22.6,106.1 22.6,103.5 C24.9,103.4 27.3,103.1 29.8,102.5 M20.1,69.2 C22.4,72.9 25,76.6 28,80.2 C26.1,83.8 24.5,87.4 23.3,91 C23,91.8 22.8,92.6 22.6,93.3 C19.5,89.9 16.6,86.4 14.1,82.8 C15.4,78.4 17.4,73.9 20.1,69.2 M13,54.3 C14.4,58.7 16.5,63.2 19.1,67.7 C16.5,72.2 14.4,76.7 13,81.1 L13,81.2 C10,76.7 7.5,72.2 5.7,67.7 C7.5,63.3 9.9,58.8 13,54.2 L13,54.3 M22.6,42 C22.8,42.8 23,43.5 23.3,44.3 C24.5,47.8 26,51.5 28,55.1 C25,58.7 22.4,62.4 20.1,66.1 C17.8,62 15.9,57.9 14.6,53.8 C14.5,53.3 14.3,52.9 14.2,52.5 C16.6,48.9 19.4,45.4 22.6,42 M28.4,34 C27.6,34.8 26.7,35.6 25.9,36.4 C25.1,37.2 24.3,38 23.5,38.8 C23.1,36.9 22.9,35 22.8,33.3 C24.5,33.4 26.4,33.6 28.4,34 M43.9,25.4 C48.1,26.7 52.3,28.5 56.6,30.8 C52.8,33 49,35.6 45.3,38.4 C41.6,36.5 37.8,35 34.1,33.9 C33.3,33.7 32.5,33.4 31.7,33.2 C35.2,30.2 38.8,27.4 42.5,25 C43,25.1 43.5,25.2 43.9,25.4 M72.1,23.9 C67.6,25.3 62.9,27.3 58.3,29.8 C53.7,27.3 49,25.3 44.5,23.9 L44.4,23.9 C49,21 53.7,18.6 58.4,16.9 C63,18.7 67.7,21 72.4,23.9 L72.1,23.9 M84.8,33.2 C84,33.4 83.2,33.6 82.4,33.9 C78.7,35 75,36.5 71.2,38.4 C67.5,35.5 63.7,33 59.9,30.8 C64.2,28.5 68.4,26.7 72.6,25.4 C73.1,25.3 73.5,25.1 74,25 C77.6,27.4 81.3,30.1 84.8,33.2 M86.6,32.7 C83.1,29.7 79.6,26.9 75.9,24.4 C79.2,23.6 82.2,23.2 85,23.2 C87.8,23.2 90.3,23.6 92.6,24.3 C93.4,26.5 93.8,29 93.8,31.6 C91.6,31.8 89.2,32.2 86.6,32.7 M93.1,38.8 C92.3,38 91.5,37.2 90.7,36.4 C89.9,35.6 89,34.8 88.2,34 C90.2,33.6 92.1,33.4 93.9,33.3 C93.7,35.1 93.4,36.9 93.1,38.8 M88.5,55.1 C90.4,51.5 92,47.9 93.2,44.3 C93.5,43.5 93.7,42.7 93.9,42 C97.1,45.4 99.9,49 102.4,52.5 C101.1,56.8 99.1,61.4 96.4,66.1 C94.1,62.4 91.5,58.7 88.5,55.1 M80.3,67.6 C83.1,64 85.6,60.3 87.7,56.6 C90.7,60.2 93.3,63.9 95.5,67.6 C93.3,71.3 90.7,75 87.7,78.6 C85.6,75 83.1,71.3 80.3,67.6 M58.2,88.9 C61.9,91.6 65.8,94 69.6,96 C65.8,98.9 62,101.4 58.2,103.6 C54.4,101.4 50.5,98.9 46.8,96.1 C50.7,94.1 54.5,91.7 58.2,88.9 M36.2,67.6 C33.4,71.2 30.9,74.9 28.8,78.6 C25.8,75 23.2,71.3 21,67.6 C23.2,63.9 25.8,60.2 28.8,56.6 C30.9,60.3 33.4,64 36.2,67.6 M58.2,46.3 C54.5,43.6 50.6,41.2 46.8,39.2 C50.5,36.3 54.4,33.8 58.2,31.6 C62,33.8 65.9,36.3 69.6,39.2 C65.8,41.2 62,43.6 58.2,46.3 M78.3,67.6 C75.5,71.1 72.4,74.6 68.9,77.9 C65.4,81.2 61.9,84.3 58.2,87 C54.5,84.3 51,81.2 47.6,77.9 C44.2,74.6 41,71.1 38.2,67.6 C41,64.1 44.1,60.6 47.6,57.3 C51,54 54.6,51 58.3,48.2 C62,50.9 65.5,54 69,57.3 C72.3,60.7 75.5,64.1 78.3,67.6 M72.5,39.4 C76,37.7 79.4,36.3 82.8,35.3 C83.9,35 85.1,34.6 86.2,34.4 C87.3,35.4 88.4,36.4 89.5,37.4 C90.6,38.4 91.6,39.5 92.7,40.6 C91.6,44.8 89.9,49.2 87.5,53.8 C85.3,51.2 82.9,48.7 80.4,46.3 C77.8,43.9 75.2,41.6 72.5,39.4 M79.2,47.4 C81.9,50 84.3,52.6 86.6,55.3 C84.6,59 82.1,62.7 79.3,66.3 C76.5,62.8 73.4,59.4 70.1,56.2 C66.7,52.9 63.2,50 59.6,47.3 C63.4,44.6 67.2,42.2 71,40.2 C73.8,42.4 76.5,44.8 79.2,47.4 M29.1,53.8 C27.3,50.5 25.9,47.1 24.8,43.9 C24.4,42.8 24.1,41.7 23.9,40.7 C24.9,39.6 26,38.6 27,37.5 C28.1,36.5 29.2,35.4 30.3,34.5 C31.4,34.8 32.5,35.1 33.7,35.4 C37.1,36.4 40.5,37.8 44,39.5 C41.3,41.6 38.7,43.9 36.2,46.3 C33.7,48.7 31.3,51.2 29.1,53.8 M37.3,47.4 C39.9,44.8 42.7,42.4 45.5,40.2 C49.3,42.2 53.2,44.6 56.9,47.3 C53.3,50 49.8,53 46.4,56.2 C43,59.4 39.9,62.8 37.2,66.3 C34.4,62.7 31.9,59 29.9,55.3 C32.2,52.6 34.6,50 37.3,47.4 M37.3,87.9 C34.7,85.3 32.2,82.7 29.9,80 C31.9,76.3 34.4,72.6 37.2,69 C40,72.5 43.1,75.9 46.4,79.1 C49.7,82.3 53.3,85.3 56.9,88 C53.1,90.7 49.3,93.1 45.5,95.1 C42.7,92.8 40,90.4 37.3,87.9 M28.4,101.3 C26.4,101.7 24.5,101.9 22.7,102 C22.8,100.2 23,98.4 23.4,96.5 C24.2,97.3 25,98.1 25.9,98.9 C26.7,99.7 27.6,100.5 28.4,101.3 M27,97.8 C25.9,96.8 24.9,95.7 23.8,94.6 C24.9,90.4 26.6,86 29,81.4 C31.2,84 33.6,86.5 36.1,88.9 C38.6,91.3 41.2,93.6 43.9,95.8 C39.2,98.1 34.6,99.8 30.3,100.8 C29.2,99.9 28.1,98.9 27,97.8 M79.2,87.9 C76.5,90.5 73.8,92.9 71,95.1 C67.2,93.1 63.3,90.7 59.6,88 C63.2,85.3 66.7,82.3 70.1,79.1 C73.5,75.9 76.6,72.5 79.3,69 C82.1,72.7 84.6,76.4 86.6,80 C84.3,82.6 81.8,85.3 79.2,87.9 M93.1,96.5 C93.5,98.4 93.7,100.3 93.8,102 C92,101.9 90.1,101.7 88.1,101.3 C88.9,100.5 89.8,99.7 90.6,98.9 C91.4,98.1 92.3,97.3 93.1,96.5 M89.5,97.8 C88.4,98.8 87.3,99.9 86.2,100.8 C85.1,100.5 84,100.2 82.8,99.9 C79.4,98.9 76,97.5 72.5,95.8 C75.2,93.7 77.8,91.4 80.3,88.9 C82.8,86.5 85.2,84 87.4,81.4 C89.8,85.9 91.6,90.4 92.6,94.6 C91.6,95.7 90.6,96.8 89.5,97.8 M95.4,33.2 C98.2,33.2 100.7,33.6 103,34.3 C104.6,38.8 104.5,44.4 103,50.5 C100.5,47 97.6,43.5 94.4,40.2 C94.9,37.8 95.3,35.4 95.4,33.2 L95.4,33.2 M23.8,24.4 C26.1,23.7 28.6,23.3 31.4,23.3 C34.2,23.3 37.3,23.7 40.5,24.5 C36.9,27 33.3,29.7 29.8,32.8 C27.3,32.2 24.9,31.9 22.6,31.8 C22.7,29.1 23.1,26.6 23.8,24.4 M13.5,34.4 C15.8,33.7 18.3,33.3 21.1,33.3 L21.1,33.3 C21.2,35.5 21.5,37.8 22.1,40.2 C19,43.5 16.1,47 13.6,50.5 C12,44.2 12,38.8 13.5,34.4 M13.5,100.9 C11.9,96.4 12,90.8 13.5,84.7 C16,88.2 18.9,91.7 22.1,95 C21.5,97.4 21.2,99.7 21.1,101.9 C18.4,102 15.8,101.7 13.5,100.9 M103,100.9 C100.7,101.6 98.2,102 95.4,102 C95.3,99.8 95,97.5 94.4,95.1 C97.5,91.8 100.4,88.3 103,84.8 C104.5,90.9 104.5,96.4 103,100.9 M109.3,38.1 C115.3,43.9 115.8,54.1 111.6,65.5 C109.7,61.1 107.1,56.6 104.1,52.2 C105.9,45.7 106.2,39.9 104.9,35.1 C106.6,35.9 108.1,36.9 109.3,38.1 M113.8,71.1 C113.4,70 113,68.8 112.6,67.7 C113.1,66.6 113.5,65.4 113.8,64.3 C117.6,52.5 116.5,42.9 110.5,37.1 C108.7,35.4 106.6,34.1 104.2,33.2 C103.3,30.9 101.9,28.8 100.2,27.1 C98.4,25.4 96.3,24.1 93.9,23.2 C93,20.9 91.6,18.8 89.9,17.1 C83.9,11.3 73.9,10.2 61.8,13.9 C60.6,14.3 59.5,14.7 58.3,15.1 C57.1,14.7 55.9,14.3 54.8,13.9 C42.6,10.2 32.6,11.3 26.7,17.1 C24.9,18.8 23.6,20.8 22.7,23.2 C20.3,24.1 18.2,25.4 16.4,27.1 C14.6,28.8 13.3,30.8 12.4,33.2 C9.9,34 7.8,35.3 6,37 C6.16173779e-15,42.8 -1.1,52.4 2.7,64.2 C3.1,65.3 3.5,66.5 3.9,67.6 C3.4,68.7 3,69.9 2.7,71 C-1.1,82.8 6.16173779e-15,92.5 6,98.3 C7.8,100 9.9,101.3 12.3,102.2 C13.2,104.5 14.6,106.6 16.3,108.3 C18.1,110 20.2,111.3 22.6,112.2 C23.5,114.5 24.9,116.6 26.6,118.3 C30.3,121.8 35.4,123.6 41.7,123.6 C45.7,123.6 50,122.9 54.8,121.4 C56,121 57.1,120.6 58.3,120.2 C59.5,120.6 60.7,121 61.8,121.4 C66.5,122.8 70.9,123.6 74.9,123.6 C81.2,123.6 86.3,121.8 90,118.3 C91.8,116.6 93.1,114.6 94,112.2 C96.4,111.3 98.5,110 100.3,108.3 C102.1,106.6 103.4,104.6 104.3,102.2 C106.7,101.3 108.8,100 110.6,98.3 C116.5,92.5 117.6,82.8 113.8,71.1" id="Shape" fill="#00F0FF"></path>
            <path d="M846.8,119.4 C845.1,119.4 844.6,120.2 844.6,121.8 L844.6,124.5 L849.1,124.5 L848.6,128.9 L844.5,128.9 L844.5,142.3 L839.1,142.3 L839.1,128.9 L835.4,128.9 L835.4,124.5 L839.1,124.5 L839.1,121.8 C839.1,117.3 840.9,115 846,115 C847.1,115 848.4,115.1 849.2,115.2 L849.2,119.4 L846.8,119.4 Z" id="Shape" fill="#3B5998"></path>
            <path d="M854.9,134.1 C854.9,136.8 855.9,138.5 858.4,138.5 C860.6,138.5 861.8,136.9 861.8,134.3 L861.8,132.5 C861.8,129.9 860.7,128.3 858.4,128.3 C855.9,128.3 854.9,130.1 854.9,132.7 L854.9,134.1 Z M849.5,132.9 C849.5,127.9 851.9,124.2 856.9,124.2 C859.6,124.2 861.3,125.6 862.1,127.3 L862.1,124.6 L867.3,124.6 L867.3,142.5 L862,142.5 L862,139.8 C861.2,141.5 859.5,142.9 856.8,142.9 C851.8,142.9 849.4,139.1 849.4,134.2 L849.4,132.9 L849.5,132.9 Z" id="Shape" fill="#3B5998"></path>
            <path d="M878.6,124.1 C880.7,124.1 882.7,124.6 883.8,125.3 L882.6,129.1 C881.8,128.7 880.4,128.3 879,128.3 C876.1,128.3 874.8,130 874.8,132.9 L874.8,134 C874.8,136.9 876.1,138.6 879,138.6 C880.4,138.6 881.8,138.2 882.6,137.8 L883.8,141.6 C882.7,142.4 880.7,142.8 878.6,142.8 C872.2,142.8 869.3,139.4 869.3,133.9 L869.3,133 C869.3,127.5 872.2,124.1 878.6,124.1" id="Shape" fill="#3B5998"></path>
            <path d="M889.9,131.8 L896.5,131.8 L896.5,131.4 C896.5,129.4 895.7,127.9 893.3,127.9 C890.9,127.8 889.9,129.4 889.9,131.8 M884.5,134.1 L884.5,132.5 C884.5,127.4 887.4,124.1 893.3,124.1 C898.9,124.1 901.3,127.5 901.3,132.4 L901.3,135.3 L889.9,135.3 C890,137.7 891.1,138.8 894.1,138.8 C896.1,138.8 898.3,138.4 899.9,137.7 L900.9,141.4 C899.5,142.2 896.5,142.7 893.9,142.7 C887.1,142.8 884.5,139.4 884.5,134.1" id="Shape" fill="#3B5998"></path>
            <path d="M916.1,132.8 C916.1,130.3 915.1,128.4 912.5,128.4 C910.3,128.4 909.1,130 909.1,132.5 L909.1,134.4 C909.1,137 910.3,138.5 912.5,138.5 C915.1,138.5 916.1,136.6 916.1,134.1 L916.1,132.8 Z M921.5,134 C921.5,139 919.1,142.7 914.1,142.7 C911.4,142.7 909.5,141.3 908.7,139.6 L908.7,142.3 L903.6,142.3 L903.6,115.5 L909,115 L909,127 C909.8,125.4 911.5,124.1 914.1,124.1 C919.1,124.1 921.5,127.9 921.5,132.8 L921.5,134 Z" id="Shape" fill="#3B5998"></path>
            <path d="M935.8,132.6 C935.8,130.2 934.8,128.4 932.3,128.4 C929.8,128.4 928.8,130.3 928.8,132.6 L928.8,134.3 C928.8,136.7 929.8,138.5 932.3,138.5 C934.8,138.5 935.8,136.6 935.8,134.3 L935.8,132.6 Z M923.3,133.9 L923.3,133 C923.3,127.9 926.2,124.1 932.2,124.1 C938.2,124.1 941.1,127.8 941.1,133 L941.1,133.9 C941.1,139 938.2,142.8 932.2,142.8 C926.3,142.7 923.3,139 923.3,133.9 L923.3,133.9 Z" id="Shape" fill="#3B5998"></path>
            <path d="M955.5,132.6 C955.5,130.2 954.5,128.4 952,128.4 C949.5,128.4 948.5,130.3 948.5,132.6 L948.5,134.3 C948.5,136.7 949.5,138.5 952,138.5 C954.5,138.5 955.5,136.6 955.5,134.3 L955.5,132.6 Z M943.1,133.9 L943.1,133 C943.1,127.9 946,124.1 952,124.1 C958,124.1 960.9,127.8 960.9,133 L960.9,133.9 C960.9,139 958,142.8 952,142.8 C946,142.7 943.1,139 943.1,133.9 L943.1,133.9 Z" id="Shape" fill="#3B5998"></path>
            <polygon id="Shape" fill="#3B5998" points="968.4 133 973.8 124.5 979.6 124.5 973.9 133.3 979.8 142.4 974 142.4 968.4 133.6 968.4 142.4 963 142.4 963 115.5 968.4 115"></polygon>
            <path d="M758,119.3 C757.2,118.9 756.3,118.6 755.3,118.6 C753.4,118.6 752.4,119.8 752.4,122.7 L752.4,125.6 L757.9,125.6 L757.8,127.7 L752.4,127.7 L752.4,142.9 L750.1,142.9 L750.1,127.8 L747.3,127.6 L747.5,126.1 L750.1,125.5 L750.1,122.8 C750.2,118.2 752.3,116.5 755.4,116.5 C756.6,116.5 757.8,116.9 758.6,117.3 C758.6,117.2 758,119.3 758,119.3" id="Shape" fill="#3B5998"></path>
            <path d="M763.4,142.8 L761,142.8 L761,125.4 L763.4,124.9 L763.4,128.6 C764.5,126.4 766.3,124.9 768.6,124.9 C769.7,124.9 770.8,125.2 771.7,125.7 L771.1,127.9 C770.3,127.4 769.4,127.1 768.4,127.1 C766.6,127.1 764.9,128.5 763.5,131.6 L763.5,142.8 L763.4,142.8 Z" id="Shape" fill="#3B5998"></path>
            <path d="M781.6,127 C777.9,127 775.5,129.9 775.5,134 C775.5,138.2 778,141.1 781.7,141.1 C785.4,141.1 787.8,138.2 787.8,134.1 C787.7,129.9 785.2,127 781.6,127 M781.5,143.3 C776.7,143.3 773.1,139.7 773.1,134.2 C773.1,128.7 776.8,125 781.7,125 C786.6,125 790.1,128.6 790.1,134.1 C790.1,139.6 786.3,143.3 781.5,143.3" id="Shape" fill="#3B5998"></path>
            <path d="M816.3,142.8 L816.3,131.6 C816.3,128.6 815.1,127.2 812.6,127.2 C810.7,127.2 809,128.2 807.7,129.4 C807.7,129.6 807.8,130.5 807.8,131 L807.8,142.8 L805.4,142.8 L805.4,131.6 C805.4,128.6 804.2,127.2 801.7,127.2 C799.9,127.2 798.2,128 796.9,129.2 L796.9,142.8 L794.5,142.8 L794.5,125.4 L796.9,124.9 L796.9,127.3 C798.7,125.7 800.6,124.9 802.4,124.9 C804.6,124.9 806.3,125.8 807.1,127.8 C809.1,125.9 811.3,124.9 813.3,124.9 C816.6,124.9 818.7,127.1 818.7,130.9 L818.7,142.8 L816.3,142.8 Z" id="Shape" fill="#3B5998"></path>
            <text id="Delhi" fill="#00F0FF" font-family="Helvetica" font-size="90" font-weight="normal">
                <tspan x="810.7012" y="87.0464">Delhi</tspan>
            </text>
        </g>
    </g>
</svg>