<?xml version="1.0" encoding="UTF-8"?>
<svg width="132px" height="16px" viewBox="0 0 132 16" version="1.1" xmlns="http://www.w3.org/2000/svg" xmlns:xlink="http://www.w3.org/1999/xlink">
    <!-- Generator: Sketch 59.1 (86144) - https://sketch.com -->
    <title>Artboard</title>
    <desc>Created with Sketch.</desc>
    <g id="Artboard" stroke="none" stroke-width="1" fill="none" fill-rule="evenodd">
        <g id="Logo" fill="#DC4541">
            <path d="M0.101978754,13.3249668 L1.05977921,11.5266224 C1.22274526,11.2449668 1.61016455,11.2880123 1.75313476,11.3964231 C1.83461779,11.44 3.30181212,12.5878794 4.64703187,12.5878794 C5.46236201,12.5878794 6.05323891,12.0468881 6.05323891,11.2880123 C6.05323891,10.3782115 5.34038742,9.6852325 3.95417621,9.10013286 C2.20104145,8.3635769 0,6.91172202 0,4.31198774 C0,2.16662238 1.56967298,0 4.70801916,0 C6.82807748,0 8.45823787,1.14841083 9.07011039,1.62509964 C9.31455947,1.77655595 9.27356801,2.16662238 9.19208498,2.31861012 L8.1528015,3.98675524 C8.00983129,4.22536536 7.64340762,4.41986714 7.45994584,4.26841083 C7.27648407,4.16 5.78829411,2.96801226 4.54505311,2.96801226 C3.81170589,2.96801226 3.26082066,3.48827798 3.26082066,4.07337762 C3.26082066,4.8747675 3.87269319,5.4816556 5.48285774,6.17516607 C7.07252656,6.84688809 9.6,8.16854369 9.6,11.1147675 C9.6,13.3467552 7.78587794,15.6 4.79000208,15.6 C2.14005416,15.6 0.672859821,14.4298007 0.203957509,13.9318549 C0,13.7150332 -0.0609872943,13.6278794 0.101978754,13.3249668" id="Fill-1"></path>
            <path d="M19.2,0.423084201 C19.2,0.200609692 19.3980297,0 19.617643,0 L22.2357356,0 C22.4780117,0 22.6539182,0.200609692 22.6539182,0.423084201 L22.6539182,6.03906234 L28.9455422,6.03906234 L28.9455422,0.423084201 C28.9455422,0.200609692 29.1214487,0 29.3637248,0 L31.9818174,0 C32.2014307,0 32.4,0.200609692 32.4,0.423084201 L32.4,15.1769158 C32.4,15.3993903 32.2014307,15.6 31.9818174,15.6 L29.3637248,15.6 C29.1214487,15.6 28.9455422,15.3993903 28.9455422,15.1769158 L28.9455422,9.3155051 L22.6539182,9.3155051 L22.6539182,15.1769158 C22.6539182,15.3993903 22.4780117,15.6 22.2357356,15.6 L19.617643,15.6 C19.3980297,15.6 19.2,15.3993903 19.2,15.1769158 L19.2,0.423084201" id="Fill-3"></path>
            <path d="M40.8,0.423084201 C40.8,0.200609692 40.9698285,0 41.2037334,0 L49.9962666,0 C50.2301715,0 50.4,0.200609692 50.4,0.423084201 L50.4,2.85226532 C50.4,3.07528645 50.2301715,3.27589614 49.9962666,3.27589614 L44.113219,3.27589614 L44.113219,6.03906234 L48.9559366,6.03906234 C49.1684827,6.03906234 49.3596701,6.24021865 49.3596701,6.46269316 L49.3596701,8.89187428 C49.3596701,9.13730684 49.1684827,9.3155051 48.9559366,9.3155051 L44.113219,9.3155051 L44.113219,12.3241039 L49.9962666,12.3241039 C50.2301715,12.3241039 50.4,12.5247135 50.4,12.7471881 L50.4,15.1769158 C50.4,15.3993903 50.2301715,15.6 49.9962666,15.6 L41.2037334,15.6 C40.9698285,15.6 40.8,15.3993903 40.8,15.1769158 L40.8,0.423084201" id="Fill-4"></path>
            <path d="M66.1455178,6.66330285 C66.9713449,6.66330285 67.6770787,5.81658783 67.6770787,4.88022706 C67.6770787,3.94495953 66.9713449,3.18679701 66.1455178,3.18679701 L63.1634467,3.18679701 L63.1634467,6.66330285 L66.1455178,6.66330285 Z M60,0.423084201 C60,0.200609692 60.1611129,0 60.3825196,0 L66.4074498,0 C68.8251316,0 70.8,2.16188374 70.8,4.81353937 C70.8,6.86391254 69.5708964,8.51306633 67.8179289,9.29309366 L70.5785933,14.9538947 C70.7194436,15.2436035 70.5785933,15.6 70.2361049,15.6 L67.5559969,15.6 C67.394884,15.6 67.2738022,15.4884894 67.2332769,15.3993903 L64.5536631,9.49370335 L63.1634467,9.49370335 L63.1634467,15.1769158 C63.1634467,15.3993903 62.9820711,15.6 62.7804329,15.6 L60.3825196,15.6 C60.1611129,15.6 60,15.3993903 60,15.1769158 L60,0.423084201 L60,0.423084201 Z" id="Fill-5"></path>
            <path d="M86.9893566,12.1335105 C89.3756021,12.1335105 91.3286621,10.1831783 91.3286621,7.82152274 C91.3286621,5.43861012 89.3756021,3.46648952 86.9893566,3.46648952 C84.6238657,3.46648952 82.6713379,5.43861012 82.6713379,7.82152274 C82.6713379,10.1831783 84.6238657,12.1335105 86.9893566,12.1335105 Z M86.9893566,0 C91.3286621,0 94.8,3.48827798 94.8,7.82152274 C94.8,12.1547675 91.3286621,15.6 86.9893566,15.6 C82.649519,15.6 79.2,12.1547675 79.2,7.82152274 C79.2,3.48827798 82.649519,0 86.9893566,0 L86.9893566,0 Z" id="Fill-6"></path>
            <path d="M103.2,0.423084201 C103.2,0.200609692 103.36981,0 103.60369,0 L112.395789,0 C112.629669,0 112.8,0.200609692 112.8,0.423084201 L112.8,2.85226532 C112.8,3.07528645 112.629669,3.27589614 112.395789,3.27589614 L106.51338,3.27589614 L106.51338,6.03906234 L111.355052,6.03906234 C111.567575,6.03906234 111.759262,6.24021865 111.759262,6.46269316 L111.759262,8.89187428 C111.759262,9.13730684 111.567575,9.3155051 111.355052,9.3155051 L106.51338,9.3155051 L106.51338,12.3241039 L112.395789,12.3241039 C112.629669,12.3241039 112.8,12.5247135 112.8,12.7471881 L112.8,15.1769158 C112.8,15.3993903 112.629669,15.6 112.395789,15.6 L103.60369,15.6 C103.36981,15.6 103.2,15.3993903 103.2,15.1769158 L103.2,0.423084201" id="Fill-7"></path>
            <path d="M122.502479,13.3249668 L123.460279,11.5266224 C123.623245,11.2449668 124.010165,11.2880123 124.152635,11.3964231 C124.234118,11.44 125.701812,12.5878794 127.047032,12.5878794 C127.862362,12.5878794 128.453239,12.0468881 128.453239,11.2880123 C128.453239,10.3782115 127.739888,9.6852325 126.354176,9.10013286 C124.601541,8.3635769 122.4,6.91172202 122.4,4.31198774 C122.4,2.16662238 123.969673,0 127.108019,0 C129.228077,0 130.858238,1.14841083 131.47011,1.62509964 C131.71406,1.77655595 131.673568,2.16662238 131.592085,2.31861012 L130.552801,3.98675524 C130.409831,4.22536536 130.042908,4.41986714 129.859446,4.26841083 C129.676484,4.16 128.188794,2.96801226 126.945053,2.96801226 C126.211206,2.96801226 125.661321,3.48827798 125.661321,4.07337762 C125.661321,4.8747675 126.272193,5.4816556 127.882858,6.17516607 C129.472527,6.84688809 132,8.16854369 132,11.1147675 C132,13.3467552 130.185878,15.6 127.189502,15.6 C124.540054,15.6 123.07236,14.4298007 122.603958,13.9318549 C122.4,13.7150332 122.339013,13.6278794 122.502479,13.3249668" id="Fill-8"></path>
        </g>
    </g>
</svg>