<svg width="172" height="61" viewBox="0 0 172 61" fill="none" xmlns="http://www.w3.org/2000/svg">
<path d="M13.0163 0.776235H20.3794V5.1628C22.5727 5.42391 24.5832 5.8939 26.411 6.57277C28.2909 7.25165 29.8576 7.98274 31.1109 8.76606V18.5575C29.4398 17.4609 27.5598 16.4687 25.471 15.5809C23.3821 14.6931 21.1105 14.2493 18.6561 14.2493C17.4028 14.2493 16.1756 14.432 14.9746 14.7976C13.7735 15.1631 12.7813 15.7376 11.998 16.5209C11.2146 17.252 10.823 18.2181 10.823 19.4192C10.823 20.9858 11.5019 22.1869 12.8596 23.0224C14.2173 23.8057 15.9145 24.589 17.9512 25.3724L24.1393 27.879C27.5337 29.1845 29.9881 30.8817 31.5025 32.9705C33.0691 35.0594 33.8525 37.4093 33.8525 40.0204C33.8525 42.4225 33.2519 44.5897 32.0508 46.5219C30.902 48.4018 29.3092 49.9946 27.2726 51.3001C25.236 52.6056 22.9383 53.5195 20.3794 54.0417V60.0732H13.0163V54.355C10.7185 54.0417 8.52525 53.4673 6.43641 52.6317C4.39979 51.744 2.59816 50.7257 1.03153 49.5768V39.7854C3.06815 41.2998 5.33977 42.6053 7.84638 43.7019C10.4052 44.7464 13.1207 45.2686 15.9929 45.2686C17.9773 45.2686 19.6744 44.8769 21.0844 44.0936C22.4944 43.2581 23.1994 42.057 23.1994 40.4903C23.1994 39.2893 22.6249 38.2971 21.4761 37.5137C20.3272 36.6782 19.0739 35.9993 17.7162 35.4771L9.96133 32.6572C6.20142 31.2994 3.6687 29.4717 2.36317 27.174C1.10986 24.824 0.483211 22.2652 0.483211 19.4975C0.483211 17.0431 1.03153 14.8759 2.12817 12.996C3.27704 11.0638 4.79145 9.47104 6.67141 8.21773C8.55136 6.91221 10.6663 5.99834 13.0163 5.47613V0.776235Z" fill="#00FFA4"/>
<path d="M78.5798 46.3652V56H46.2289V46.3652H56.9603V18.9492C55.3937 20.2547 53.6965 21.2469 51.8687 21.9258C50.041 22.6046 48.3177 23.1268 46.6988 23.4924V12.9176C49.3099 12.1343 51.8426 10.9071 54.297 9.23605C56.8036 7.56497 58.8925 5.6589 60.5635 3.51784H67.77V46.3652H78.5798ZM106.701 2.34287C111.192 2.34287 114.926 3.59617 117.902 6.10278C120.931 8.55717 123.177 11.8732 124.639 16.0509C126.153 20.1764 126.91 24.7457 126.91 29.7589C126.91 34.7721 126.153 39.3676 124.639 43.5453C123.177 47.6707 120.931 50.9868 117.902 53.4934C114.926 55.9478 111.192 57.175 106.701 57.175C102.21 57.175 98.4499 55.9478 95.4211 53.4934C92.4445 50.9868 90.199 47.6707 88.6846 43.5453C87.2224 39.3676 86.4913 34.7721 86.4913 29.7589C86.4913 24.7457 87.2224 20.1764 88.6846 16.0509C90.199 11.8732 92.4445 8.55717 95.4211 6.10278C98.4499 3.59617 102.21 2.34287 106.701 2.34287ZM106.701 11.821C104.612 11.821 102.863 12.6304 101.453 14.2493C100.095 15.8159 99.0766 17.957 98.3977 20.6725C97.7188 23.3357 97.3794 26.3646 97.3794 29.7589C97.3794 33.1533 97.7188 36.2082 98.3977 38.9237C99.0766 41.587 100.095 43.7019 101.453 45.2686C102.863 46.8352 104.612 47.6185 106.701 47.6185C108.79 47.6185 110.513 46.8352 111.871 45.2686C113.281 43.7019 114.325 41.587 115.004 38.9237C115.735 36.2082 116.101 33.1533 116.101 29.7589C116.101 26.3646 115.735 23.3357 115.004 20.6725C114.325 17.957 113.281 15.8159 111.871 14.2493C110.513 12.6304 108.79 11.821 106.701 11.821ZM151.741 2.34287C156.233 2.34287 159.966 3.59617 162.943 6.10278C165.972 8.55717 168.217 11.8732 169.679 16.0509C171.194 20.1764 171.951 24.7457 171.951 29.7589C171.951 34.7721 171.194 39.3676 169.679 43.5453C168.217 47.6707 165.972 50.9868 162.943 53.4934C159.966 55.9478 156.233 57.175 151.741 57.175C147.25 57.175 143.491 55.9478 140.462 53.4934C137.485 50.9868 135.24 47.6707 133.725 43.5453C132.263 39.3676 131.532 34.7721 131.532 29.7589C131.532 24.7457 132.263 20.1764 133.725 16.0509C135.24 11.8732 137.485 8.55717 140.462 6.10278C143.491 3.59617 147.25 2.34287 151.741 2.34287ZM151.741 11.821C149.653 11.821 147.903 12.6304 146.493 14.2493C145.136 15.8159 144.117 17.957 143.438 20.6725C142.759 23.3357 142.42 26.3646 142.42 29.7589C142.42 33.1533 142.759 36.2082 143.438 38.9237C144.117 41.587 145.136 43.7019 146.493 45.2686C147.903 46.8352 149.653 47.6185 151.741 47.6185C153.83 47.6185 155.554 46.8352 156.911 45.2686C158.321 43.7019 159.366 41.587 160.045 38.9237C160.776 36.2082 161.141 33.1533 161.141 29.7589C161.141 26.3646 160.776 23.3357 160.045 20.6725C159.366 17.957 158.321 15.8159 156.911 14.2493C155.554 12.6304 153.83 11.821 151.741 11.821Z" fill="white"/>
</svg>
