<svg xmlns="http://www.w3.org/2000/svg" width="180" height="145" fill="none" viewBox="0 0 180 145"><path fill="#FD9727" d="M13.0163 0.776235H20.3794V5.1628C22.5727 5.42391 24.5832 5.8939 26.411 6.57277C28.2909 7.25165 29.8576 7.98274 31.1109 8.76606V18.5575C29.4398 17.4609 27.5598 16.4687 25.471 15.5809C23.3821 14.6931 21.1105 14.2493 18.6561 14.2493C17.4028 14.2493 16.1756 14.432 14.9746 14.7976C13.7735 15.1631 12.7813 15.7376 11.998 16.5209C11.2146 17.252 10.823 18.2181 10.823 19.4192C10.823 20.9858 11.5019 22.1869 12.8596 23.0224C14.2173 23.8057 15.9145 24.589 17.9512 25.3724L24.1393 27.879C27.5337 29.1845 29.9881 30.8817 31.5025 32.9705C33.0691 35.0594 33.8525 37.4093 33.8525 40.0204C33.8525 42.4225 33.2519 44.5897 32.0508 46.5219C30.902 48.4018 29.3092 49.9946 27.2726 51.3001C25.236 52.6056 22.9383 53.5195 20.3794 54.0417V60.0732H13.0163V54.355C10.7185 54.0417 8.52525 53.4673 6.43641 52.6317C4.39979 51.744 2.59816 50.7257 1.03153 49.5768V39.7854C3.06815 41.2998 5.33977 42.6053 7.84638 43.7019C10.4052 44.7464 13.1207 45.2686 15.9929 45.2686C17.9773 45.2686 19.6744 44.8769 21.0844 44.0936C22.4944 43.2581 23.1994 42.057 23.1994 40.4903C23.1994 39.2893 22.6249 38.2971 21.4761 37.5137C20.3272 36.6782 19.0739 35.9993 17.7162 35.4771L9.96133 32.6572C6.20142 31.2994 3.6687 29.4717 2.36317 27.174C1.10986 24.824 0.483211 22.2652 0.483211 19.4975C0.483211 17.0431 1.03153 14.8759 2.12817 12.996C3.27704 11.0638 4.79145 9.47104 6.67141 8.21773C8.55136 6.91221 10.6663 5.99834 13.0163 5.47613V0.776235Z"/><path fill="#fff" d="M78.5798 46.3652V56H46.2289V46.3652H56.9603V18.9492C55.3937 20.2547 53.6965 21.2469 51.8687 21.9258C50.041 22.6046 48.3177 23.1268 46.6988 23.4924V12.9176C49.3099 12.1343 51.8426 10.9071 54.297 9.23605C56.8036 7.56497 58.8925 5.6589 60.5635 3.51784H67.77V46.3652H78.5798ZM106.701 2.34287C111.192 2.34287 114.926 3.59617 117.902 6.10278C120.931 8.55717 123.177 11.8732 124.639 16.0509C126.153 20.1764 126.91 24.7457 126.91 29.7589C126.91 34.7721 126.153 39.3676 124.639 43.5453C123.177 47.6707 120.931 50.9868 117.902 53.4934C114.926 55.9478 111.192 57.175 106.701 57.175C102.21 57.175 98.4499 55.9478 95.4211 53.4934C92.4445 50.9868 90.199 47.6707 88.6846 43.5453C87.2224 39.3676 86.4913 34.7721 86.4913 29.7589C86.4913 24.7457 87.2224 20.1764 88.6846 16.0509C90.199 11.8732 92.4445 8.55717 95.4211 6.10278C98.4499 3.59617 102.21 2.34287 106.701 2.34287ZM106.701 11.821C104.612 11.821 102.863 12.6304 101.453 14.2493C100.095 15.8159 99.0766 17.957 98.3977 20.6725C97.7188 23.3357 97.3794 26.3646 97.3794 29.7589C97.3794 33.1533 97.7188 36.2082 98.3977 38.9237C99.0766 41.587 100.095 43.7019 101.453 45.2686C102.863 46.8352 104.612 47.6185 106.701 47.6185C108.79 47.6185 110.513 46.8352 111.871 45.2686C113.281 43.7019 114.325 41.587 115.004 38.9237C115.735 36.2082 116.101 33.1533 116.101 29.7589C116.101 26.3646 115.735 23.3357 115.004 20.6725C114.325 17.957 113.281 15.8159 111.871 14.2493C110.513 12.6304 108.79 11.821 106.701 11.821ZM151.741 2.34287C156.233 2.34287 159.966 3.59617 162.943 6.10278C165.972 8.55717 168.217 11.8732 169.679 16.0509C171.194 20.1764 171.951 24.7457 171.951 29.7589C171.951 34.7721 171.194 39.3676 169.679 43.5453C168.217 47.6707 165.972 50.9868 162.943 53.4934C159.966 55.9478 156.233 57.175 151.741 57.175C147.25 57.175 143.491 55.9478 140.462 53.4934C137.485 50.9868 135.24 47.6707 133.725 43.5453C132.263 39.3676 131.532 34.7721 131.532 29.7589C131.532 24.7457 132.263 20.1764 133.725 16.0509C135.24 11.8732 137.485 8.55717 140.462 6.10278C143.491 3.59617 147.25 2.34287 151.741 2.34287ZM151.741 11.821C149.653 11.821 147.903 12.6304 146.493 14.2493C145.136 15.8159 144.117 17.957 143.438 20.6725C142.759 23.3357 142.42 26.3646 142.42 29.7589C142.42 33.1533 142.759 36.2082 143.438 38.9237C144.117 41.587 145.136 43.7019 146.493 45.2686C147.903 46.8352 149.653 47.6185 151.741 47.6185C153.83 47.6185 155.554 46.8352 156.911 45.2686C158.321 43.7019 159.366 41.587 160.045 38.9237C160.776 36.2082 161.141 33.1533 161.141 29.7589C161.141 26.3646 160.776 23.3357 160.045 20.6725C159.366 17.957 158.321 15.8159 156.911 14.2493C155.554 12.6304 153.83 11.821 151.741 11.821Z"/><path fill="#F90" fill-rule="evenodd" d="M111.483 132.7C101.113 140.361 86.0811 144.448 73.1391 144.448C54.9922 144.448 38.6555 137.721 26.2959 126.534C25.3251 125.654 26.1951 124.456 27.3603 125.141C40.6985 132.918 57.1907 137.597 74.2266 137.597C85.716 137.597 98.355 135.215 109.976 130.271C111.732 129.524 113.2 131.423 111.483 132.7Z" clip-rule="evenodd"/><path fill="#F90" fill-rule="evenodd" d="M115.795 127.757C114.474 126.06 107.032 126.955 103.692 127.352C102.674 127.477 102.519 126.589 103.435 125.951C109.363 121.77 119.089 122.977 120.223 124.378C121.357 125.787 119.928 135.557 114.358 140.221C113.503 140.937 112.687 140.555 113.068 139.606C114.319 136.476 117.123 129.462 115.795 127.757Z" clip-rule="evenodd"/><path fill="#fff" fill-rule="evenodd" d="M103.925 96.4372V92.3735C103.925 91.7584 104.391 91.3458 104.95 91.3458H123.105C123.688 91.3458 124.154 91.7661 124.154 92.3735V95.8533C124.146 96.4372 123.657 97.2002 122.787 98.4069L113.379 111.867C116.875 111.782 120.565 112.303 123.734 114.094C124.449 114.499 124.643 115.09 124.698 115.674V120.01C124.698 120.602 124.045 121.295 123.361 120.937C117.776 118.002 110.357 117.683 104.181 120.968C103.552 121.311 102.892 120.625 102.892 120.034V115.916C102.892 115.254 102.899 114.125 103.56 113.121L114.459 97.4572H104.974C104.391 97.4572 103.925 97.0446 103.925 96.4372ZM37.7002 121.793H32.1768C31.6486 121.754 31.2292 121.357 31.1903 120.851V92.4436C31.1903 91.8752 31.6641 91.4236 32.2544 91.4236H37.4048C37.9409 91.4469 38.3682 91.8597 38.4071 92.3733V96.087H38.5081C39.8519 92.4981 42.3766 90.8245 45.7791 90.8245C49.2359 90.8245 51.3957 92.4981 52.9494 96.087C54.2855 92.4981 57.3229 90.8245 60.5779 90.8245C62.8927 90.8245 65.4253 91.782 66.9711 93.9307C68.7189 96.3206 68.3617 99.7927 68.3617 102.837L68.3538 120.766C68.3538 121.334 67.88 121.793 67.2896 121.793H61.7741C61.2227 121.755 60.7797 121.311 60.7797 120.766V105.709C60.7797 104.51 60.8886 101.521 60.6245 100.384C60.2127 98.477 58.9776 97.9397 57.3772 97.9397C56.041 97.9397 54.6428 98.835 54.0756 100.268C53.5087 101.7 53.5631 104.098 53.5631 105.709V120.766C53.5631 121.334 53.0891 121.793 52.4987 121.793H46.9832C46.4239 121.754 45.9888 121.311 45.9888 120.766L45.9812 105.709C45.9812 102.541 46.5015 97.8777 42.5786 97.8777C38.6091 97.8777 38.7643 102.424 38.7643 105.709V120.766C38.7643 121.334 38.2905 121.793 37.7002 121.793ZM139.784 90.8243C147.979 90.8243 152.415 97.8775 152.415 106.846C152.415 115.511 147.513 122.385 139.783 122.385C131.735 122.385 127.354 115.332 127.354 106.542C127.354 97.6985 131.79 90.8243 139.784 90.8243ZM139.83 96.6241C135.759 96.6241 135.503 102.183 135.503 105.647C135.503 109.119 135.449 116.53 139.784 116.53C144.064 116.53 144.266 110.552 144.266 106.908C144.266 104.51 144.165 101.645 143.442 99.3723C142.821 97.3948 141.586 96.6241 139.83 96.6241H139.83ZM163.042 121.793H157.542C156.99 121.754 156.548 121.311 156.548 120.766L156.54 92.3501C156.586 91.8285 157.045 91.4236 157.604 91.4236H162.723C163.205 91.4469 163.601 91.7742 163.71 92.2177V96.5619H163.811C165.357 92.6772 167.524 90.8243 171.338 90.8243C173.817 90.8243 176.233 91.7194 177.786 94.1718C179.231 96.4449 179.231 100.268 179.231 103.016V120.898C179.169 121.396 178.711 121.793 178.167 121.793H172.628C172.123 121.754 171.704 121.381 171.649 120.898V105.468C171.649 102.362 172.007 97.8151 168.192 97.8151C166.849 97.8151 165.613 98.7182 165 100.088C164.223 101.825 164.122 103.553 164.122 105.468V120.766C164.114 121.334 163.632 121.793 163.042 121.793ZM89.4526 108.224C89.4526 110.38 89.507 112.179 88.4193 114.094C87.5416 115.651 86.1434 116.608 84.5974 116.608C82.4767 116.608 81.2337 114.989 81.2337 112.599C81.2337 107.881 85.452 107.025 89.4526 107.025V108.224ZM95.0224 121.715C94.6574 122.042 94.1292 122.066 93.7175 121.848C91.8841 120.322 91.5501 119.613 90.548 118.158C87.5183 121.256 85.3665 122.183 81.4434 122.183C76.7902 122.183 73.178 119.31 73.178 113.557C73.178 109.065 75.6017 106.005 79.0663 104.51C82.065 103.187 86.2521 102.953 89.4528 102.587V101.871C89.4528 100.556 89.5536 98.9985 88.7768 97.8619C88.1088 96.8421 86.819 96.4217 85.6772 96.4217C83.5719 96.4217 81.6999 97.5037 81.2416 99.7459C81.1482 100.244 80.7831 100.735 80.2783 100.758L74.9258 100.182C74.4754 100.081 73.9703 99.7148 74.1024 99.0219C75.3299 92.5137 81.2027 90.5518 86.4543 90.5518C89.1421 90.5518 92.6533 91.268 94.7741 93.3078C97.4618 95.8224 97.2055 99.1775 97.2055 102.829V111.455C97.2055 114.047 98.2777 115.184 99.2874 116.585C99.6372 117.083 99.7147 117.683 99.2642 118.056C98.1378 118.998 96.1335 120.75 95.0304 121.731L95.0227 121.715H95.0224ZM17.0442 108.224C17.0442 110.38 17.0986 112.179 16.0109 114.094C15.1332 115.651 13.7426 116.608 12.1889 116.608C10.0683 116.608 8.83296 114.989 8.83296 112.599C8.83296 107.881 13.0513 107.025 17.0442 107.025V108.224ZM22.6139 121.715C22.249 122.042 21.7207 122.066 21.309 121.848C19.4757 120.322 19.1493 119.613 18.1395 118.158C15.1098 121.256 12.9659 122.183 9.03498 122.183C4.38962 122.183 0.769531 119.31 0.769531 113.557C0.769531 109.065 3.20107 106.005 6.65787 104.51C9.65656 103.187 13.8436 102.953 17.0442 102.587V101.871C17.0442 100.556 17.1452 98.9985 16.376 97.8619C15.7002 96.8421 14.4108 96.4217 13.2765 96.4217C11.1713 96.4217 9.29143 97.5037 8.83296 99.7459C8.7398 100.244 8.37467 100.735 7.87748 100.758L2.51738 100.182C2.06677 100.081 1.56975 99.7148 1.69396 99.0219C2.92909 92.5137 8.79423 90.5518 14.0456 90.5518C16.7333 90.5518 20.2447 91.268 22.3655 93.3078C25.0532 95.8224 24.7969 99.1775 24.7969 102.829V111.455C24.7969 114.047 25.8689 115.184 26.8788 116.585C27.2363 117.083 27.3139 117.683 26.8633 118.056C25.7368 118.998 23.7327 120.75 22.6296 121.731L22.6141 121.715" clip-rule="evenodd"/></svg>