<svg xmlns="http://www.w3.org/2000/svg" width="264" height="60" fill="none" viewBox="0 0 264 60"><path fill="#00FFA4" d="M14.6518 58L0.213751 32.8136V26.8779H5.02644C7.86058 26.8779 10.2402 26.263 12.1653 25.0331C14.0903 23.7497 15.3203 21.985 15.855 19.7391H0.213751V13.8034H15.7748C15.2935 11.7714 14.3042 10.087 12.807 8.75011C11.3097 7.35978 9.22418 6.66461 6.55046 6.66461H0.213751V0.728957H36.3892V6.66461H23.7959C25.6675 8.69664 26.844 11.0762 27.3253 13.8034H36.3892V19.7391H27.4857C26.9509 23.6962 25.4269 26.7977 22.9136 29.0436C20.4003 31.2361 17.1651 32.7334 13.208 33.5355L28.9295 58H14.6518Z"/><path fill="#fff" d="M62.3652 4.34287C65.9684 4.34287 69.1017 5.02174 71.7649 6.37949C74.4804 7.68501 76.5954 9.53886 78.1098 11.941C79.6242 14.291 80.3814 17.0587 80.3814 20.2442C80.3814 22.8552 79.9637 25.2574 79.1281 27.4507C78.3448 29.5917 77.1959 31.7328 75.6815 33.8739C74.1671 35.9627 72.3133 38.2082 70.12 40.6104C67.9789 43.0126 65.5245 45.7542 62.7568 48.8352H80.7731V58H46.5422V53.6134C51.5554 48.1824 55.7592 43.6131 59.1536 39.9054C62.6002 36.1455 65.1851 32.9339 66.9084 30.2706C68.6839 27.5551 69.5717 25.153 69.5717 23.0641C69.5717 20.4008 68.6839 18.3381 66.9084 16.8759C65.1851 15.3615 63.0179 14.6043 60.4069 14.6043C58.0047 14.6043 55.6548 15.231 53.357 16.4843C51.0593 17.7376 49.1793 19.1475 47.7172 20.7142V9.59108C49.2838 8.23333 51.3726 7.03225 53.9837 5.98783C56.5947 4.89119 59.3886 4.34287 62.3652 4.34287ZM123.072 5.51784V15.231H104.038V26.2757C104.925 25.9102 105.996 25.6229 107.249 25.4141C108.502 25.153 109.834 25.0224 111.244 25.0224C113.855 25.0224 116.283 25.6752 118.529 26.9807C120.827 28.234 122.68 30.0095 124.09 32.3072C125.5 34.5527 126.205 37.216 126.205 40.2971C126.205 44.3703 125.292 47.8169 123.464 50.6368C121.636 53.4045 119.208 55.5195 116.179 56.9817C113.15 58.4439 109.782 59.175 106.074 59.175C102.575 59.175 99.5988 58.6267 97.1444 57.53C94.69 56.3811 92.7839 55.2584 91.4262 54.1618V44.4486C93.3061 45.5975 95.2905 46.7464 97.3794 47.8952C99.4682 48.9919 101.87 49.5402 104.586 49.5402C107.719 49.5402 110.304 48.8874 112.341 47.5819C114.377 46.2242 115.396 44.2136 115.396 41.5504C115.396 39.1482 114.351 37.216 112.262 35.7538C110.226 34.2916 107.667 33.5605 104.586 33.5605C102.601 33.5605 100.774 33.7694 99.1027 34.1872C97.4838 34.605 95.9433 35.0488 94.4811 35.5188V5.51784H123.072ZM153.621 4.34287C158.112 4.34287 161.846 5.59617 164.823 8.10278C167.852 10.5572 170.097 13.8732 171.559 18.0509C173.074 22.1764 173.831 26.7457 173.831 31.7589C173.831 36.7721 173.074 41.3676 171.559 45.5453C170.097 49.6707 167.852 52.9868 164.823 55.4934C161.846 57.9478 158.112 59.175 153.621 59.175C149.13 59.175 145.371 57.9478 142.342 55.4934C139.365 52.9868 137.12 49.6707 135.605 45.5453C134.143 41.3676 133.412 36.7721 133.412 31.7589C133.412 26.7457 134.143 22.1764 135.605 18.0509C137.12 13.8732 139.365 10.5572 142.342 8.10278C145.371 5.59617 149.13 4.34287 153.621 4.34287ZM153.621 13.821C151.533 13.821 149.783 14.6304 148.373 16.2493C147.015 17.8159 145.997 19.957 145.318 22.6725C144.639 25.3357 144.3 28.3646 144.3 31.7589C144.3 35.1533 144.639 38.2082 145.318 40.9237C145.997 43.587 147.015 45.7019 148.373 47.2686C149.783 48.8352 151.533 49.6185 153.621 49.6185C155.71 49.6185 157.434 48.8352 158.791 47.2686C160.201 45.7019 161.246 43.587 161.925 40.9237C162.656 38.2082 163.021 35.1533 163.021 31.7589C163.021 28.3646 162.656 25.3357 161.925 22.6725C161.246 19.957 160.201 17.8159 158.791 16.2493C157.434 14.6304 155.71 13.821 153.621 13.821ZM198.662 4.34287C203.153 4.34287 206.887 5.59617 209.864 8.10278C212.892 10.5572 215.138 13.8732 216.6 18.0509C218.114 22.1764 218.872 26.7457 218.872 31.7589C218.872 36.7721 218.114 41.3676 216.6 45.5453C215.138 49.6707 212.892 52.9868 209.864 55.4934C206.887 57.9478 203.153 59.175 198.662 59.175C194.171 59.175 190.411 57.9478 187.382 55.4934C184.406 52.9868 182.16 49.6707 180.646 45.5453C179.184 41.3676 178.453 36.7721 178.453 31.7589C178.453 26.7457 179.184 22.1764 180.646 18.0509C182.16 13.8732 184.406 10.5572 187.382 8.10278C190.411 5.59617 194.171 4.34287 198.662 4.34287ZM198.662 13.821C196.573 13.821 194.824 14.6304 193.414 16.2493C192.056 17.8159 191.038 19.957 190.359 22.6725C189.68 25.3357 189.341 28.3646 189.341 31.7589C189.341 35.1533 189.68 38.2082 190.359 40.9237C191.038 43.587 192.056 45.7019 193.414 47.2686C194.824 48.8352 196.573 49.6185 198.662 49.6185C200.751 49.6185 202.474 48.8352 203.832 47.2686C205.242 45.7019 206.286 43.587 206.965 40.9237C207.696 38.2082 208.062 35.1533 208.062 31.7589C208.062 28.3646 207.696 25.3357 206.965 22.6725C206.286 19.957 205.242 17.8159 203.832 16.2493C202.474 14.6304 200.751 13.821 198.662 13.821ZM243.703 4.34287C248.194 4.34287 251.928 5.59617 254.904 8.10278C257.933 10.5572 260.179 13.8732 261.641 18.0509C263.155 22.1764 263.912 26.7457 263.912 31.7589C263.912 36.7721 263.155 41.3676 261.641 45.5453C260.179 49.6707 257.933 52.9868 254.904 55.4934C251.928 57.9478 248.194 59.175 243.703 59.175C239.212 59.175 235.452 57.9478 232.423 55.4934C229.446 52.9868 227.201 49.6707 225.687 45.5453C224.224 41.3676 223.493 36.7721 223.493 31.7589C223.493 26.7457 224.224 22.1764 225.687 18.0509C227.201 13.8732 229.446 10.5572 232.423 8.10278C235.452 5.59617 239.212 4.34287 243.703 4.34287ZM243.703 13.821C241.614 13.821 239.865 14.6304 238.455 16.2493C237.097 17.8159 236.078 19.957 235.4 22.6725C234.721 25.3357 234.381 28.3646 234.381 31.7589C234.381 35.1533 234.721 38.2082 235.4 40.9237C236.078 43.587 237.097 45.7019 238.455 47.2686C239.865 48.8352 241.614 49.6185 243.703 49.6185C245.792 49.6185 247.515 48.8352 248.873 47.2686C250.283 45.7019 251.327 43.587 252.006 40.9237C252.737 38.2082 253.103 35.1533 253.103 31.7589C253.103 28.3646 252.737 25.3357 252.006 22.6725C251.327 19.957 250.283 17.8159 248.873 16.2493C247.515 14.6304 245.792 13.821 243.703 13.821Z"/></svg>