<svg xmlns="http://www.w3.org/2000/svg" width="219" height="60" fill="none" viewBox="0 0 219 60"><path fill="#FD9727" d="M14.6518 58L0.213751 32.8136V26.8779H5.02644C7.86058 26.8779 10.2402 26.263 12.1653 25.0331C14.0903 23.7497 15.3203 21.985 15.855 19.7391H0.213751V13.8034H15.7748C15.2935 11.7714 14.3042 10.087 12.807 8.75011C11.3097 7.35978 9.22418 6.66461 6.55046 6.66461H0.213751V0.728957H36.3892V6.66461H23.7959C25.6675 8.69664 26.844 11.0762 27.3253 13.8034H36.3892V19.7391H27.4857C26.9509 23.6962 25.4269 26.7977 22.9136 29.0436C20.4003 31.2361 17.1651 32.7334 13.208 33.5355L28.9295 58H14.6518Z"/><path fill="#fff" d="M78.0315 5.51784V15.231H58.9969V26.2757C59.8847 25.9102 60.9552 25.6229 62.2085 25.4141C63.4618 25.153 64.7934 25.0224 66.2034 25.0224C68.8145 25.0224 71.2427 25.6752 73.4882 26.9807C75.786 28.234 77.6398 30.0095 79.0498 32.3072C80.4598 34.5527 81.1647 37.216 81.1647 40.2971C81.1647 44.3703 80.2509 47.8169 78.4231 50.6368C76.5954 53.4045 74.1671 55.5195 71.1383 56.9817C68.1095 58.4439 64.7412 59.175 61.0335 59.175C57.5347 59.175 54.5581 58.6267 52.1037 57.53C49.6493 56.3811 47.7433 55.2584 46.3855 54.1618V44.4486C48.2655 45.5975 50.2499 46.7464 52.3387 47.8952C54.4276 48.9919 56.8297 49.5402 59.5452 49.5402C62.6785 49.5402 65.2634 48.8874 67.3 47.5819C69.3367 46.2242 70.355 44.2136 70.355 41.5504C70.355 39.1482 69.3106 37.216 67.2217 35.7538C65.1851 34.2916 62.6263 33.5605 59.5452 33.5605C57.5608 33.5605 55.7331 33.7694 54.062 34.1872C52.4432 34.605 50.9026 35.0488 49.4404 35.5188V5.51784H78.0315ZM108.581 4.34287C113.072 4.34287 116.806 5.59617 119.782 8.10278C122.811 10.5572 125.057 13.8732 126.519 18.0509C128.033 22.1764 128.79 26.7457 128.79 31.7589C128.79 36.7721 128.033 41.3676 126.519 45.5453C125.057 49.6707 122.811 52.9868 119.782 55.4934C116.806 57.9478 113.072 59.175 108.581 59.175C104.09 59.175 100.33 57.9478 97.301 55.4934C94.3244 52.9868 92.0789 49.6707 90.5645 45.5453C89.1023 41.3676 88.3712 36.7721 88.3712 31.7589C88.3712 26.7457 89.1023 22.1764 90.5645 18.0509C92.0789 13.8732 94.3244 10.5572 97.301 8.10278C100.33 5.59617 104.09 4.34287 108.581 4.34287ZM108.581 13.821C106.492 13.821 104.743 14.6304 103.333 16.2493C101.975 17.8159 100.957 19.957 100.278 22.6725C99.5988 25.3357 99.2593 28.3646 99.2593 31.7589C99.2593 35.1533 99.5988 38.2082 100.278 40.9237C100.957 43.587 101.975 45.7019 103.333 47.2686C104.743 48.8352 106.492 49.6185 108.581 49.6185C110.67 49.6185 112.393 48.8352 113.751 47.2686C115.161 45.7019 116.205 43.587 116.884 40.9237C117.615 38.2082 117.981 35.1533 117.981 31.7589C117.981 28.3646 117.615 25.3357 116.884 22.6725C116.205 19.957 115.161 17.8159 113.751 16.2493C112.393 14.6304 110.67 13.821 108.581 13.821ZM153.621 4.34287C158.112 4.34287 161.846 5.59617 164.823 8.10278C167.852 10.5572 170.097 13.8732 171.559 18.0509C173.074 22.1764 173.831 26.7457 173.831 31.7589C173.831 36.7721 173.074 41.3676 171.559 45.5453C170.097 49.6707 167.852 52.9868 164.823 55.4934C161.846 57.9478 158.112 59.175 153.621 59.175C149.13 59.175 145.371 57.9478 142.342 55.4934C139.365 52.9868 137.12 49.6707 135.605 45.5453C134.143 41.3676 133.412 36.7721 133.412 31.7589C133.412 26.7457 134.143 22.1764 135.605 18.0509C137.12 13.8732 139.365 10.5572 142.342 8.10278C145.371 5.59617 149.13 4.34287 153.621 4.34287ZM153.621 13.821C151.533 13.821 149.783 14.6304 148.373 16.2493C147.015 17.8159 145.997 19.957 145.318 22.6725C144.639 25.3357 144.3 28.3646 144.3 31.7589C144.3 35.1533 144.639 38.2082 145.318 40.9237C145.997 43.587 147.015 45.7019 148.373 47.2686C149.783 48.8352 151.533 49.6185 153.621 49.6185C155.71 49.6185 157.434 48.8352 158.791 47.2686C160.201 45.7019 161.246 43.587 161.925 40.9237C162.656 38.2082 163.021 35.1533 163.021 31.7589C163.021 28.3646 162.656 25.3357 161.925 22.6725C161.246 19.957 160.201 17.8159 158.791 16.2493C157.434 14.6304 155.71 13.821 153.621 13.821ZM198.662 4.34287C203.153 4.34287 206.887 5.59617 209.864 8.10278C212.892 10.5572 215.138 13.8732 216.6 18.0509C218.114 22.1764 218.872 26.7457 218.872 31.7589C218.872 36.7721 218.114 41.3676 216.6 45.5453C215.138 49.6707 212.892 52.9868 209.864 55.4934C206.887 57.9478 203.153 59.175 198.662 59.175C194.171 59.175 190.411 57.9478 187.382 55.4934C184.406 52.9868 182.16 49.6707 180.646 45.5453C179.184 41.3676 178.453 36.7721 178.453 31.7589C178.453 26.7457 179.184 22.1764 180.646 18.0509C182.16 13.8732 184.406 10.5572 187.382 8.10278C190.411 5.59617 194.171 4.34287 198.662 4.34287ZM198.662 13.821C196.573 13.821 194.824 14.6304 193.414 16.2493C192.056 17.8159 191.038 19.957 190.359 22.6725C189.68 25.3357 189.341 28.3646 189.341 31.7589C189.341 35.1533 189.68 38.2082 190.359 40.9237C191.038 43.587 192.056 45.7019 193.414 47.2686C194.824 48.8352 196.573 49.6185 198.662 49.6185C200.751 49.6185 202.474 48.8352 203.832 47.2686C205.242 45.7019 206.286 43.587 206.965 40.9237C207.696 38.2082 208.062 35.1533 208.062 31.7589C208.062 28.3646 207.696 25.3357 206.965 22.6725C206.286 19.957 205.242 17.8159 203.832 16.2493C202.474 14.6304 200.751 13.821 198.662 13.821Z"/></svg>