<svg xmlns="http://www.w3.org/2000/svg" width="153" height="153" fill="none" viewBox="0 0 153 153"><rect width="153" height="153" fill="#fff" rx="20"/><g clip-path="url(#clip0)"><path fill="#252638" d="M35.9599 65.3617H32.6594C32.0136 65.3617 31.5114 65.8681 31.5114 66.5191V67.1702L31.3679 67.0255C29.6458 65.6511 27.4933 65 24.982 65C21.3227 65 18.3808 66.2298 16.1565 68.6894C14.004 71.0766 12.9277 74.0426 12.9277 77.5872C12.9277 81.0596 14.004 84.0979 16.0848 86.4851C18.3091 88.9447 21.1792 90.1745 24.695 90.1745C27.278 90.1745 29.5023 89.5234 31.2961 88.1489L31.4396 88.0043V88.6553C31.4396 89.3064 31.9419 89.8128 32.5876 89.8128H35.8882C36.534 89.8128 37.0362 89.3064 37.0362 88.6553V66.5191C37.108 65.8681 36.534 65.3617 35.9599 65.3617ZM30.0046 82.7957C28.8566 84.1702 27.278 84.8936 25.269 84.8936C23.2599 84.8936 21.6097 84.1702 20.3899 82.7957C19.1701 81.4213 18.5961 79.7574 18.5961 77.5872C18.5961 75.4894 19.1701 73.7532 20.3899 72.3787C21.6814 70.9319 23.2599 70.2809 25.269 70.2809C27.3498 70.2809 28.8566 70.9319 30.0763 72.3787C31.2244 73.7532 31.7984 75.417 31.7984 77.5872C31.7266 79.7574 31.1526 81.4213 30.0046 82.7957Z"/><path fill="#252638" d="M66.1677 70.2809C67.4592 70.2809 68.4637 70.7149 69.253 71.583C70.114 72.5957 70.4728 73.8255 70.4728 75.3447V88.6553C70.4728 89.3064 70.975 89.8128 71.6208 89.8128H74.9213C75.5671 89.8128 76.0694 89.3064 76.0694 88.6553V75.2723C76.0694 72.3064 75.1366 69.8468 73.2711 67.8213C72.41 66.9532 71.4055 66.2298 70.2575 65.7234C69.1095 65.217 67.9615 65 66.7417 65C65.5219 65 64.4456 65.217 63.4411 65.5787C61.7191 66.2298 60.3558 67.1702 59.2795 68.4723L59.2078 68.5447L59.136 68.4723C58.4903 67.6766 57.701 66.9532 56.84 66.3745C55.4767 65.5064 53.8264 65 52.1762 65C50.0236 65 48.2298 65.5787 46.7948 66.6638L46.6513 66.8085V66.5191C46.6513 65.8681 46.149 65.3617 45.5033 65.3617H42.2027C41.5569 65.3617 41.0547 65.8681 41.0547 66.5191V88.7277C41.0547 89.3787 41.5569 89.8851 42.2027 89.8851H45.5033C46.149 89.8851 46.6513 89.3787 46.6513 88.7277V75.4894C46.6513 73.8255 47.0818 72.5957 48.0863 71.7277C49.0191 70.8596 50.0954 70.4255 51.4586 70.4255C52.7502 70.4255 53.7547 70.8596 54.5439 71.7277C55.405 72.7404 55.7637 73.9702 55.7637 75.4894V88.8C55.7637 89.4511 56.266 89.9574 56.9118 89.9574H60.2123C60.8581 89.9574 61.3603 89.4511 61.3603 88.8V75.5617C61.3603 73.8979 61.7908 72.6681 62.7954 71.8L62.8671 71.8723L62.7954 71.8C63.6564 70.7149 64.7327 70.2809 66.1677 70.2809Z"/><path fill="#252638" d="M101.398 65.3617H98.0974C97.4516 65.3617 96.9493 65.8681 96.9493 66.5191V67.1702L96.8058 67.0255C95.0838 65.6511 92.9312 65 90.4199 65C86.7606 65 83.8188 66.2298 81.5945 68.6894C79.442 71.0766 78.3657 74.0426 78.3657 77.5872C78.3657 81.0596 79.442 84.0979 81.5228 86.4851C83.7471 88.9447 86.6171 90.1745 90.1329 90.1745C92.716 90.1745 94.9403 89.5234 96.7341 88.1489L96.8776 88.0043V88.6553C96.8776 89.3064 97.3798 89.8128 98.0256 89.8128H101.326C101.972 89.8128 102.474 89.3064 102.474 88.6553V66.5191C102.546 65.8681 102.044 65.3617 101.398 65.3617ZM95.4425 82.7957C94.2945 84.1702 92.716 84.8936 90.6352 84.8936C88.6262 84.8936 86.9759 84.2426 85.7561 82.7957C84.5363 81.4213 83.9623 79.7574 83.9623 77.5872C83.9623 75.417 84.5363 73.7532 85.7561 72.3787C86.9759 70.9319 88.6262 70.2809 90.6352 70.2809C92.716 70.2809 94.2228 70.9319 95.4425 72.3787C96.5906 73.7532 97.1646 75.417 97.1646 77.5872C97.1646 79.7574 96.5906 81.4213 95.4425 82.7957Z"/><path fill="#252638" d="M128.735 65.3617H125.435C124.789 65.3617 124.287 65.8681 124.287 66.5191V67.1702L124.143 67.0255C122.421 65.7234 120.269 65 117.757 65C114.098 65 111.156 66.2298 108.932 68.617C106.779 70.9319 105.703 73.8979 105.703 77.3702C105.703 80.8426 106.779 83.8085 108.932 86.1234C111.156 88.5106 114.026 89.7404 117.47 89.7404C120.053 89.7404 122.278 89.017 124.071 87.6426L124.215 87.4979V87.7149C124.215 89.6681 123.713 91.1872 122.852 92.1277C121.919 93.0681 120.34 93.5745 118.116 93.5745C113.883 93.5745 113.022 91.4766 112.735 90.8255C112.591 90.3915 112.161 90.1021 111.73 90.1021H108.071C107.425 90.1021 106.923 90.6085 106.923 91.2596C106.923 91.4043 106.923 91.4766 106.995 91.6213C107.712 93.7915 109.004 95.6 110.941 96.9021C112.807 98.2043 115.461 98.8553 118.762 98.8553C122.062 98.8553 124.789 97.9149 126.798 96.034C128.807 94.1532 129.883 91.4043 129.883 87.9319V66.5191C129.883 65.8681 129.381 65.3617 128.735 65.3617ZM122.78 82.5064C122.206 83.1574 121.488 83.6638 120.699 83.9532C119.91 84.3149 118.977 84.5319 117.973 84.5319C115.892 84.5319 114.313 83.8808 113.094 82.5064C111.874 81.1319 111.3 79.4681 111.3 77.3702C111.3 75.2723 111.874 73.6085 113.094 72.3064C114.313 70.9319 115.892 70.2809 117.973 70.2809C119.982 70.2809 121.56 70.9319 122.78 72.3064C123.928 73.6085 124.502 75.3447 124.502 77.4426C124.502 79.5404 123.928 81.2043 122.78 82.5064Z"/><path fill="#252638" d="M138.924 65.1445H135.623C134.977 65.1445 134.475 65.6509 134.475 66.302V88.0764C134.475 88.7275 134.977 89.2339 135.623 89.2339H138.924C139.569 89.2339 140.072 88.7275 140.072 88.0764V66.302C140 65.6509 139.498 65.1445 138.924 65.1445Z"/></g><defs><clipPath id="clip0"><rect width="127" height="34" fill="#fff" transform="translate(13 65)"/></clipPath></defs></svg>