<svg width="153" height="153" viewBox="0 0 153 153" fill="none" xmlns="http://www.w3.org/2000/svg">
<rect width="153" height="153" rx="20" fill="#252638"/>
<path d="M52.0039 53.7422V69.7383H70.2266V53.7422H78.3125V93H70.2266V77.0625H52.0039V93H43.8594V53.7422H52.0039Z" fill="white"/>
<path d="M105.203 72.8633C108.016 72.8633 110.652 73.3711 113.113 74.3867C115.574 75.3633 117.742 76.7695 119.617 78.6055C121.531 80.4023 123.016 82.5508 124.07 85.0508C125.164 87.5508 125.711 90.3242 125.711 93.3711C125.711 96.418 125.164 99.1914 124.07 101.691C123.016 104.191 121.531 106.359 119.617 108.195C117.742 109.992 115.574 111.398 113.113 112.414C110.652 113.391 108.016 113.879 105.203 113.879C102.391 113.879 99.7344 113.391 97.2344 112.414C94.7734 111.398 92.5859 109.992 90.6719 108.195C88.7969 106.359 87.3125 104.191 86.2188 101.691C85.1641 99.1914 84.6367 96.418 84.6367 93.3711C84.6367 90.3242 85.1641 87.5508 86.2188 85.0508C87.3125 82.5508 88.7969 80.4023 90.6719 78.6055C92.5859 76.7695 94.7734 75.3633 97.2344 74.3867C99.7344 73.3711 102.391 72.8633 105.203 72.8633ZM105.203 80.5391C102.859 80.5391 100.75 81.1055 98.875 82.2383C97.0391 83.3711 95.5938 84.8945 94.5391 86.8086C93.4844 88.7227 92.957 90.9102 92.957 93.3711C92.957 95.793 93.4844 97.9805 94.5391 99.9336C95.5938 101.848 97.0391 103.371 98.875 104.504C100.75 105.598 102.859 106.145 105.203 106.145C107.547 106.145 109.637 105.598 111.473 104.504C113.309 103.371 114.754 101.848 115.809 99.9336C116.863 97.9805 117.391 95.793 117.391 93.3711C117.391 90.9102 116.863 88.7227 115.809 86.8086C114.754 84.8945 113.309 83.3711 111.473 82.2383C109.637 81.1055 107.547 80.5391 105.203 80.5391Z" fill="#E58AB2"/>
</svg>