<svg xmlns="http://www.w3.org/2000/svg" xmlns:xlink="http://www.w3.org/1999/xlink" width="1100" height="1100" viewBox="0 0 1100 1100">
  <defs>
    <clipPath id="clip-Logo">
      <rect width="1100" height="1100"/>
    </clipPath>
  </defs>
  <g id="Logo" clip-path="url(#clip-Logo)">
    <rect width="1100" height="1100" fill="#0c0d21"/>
    <path id="Subtraction_16" data-name="Subtraction 16" d="M-13950-3022.789a224.731,224.731,0,0,1-44.942-4.532,221.973,221.973,0,0,1-41.858-12.993,223.083,223.083,0,0,1-37.881-20.559,224.8,224.8,0,0,1-33-27.232,224.74,224.74,0,0,1-27.231-33,223,223,0,0,1-20.56-37.882,222.005,222.005,0,0,1-12.993-41.858,224.648,224.648,0,0,1-4.532-44.942,224.6,224.6,0,0,1,4.532-44.942,221.966,221.966,0,0,1,12.993-41.862,222.788,222.788,0,0,1,20.56-37.878,224.572,224.572,0,0,1,27.231-33.005,224.486,224.486,0,0,1,33-27.228,222.815,222.815,0,0,1,37.881-20.563c3.093-1.308,6.26-2.562,9.412-3.728v80.969c-45.467,27.607-72.611,75.732-72.611,128.735,0,82.987,67.515,150.5,150.5,150.5s150.5-67.515,150.5-150.5c0-52.892-27.061-100.967-72.388-128.6v-80.648c2.753,1.036,5.509,2.137,8.191,3.272a222.63,222.63,0,0,1,37.878,20.563,224.29,224.29,0,0,1,33,27.228,224.305,224.305,0,0,1,27.229,33.005,222.877,222.877,0,0,1,20.563,37.878,222.073,222.073,0,0,1,12.994,41.862,224.641,224.641,0,0,1,4.528,44.942,224.7,224.7,0,0,1-4.528,44.942,222.065,222.065,0,0,1-12.994,41.858,222.867,222.867,0,0,1-20.562,37.882,224.46,224.46,0,0,1-27.229,33,224.605,224.605,0,0,1-33,27.232,222.953,222.953,0,0,1-37.878,20.559,222.017,222.017,0,0,1-41.861,12.993A224.673,224.673,0,0,1-13950-3022.789Z" transform="translate(14647 4001.79)" fill="#fff"/>
    <rect id="Rectangle_37" data-name="Rectangle 37" width="242" height="98" rx="16" transform="translate(745.61 427.79) rotate(90)" fill="#e58ab2"/>
    <path id="Union_3" data-name="Union 3" d="M-10472.093,153a9,9,0,0,1-9-9V-18.434h-213.813V144a9,9,0,0,1-9,9H-10755a9,9,0,0,1-9-9V-250a9,9,0,0,1,9-9h51.092a9,9,0,0,1,9,9V-87.566h213.813V-250a9,9,0,0,1,9-9H-10421a9,9,0,0,1,9,9V144a9,9,0,0,1-9,9Z" transform="translate(10945 380)" fill="#fff"/>
  </g>
</svg>
