<svg xmlns="http://www.w3.org/2000/svg" width="180" height="180" fill="none" viewBox="0 0 180 180"><g clip-path="url(#clip0)"><path fill="#B9BBC1" d="M64.4086 106.413C62.8361 106.413 61.5571 105.134 61.5571 103.561V101.026C61.5571 100.02 61.7708 98.9183 62.1927 97.749C62.6188 96.567 63.3441 95.4779 64.3478 94.5118L88.3471 70.4572C90.3788 68.4255 92.1932 66.4522 93.7405 64.5914C95.2817 62.7387 96.5846 60.8965 97.6125 59.1151C98.6345 57.3443 99.4118 55.5225 99.9223 53.7004C100.432 51.8807 100.69 49.9415 100.69 47.9365C100.69 44.4427 99.787 41.7582 98.0042 39.9571C96.2218 38.1582 93.6603 37.2462 90.3911 37.2462C88.9504 37.2462 87.6092 37.4554 86.4051 37.8681C85.2 38.2823 84.107 38.856 83.1567 39.5729C82.1111 40.3628 81.3075 41.1922 80.7007 42.1076C79.0944 44.5327 78.554 46.2961 78.032 48.0016C77.8474 48.6038 77.6568 49.2264 77.4234 49.8613C77.249 50.3352 76.7997 50.6488 76.3026 50.6488C76.2309 50.6488 76.1588 50.6425 76.0864 50.6291L63.8802 48.3844C63.2407 48.2666 62.81 47.6535 62.9197 47.0175C63.5441 43.3813 64.641 40.1195 66.1798 37.3229C67.8307 34.3198 69.9271 31.7851 72.4108 29.79C74.8918 27.798 77.7683 26.2838 80.9598 25.2886C84.1446 24.2961 87.618 23.7927 91.2841 23.7927C95.1404 23.7927 98.7031 24.3727 101.875 25.5171C105.051 26.6642 107.805 28.2849 110.062 30.3345C112.323 32.3894 114.1 34.9013 115.343 37.801C116.585 40.6989 117.214 43.9403 117.214 47.4341C117.214 50.4382 116.776 53.2571 115.911 55.8126C115.049 58.3603 113.862 60.8195 112.384 63.1215C110.908 65.4176 109.178 67.6778 107.241 69.8388C105.309 71.9932 103.239 74.195 101.089 76.3828L86.6062 91.1945C86.5151 91.2876 86.5447 91.3906 86.5612 91.4307C86.5781 91.4708 86.6315 91.5639 86.7619 91.5639H116.779C117.697 91.5639 118.443 92.3103 118.443 93.2279V104.75C118.443 105.667 117.697 106.414 116.779 106.414H64.4086V106.413Z"/><path fill="#A0A3AA" d="M101.999 75.4462C103.822 73.5678 105.584 71.6859 107.241 69.8384C109.178 67.6774 110.909 65.4172 112.384 63.1212C113.862 60.8191 115.049 58.36 115.911 55.8122C116.776 53.2567 117.214 50.4379 117.214 47.4338C117.214 43.9399 116.585 40.6985 115.343 37.8006C114.1 34.9009 112.323 32.389 110.062 30.3342C107.835 28.3116 105.122 26.7088 101.999 25.5645V75.4462H101.999Z"/><path fill="#A0A3AA" d="M118.443 104.749V93.2271C118.443 92.3095 117.696 91.5632 116.779 91.5632H101.999V106.413H116.779C117.696 106.413 118.443 105.666 118.443 104.749Z"/><path fill="#FD9727" d="M13.745 38.8511C18.2858 33.8969 23.0445 29.4387 28.2839 25.2998C28.9001 24.8132 29.7871 25.3957 29.5808 26.1534C26.6442 36.9474 21.5131 47.6144 13.603 55.5443C13.2479 49.9928 13.2426 44.3948 13.745 38.8511Z"/><path fill="#FD9727" d="M13.6037 55.5485C9.0369 50.0374 5.11276 44.3397 1.5764 38.188C1.17211 37.4846 0.0966807 37.7356 0.055548 38.5459C-0.582185 51.147 4.23245 65.8911 15.9623 71.8378C14.7934 66.4789 13.951 61.0259 13.6037 55.5485Z"/><path fill="#FD9727" d="M15.9616 71.8336C18.8356 65.9203 22.0528 60.4184 25.8233 55.0852C26.2708 54.4524 27.2738 54.7424 27.3065 55.5165C27.766 66.4016 25.8982 77.9082 20.6824 87.4633C18.7495 82.3776 17.1182 77.1538 15.9616 71.8336Z"/><path fill="#FD9727" d="M20.6838 87.4675C14.754 83.6565 9.33678 79.4891 4.1407 74.8088C3.54129 74.2688 2.60086 74.8327 2.80406 75.6132C5.93437 87.6492 14.8862 100.001 27.6314 102.182C24.982 97.4508 22.6086 92.5405 20.6838 87.4675Z"/><path fill="#FD9727" d="M27.6292 102.179C28.6681 95.7271 30.1538 89.573 32.222 83.4204C32.4681 82.6884 33.507 82.6743 33.7647 83.4021C37.3819 93.6142 38.8472 105.135 36.6647 115.723C33.3477 111.43 30.2786 106.918 27.6292 102.179Z"/><path fill="#FD9727" d="M36.6675 115.727C29.9077 113.812 23.5219 111.417 17.197 108.481C16.4665 108.142 15.7342 108.955 16.1553 109.642C22.6582 120.246 34.8327 129.428 47.656 127.845C43.7195 124.074 39.9996 120.046 36.6675 115.727Z"/><path fill="#FD9727" d="M47.6528 127.843C46.7303 121.343 46.3387 115.003 46.5197 108.487C46.5412 107.714 47.5322 107.398 47.9906 108.019C54.4675 116.8 59.299 127.467 60.4553 138.281C55.9518 135.116 51.6276 131.656 47.6528 127.843Z"/><path fill="#FD9727" d="M166.255 38.8511C161.714 33.8969 156.955 29.4387 151.716 25.2998C151.1 24.8132 150.213 25.3957 150.419 26.1534C153.355 36.9474 158.487 47.6144 166.397 55.5443C166.752 49.9928 166.757 44.3948 166.255 38.8511Z"/><path fill="#FD9727" d="M166.396 55.5485C170.963 50.0374 174.887 44.3397 178.423 38.188C178.828 37.4846 179.903 37.7356 179.944 38.5459C180.582 51.147 175.767 65.8911 164.037 71.8378C165.206 66.4789 166.049 61.0259 166.396 55.5485Z"/><path fill="#FD9727" d="M164.038 71.8336C161.164 65.9203 157.947 60.4184 154.176 55.0852C153.729 54.4524 152.726 54.7424 152.693 55.5165C152.234 66.4016 154.102 77.9082 159.317 87.4633C161.25 82.3776 162.881 77.1538 164.038 71.8336Z"/><path fill="#FD9727" d="M159.316 87.4675C165.246 83.6565 170.663 79.4891 175.859 74.8088C176.458 74.2688 177.399 74.8327 177.196 75.6132C174.065 87.6492 165.113 100.001 152.368 102.182C155.018 97.4508 157.391 92.5405 159.316 87.4675Z"/><path fill="#FD9727" d="M152.37 102.179C151.332 95.7271 149.846 89.573 147.778 83.4204C147.532 82.6884 146.493 82.6743 146.235 83.4021C142.618 93.6142 141.152 105.135 143.335 115.723C146.652 111.43 149.721 106.918 152.37 102.179Z"/><path fill="#FD9727" d="M143.332 115.727C150.092 113.812 156.478 111.417 162.803 108.481C163.534 108.142 164.266 108.955 163.845 109.642C157.342 120.246 145.167 129.428 132.344 127.845C136.28 124.074 140 120.046 143.332 115.727Z"/><path fill="#FD9727" d="M132.347 127.843C133.269 121.343 133.661 115.003 133.48 108.487C133.458 107.714 132.467 107.398 132.009 108.019C125.532 116.8 120.701 127.467 119.544 138.281C124.048 135.116 128.372 131.656 132.347 127.843Z"/><path fill="#FF6D3A" d="M168.869 39.0733C168.868 39.0198 168.869 38.9667 168.865 38.913C168.244 30.6488 166.721 22.3642 164.338 14.2899C163.913 12.851 162.401 12.0287 160.963 12.4537C159.524 12.8784 158.702 14.3891 159.127 15.828C161.379 23.4565 162.823 31.2788 163.427 39.0814C163.428 39.1397 163.428 39.1981 163.434 39.2571C163.891 44.3017 163.937 49.7681 163.57 55.5053C163.57 55.5074 163.569 55.5098 163.569 55.5119C163.254 60.4932 162.481 65.8271 161.272 71.3656C161.272 71.366 161.272 71.3667 161.272 71.367C160.22 76.2056 158.673 81.3257 156.674 86.5854C156.673 86.5872 156.672 86.5886 156.672 86.5904V86.5907C154.919 91.2095 152.643 96.0298 149.905 100.918C147.492 105.235 144.531 109.672 141.105 114.107C141.104 114.108 141.104 114.109 141.103 114.11C141.103 114.11 141.102 114.111 141.101 114.112C138.065 118.047 134.465 122.016 130.403 125.909L130.403 125.909C126.783 129.382 122.589 132.8 117.938 136.069C117.921 136.081 117.906 136.094 117.89 136.106C117.874 136.118 117.857 136.128 117.842 136.14C110.017 142.152 106.052 143.651 101.855 145.238C98.5301 146.495 95.1361 147.781 90.0005 151.205C84.8649 147.781 81.4709 146.495 78.1462 145.238C73.9486 143.651 69.9837 142.152 62.1593 136.14C62.1438 136.128 62.1269 136.118 62.1111 136.107C62.0946 136.094 62.0795 136.081 62.0626 136.069C57.4114 132.801 53.218 129.382 49.598 125.909L49.5976 125.909C45.5353 122.017 41.936 118.047 38.8993 114.112C38.8986 114.111 38.8978 114.11 38.8975 114.11C38.8968 114.109 38.8964 114.108 38.8957 114.107C35.4694 109.672 32.5086 105.235 30.0954 100.918C27.3578 96.0298 25.0815 91.2095 23.3289 86.5907C23.3289 86.5904 23.3289 86.5904 23.3286 86.5904C23.3279 86.5886 23.3275 86.5872 23.3268 86.5854C21.3271 81.3257 19.7799 76.2056 18.7277 71.367C18.7277 71.3663 18.7273 71.366 18.7273 71.3656C17.5187 65.8271 16.7459 60.4929 16.4302 55.5119C16.4299 55.5095 16.4295 55.5074 16.4295 55.5053C16.0625 49.7685 16.1082 44.3017 16.5659 39.2571C16.5712 39.1981 16.5716 39.1397 16.573 39.0814C17.1763 31.2788 18.6208 23.4569 20.8729 15.828C21.2976 14.3891 20.4753 12.8784 19.0364 12.4537C17.5988 12.028 16.0868 12.851 15.6621 14.2899C13.2785 22.3642 11.7552 30.6488 11.1343 38.913C11.1301 38.9667 11.1311 39.0198 11.1304 39.0733C10.6734 44.3098 10.6302 49.9516 11.0081 55.8523C11.0081 55.8537 11.0081 55.8547 11.0081 55.8561C11.3414 61.106 12.1521 66.7092 13.417 72.5103C13.4177 72.5142 13.4181 72.518 13.4188 72.5219C14.5283 77.6227 16.1525 83.0034 18.2471 88.5141C18.2478 88.5155 18.2482 88.5169 18.2485 88.5183C20.0953 93.3843 22.4845 98.4471 25.3508 103.566C25.3515 103.567 25.3518 103.568 25.3525 103.569C27.8964 108.119 31.0063 112.782 34.5965 117.429C34.5968 117.429 34.5972 117.429 34.5975 117.43C34.5979 117.43 34.5979 117.43 34.5979 117.43C37.7999 121.581 41.5824 125.753 45.8405 129.833C45.8415 129.834 45.843 129.835 45.844 129.836C49.649 133.486 54.0396 137.068 58.8943 140.482C67.3255 146.955 71.8497 148.665 76.2242 150.319C78.9471 151.349 81.5975 152.353 85.2667 154.609C82.4578 156.762 79.2044 159.464 75.3443 162.918C74.2263 163.918 74.1307 165.635 75.1312 166.753C75.6677 167.353 76.4106 167.658 77.1566 167.658C77.8013 167.658 78.4486 167.43 78.9668 166.966C83.4428 162.961 87.0203 160.034 89.9998 157.832C92.979 160.034 96.5565 162.961 101.033 166.966C101.551 167.43 102.198 167.658 102.843 167.658C103.589 167.658 104.332 167.353 104.868 166.753C105.869 165.635 105.774 163.918 104.655 162.918C100.796 159.464 97.5419 156.762 94.7329 154.609C98.4018 152.353 101.053 151.349 103.775 150.319C108.15 148.666 112.674 146.955 121.105 140.482C125.96 137.068 130.351 133.486 134.156 129.836C134.157 129.835 134.158 129.834 134.159 129.833C138.417 125.753 142.2 121.581 145.402 117.43C145.402 117.43 145.402 117.43 145.402 117.43C145.402 117.429 145.403 117.429 145.403 117.429C148.993 112.782 152.103 108.119 154.647 103.569C154.648 103.568 154.648 103.567 154.649 103.566C157.515 98.4471 159.904 93.3843 161.751 88.5183C161.751 88.5169 161.752 88.5155 161.753 88.5141C163.847 83.0034 165.471 77.6227 166.581 72.5219C166.582 72.518 166.582 72.5142 166.583 72.5103C167.848 66.7092 168.658 61.106 168.992 55.8561C168.992 55.8547 168.992 55.8537 168.992 55.8523C169.369 49.9516 169.327 44.3098 168.869 39.0733Z"/></g><defs><clipPath id="clip0"><rect width="180" height="180" fill="#fff"/></clipPath></defs></svg>