<?xml version="1.0" encoding="iso-8859-1"?>
<!-- Generator: Adobe Illustrator 19.0.0, SVG Export Plug-In . SVG Version: 6.00 Build 0)  -->
<svg version="1.1" id="Capa_1" xmlns="http://www.w3.org/2000/svg" xmlns:xlink="http://www.w3.org/1999/xlink" x="0px" y="0px"
	 viewBox="0 0 512 512" style="enable-background:new 0 0 512 512;" xml:space="preserve">
<polygon style="fill:#0E6A8E;" points="307.06,0 461.172,0 333.055,163.51 178.943,163.51 "/>
<polygon style="fill:#E52E40;" points="307.06,0 372.191,0 244.074,163.51 178.943,163.51 "/>
<polygon style="fill:#EAEAE4;" points="356.873,0 411.359,0 283.242,163.51 228.756,163.51 "/>
<g>
	<circle style="fill:#F9AC30;" cx="256" cy="352.381" r="159.619"/>
	<path style="fill:#F9AC30;" d="M178.945,212.568V163.51h154.112v49.058l26.122,18.024v-80.144c0-7.21-5.841-13.061-13.061-13.061
		H165.884c-7.21,0-13.061,5.851-13.061,13.061v80.154L178.945,212.568z"/>
</g>
<circle style="fill:#DD8D19;" cx="256" cy="352.381" r="119.495"/>
<polygon style="fill:#E52E40;" points="204.94,0 50.828,0 178.945,163.51 333.057,163.51 "/>
<polygon style="fill:#0E6A8E;" points="204.94,0 139.808,0 267.926,163.51 333.057,163.51 "/>
<polygon style="fill:#EAEAE4;" points="155.127,0 100.641,0 228.758,163.51 283.244,163.51 "/>
<path style="fill:#F9AC30;" d="M259.28,262.659c26.678,0,49.218,18.17,49.218,45.769c0,49.448-74.517,65.547-74.517,91.996v8.74
	h67.616c4.14,0,8.05,4.83,8.05,10.58s-3.91,11.039-8.05,11.039h-81.876c-4.6,0-10.809-3.219-10.809-8.05v-22.31
	c0-37.258,75.208-55.886,75.208-91.306c0-11.269-7.359-24.149-24.838-24.149c-12.879,0-23.229,7.129-23.229,22.769
	c0,4.6-4.831,9.2-12.879,9.2c-6.44,0-11.039-3.22-11.039-13.569C212.131,278.759,234.211,262.659,259.28,262.659z"/>
<g>
</g>
<g>
</g>
<g>
</g>
<g>
</g>
<g>
</g>
<g>
</g>
<g>
</g>
<g>
</g>
<g>
</g>
<g>
</g>
<g>
</g>
<g>
</g>
<g>
</g>
<g>
</g>
<g>
</g>
</svg>
