<svg xmlns="http://www.w3.org/2000/svg" width="180" height="180" fill="none" viewBox="0 0 180 180"><g clip-path="url(#clip0)"><path fill="#FD9727" d="M89.9998 107.34C86.0367 107.34 82.4898 106.884 79.4576 105.985C76.4134 105.083 73.6962 103.71 71.3825 101.904C69.0679 100.097 67.0573 97.8014 65.406 95.0792C64.0349 92.8208 62.7904 90.2083 61.7065 87.3157C61.2702 86.1513 61.8274 84.8649 62.9756 84.3875L72.3402 80.4922C72.6214 80.3748 72.9174 80.3157 73.2208 80.3157C74.0393 80.3157 74.8011 80.7559 75.21 81.4657C76.773 84.1776 78.6933 87.4352 79.2157 88.1781C80.0324 89.34 80.9591 90.3591 81.9712 91.2071C82.9763 92.0512 84.1319 92.7157 85.4077 93.1818C86.6818 93.6491 88.1703 93.8857 89.8325 93.8857C91.9313 93.8857 93.7791 93.5394 95.3242 92.8559C96.8725 92.1725 98.1856 91.2704 99.2276 90.1742C100.268 89.0809 101.059 87.8258 101.579 86.4445C102.101 85.0583 102.365 83.6647 102.365 82.3021C102.365 80.475 102.199 78.8015 101.871 77.3282C101.555 75.9054 100.814 74.6746 99.6699 73.6702C98.5105 72.6538 96.759 71.8543 94.4636 71.2936C92.5142 70.8179 89.9387 70.5381 86.808 70.4611C85.5459 70.4295 84.5573 69.4219 84.5573 68.1668V61.1451C84.5573 59.9012 85.5297 58.8947 86.7711 58.8532C89.2883 58.7682 91.4335 58.5003 93.1477 58.0573C95.2452 57.5145 96.9077 56.7495 98.0882 55.783C99.2565 54.8271 100.072 53.6628 100.513 52.3219C100.965 50.9512 101.194 49.4303 101.194 47.8019C101.194 44.3826 100.299 41.7448 98.5354 39.9621C96.772 38.1817 94.2196 37.2789 90.9494 37.2789C89.5087 37.2789 88.1679 37.4881 86.9641 37.9008C85.7593 38.3146 84.6659 38.8884 83.715 39.6059C82.7619 40.3256 81.9333 41.1816 81.2533 42.1491C80.5731 43.1159 80.0647 44.1868 79.7427 45.3318C79.5317 45.8908 79.2761 46.7553 78.9801 47.7558C78.8789 48.0975 78.7741 48.453 78.6658 48.8119C78.3765 49.7724 77.4737 50.4428 76.4707 50.4428C76.3403 50.4428 76.2088 50.4316 76.0798 50.4091L65.5586 48.5999C64.9437 48.4941 64.4114 48.1517 64.0595 47.6366C63.702 47.1132 63.5757 46.4804 63.7037 45.8553C64.3492 42.7028 65.3701 39.8429 66.7384 37.3556C68.3904 34.3518 70.4871 31.8171 72.9702 29.8223C75.4515 27.83 78.3185 26.3158 81.4906 25.3213C84.6575 24.3285 88.1215 23.825 91.7868 23.825C95.6797 23.825 99.2238 24.3861 102.32 25.4932C105.421 26.6027 108.082 28.1387 110.228 30.0582C112.377 31.9816 114.05 34.2576 115.201 36.8233C116.353 39.3908 116.936 42.1829 116.936 45.1219C116.936 47.7077 116.659 50.022 116.114 52.0013C115.564 53.9887 114.737 55.7465 113.656 57.2266C112.574 58.7066 111.228 59.9765 109.653 61.0013C108.346 61.8517 106.858 62.591 105.221 63.2056C113.996 66.4122 118.443 72.6626 118.443 81.799C118.443 85.9657 117.661 89.6908 116.118 92.8711C114.576 96.0485 112.478 98.7471 109.881 100.892C107.29 103.033 104.234 104.661 100.799 105.732C97.3725 106.799 93.7394 107.34 89.9998 107.34Z"/><path fill="#FF6D3A" d="M105.779 63.42V103.645C107.249 102.851 108.621 101.934 109.881 100.893C112.477 98.7481 114.575 96.0495 116.117 92.8721C117.66 89.6922 118.442 85.9671 118.442 81.8C118.442 72.8605 114.182 66.6856 105.779 63.42Z"/><path fill="#FF6D3A" d="M113.656 57.2276C114.737 55.7475 115.564 53.9894 116.113 52.0023C116.659 50.0234 116.936 47.7087 116.936 45.123C116.936 42.1839 116.352 39.3918 115.201 36.8244C114.05 34.2587 112.377 31.9826 110.228 30.0592C108.929 28.8977 107.439 27.8789 105.78 27.0077V62.9816C107.195 62.4131 108.498 61.7543 109.654 61.0027C111.227 59.9775 112.574 58.7077 113.656 57.2276Z"/><path fill="#FD9727" d="M13.745 38.8511C18.2858 33.8969 23.0445 29.4387 28.2838 25.2998C28.9001 24.8132 29.7871 25.3957 29.5807 26.1534C26.6441 36.9474 21.5131 47.6144 13.603 55.5443C13.2479 49.9928 13.2426 44.3948 13.745 38.8511Z"/><path fill="#FD9727" d="M13.6037 55.5485C9.03688 50.0374 5.11275 44.3397 1.57639 38.188C1.17209 37.4846 0.0966655 37.7356 0.0555328 38.5459C-0.5822 51.147 4.23244 65.8911 15.9623 71.8378C14.7934 66.4789 13.951 61.0259 13.6037 55.5485Z"/><path fill="#FD9727" d="M15.9616 71.8336C18.8356 65.9203 22.0528 60.4184 25.8233 55.0852C26.2708 54.4524 27.2738 54.7424 27.3065 55.5165C27.766 66.4016 25.8982 77.9082 20.6824 87.4633C18.7495 82.3776 17.1182 77.1538 15.9616 71.8336Z"/><path fill="#FD9727" d="M20.6838 87.4675C14.754 83.6565 9.33676 79.4891 4.14068 74.8088C3.54127 74.2688 2.60084 74.8327 2.80404 75.6132C5.93435 87.6492 14.8862 100.001 27.6313 102.182C24.982 97.4508 22.6086 92.5405 20.6838 87.4675Z"/><path fill="#FD9727" d="M27.6292 102.179C28.6681 95.7271 30.1538 89.573 32.222 83.4204C32.4681 82.6884 33.507 82.6743 33.7647 83.4021C37.3819 93.6142 38.8472 105.135 36.6647 115.723C33.3477 111.43 30.2786 106.918 27.6292 102.179Z"/><path fill="#FD9727" d="M36.6675 115.727C29.9077 113.812 23.5219 111.417 17.197 108.481C16.4664 108.142 15.7341 108.955 16.1553 109.642C22.6581 120.246 34.8327 129.428 47.6559 127.845C43.7195 124.074 39.9996 120.046 36.6675 115.727Z"/><path fill="#FD9727" d="M47.6528 127.843C46.7303 121.343 46.3387 115.003 46.5197 108.487C46.5412 107.714 47.5322 107.398 47.9907 108.019C54.4675 116.8 59.299 127.467 60.4553 138.281C55.9518 135.116 51.6276 131.656 47.6528 127.843Z"/><path fill="#FD9727" d="M166.255 38.8511C161.714 33.8969 156.955 29.4387 151.716 25.2998C151.1 24.8132 150.213 25.3957 150.419 26.1534C153.355 36.9474 158.487 47.6144 166.397 55.5443C166.752 49.9928 166.757 44.3948 166.255 38.8511Z"/><path fill="#FD9727" d="M166.396 55.5485C170.963 50.0374 174.887 44.3397 178.423 38.188C178.828 37.4846 179.903 37.7356 179.944 38.5459C180.582 51.147 175.767 65.8911 164.037 71.8378C165.206 66.4789 166.049 61.0259 166.396 55.5485Z"/><path fill="#FD9727" d="M164.038 71.8336C161.164 65.9203 157.947 60.4184 154.176 55.0852C153.729 54.4524 152.726 54.7424 152.693 55.5165C152.234 66.4016 154.101 77.9082 159.317 87.4633C161.25 82.3776 162.881 77.1538 164.038 71.8336Z"/><path fill="#FD9727" d="M159.316 87.4675C165.246 83.6565 170.663 79.4891 175.859 74.8088C176.458 74.2688 177.399 74.8327 177.196 75.6132C174.065 87.6492 165.113 100.001 152.368 102.182C155.018 97.4508 157.391 92.5405 159.316 87.4675Z"/><path fill="#FD9727" d="M152.37 102.179C151.332 95.7271 149.846 89.573 147.778 83.4204C147.531 82.6884 146.493 82.6743 146.235 83.4021C142.618 93.6142 141.152 105.135 143.335 115.723C146.652 111.43 149.721 106.918 152.37 102.179Z"/><path fill="#FD9727" d="M143.332 115.727C150.092 113.812 156.478 111.417 162.803 108.481C163.534 108.142 164.265 108.955 163.845 109.642C157.342 120.246 145.167 129.428 132.344 127.845C136.28 124.074 140 120.046 143.332 115.727Z"/><path fill="#FD9727" d="M132.347 127.843C133.269 121.343 133.661 115.003 133.48 108.487C133.458 107.714 132.467 107.398 132.009 108.019C125.532 116.8 120.701 127.467 119.544 138.281C124.048 135.116 128.372 131.656 132.347 127.843Z"/><path fill="#FF6D3A" d="M168.869 39.0733C168.868 39.0198 168.869 38.9667 168.865 38.913C168.244 30.6488 166.721 22.3642 164.338 14.2899C163.913 12.851 162.401 12.0287 160.963 12.4537C159.524 12.8784 158.702 14.3891 159.127 15.828C161.379 23.4565 162.823 31.2788 163.427 39.0814C163.428 39.1397 163.428 39.1981 163.434 39.2571C163.891 44.3017 163.937 49.7681 163.57 55.5053C163.57 55.5074 163.569 55.5098 163.569 55.5119C163.254 60.4932 162.481 65.8271 161.272 71.3656C161.272 71.366 161.272 71.3667 161.272 71.367C160.22 76.2056 158.673 81.3257 156.674 86.5854C156.673 86.5872 156.672 86.5886 156.672 86.5904V86.5907C154.919 91.2095 152.643 96.0298 149.905 100.918C147.492 105.235 144.531 109.672 141.105 114.107C141.104 114.108 141.104 114.109 141.103 114.11C141.102 114.11 141.102 114.111 141.101 114.112C138.065 118.047 134.465 122.016 130.403 125.909L130.403 125.909C126.783 129.382 122.589 132.8 117.938 136.069C117.921 136.081 117.906 136.094 117.89 136.106C117.874 136.118 117.857 136.128 117.842 136.14C110.017 142.152 106.052 143.651 101.855 145.238C98.5301 146.495 95.1361 147.781 90.0005 151.205C84.8649 147.781 81.4709 146.495 78.1462 145.238C73.9486 143.651 69.9836 142.152 62.1593 136.14C62.1438 136.128 62.1269 136.118 62.1111 136.107C62.0946 136.094 62.0795 136.081 62.0626 136.069C57.4114 132.801 53.218 129.382 49.598 125.909L49.5976 125.909C45.5353 122.017 41.936 118.047 38.8993 114.112C38.8986 114.111 38.8978 114.11 38.8975 114.11C38.8968 114.109 38.8964 114.108 38.8957 114.107C35.4694 109.672 32.5086 105.235 30.0954 100.918C27.3578 96.0298 25.0815 91.2095 23.3289 86.5907C23.3289 86.5904 23.3289 86.5904 23.3286 86.5904C23.3279 86.5886 23.3275 86.5872 23.3268 86.5854C21.3271 81.3257 19.7799 76.2056 18.7277 71.367C18.7277 71.3663 18.7273 71.366 18.7273 71.3656C17.5187 65.8271 16.7459 60.4929 16.4302 55.5119C16.4299 55.5095 16.4295 55.5074 16.4295 55.5053C16.0625 49.7685 16.1082 44.3017 16.5659 39.2571C16.5712 39.1981 16.5716 39.1397 16.573 39.0814C17.1762 31.2788 18.6208 23.4569 20.8729 15.828C21.2976 14.3891 20.4753 12.8784 19.0364 12.4537C17.5988 12.028 16.0868 12.851 15.6621 14.2899C13.2785 22.3642 11.7552 30.6488 11.1343 38.913C11.1301 38.9667 11.1311 39.0198 11.1304 39.0733C10.6734 44.3098 10.6302 49.9516 11.0081 55.8523C11.0081 55.8537 11.0081 55.8547 11.0081 55.8561C11.3414 61.106 12.1521 66.7092 13.417 72.5103C13.4177 72.5142 13.4181 72.518 13.4188 72.5219C14.5283 77.6227 16.1525 83.0034 18.2471 88.5141C18.2478 88.5155 18.2482 88.5169 18.2485 88.5183C20.0953 93.3843 22.4845 98.4471 25.3508 103.566C25.3515 103.567 25.3518 103.568 25.3525 103.569C27.8964 108.119 31.0063 112.782 34.5965 117.429C34.5968 117.429 34.5972 117.429 34.5975 117.43C34.5979 117.43 34.5979 117.43 34.5979 117.43C37.7999 121.581 41.5824 125.753 45.8405 129.833C45.8415 129.834 45.843 129.835 45.844 129.836C49.649 133.486 54.0396 137.068 58.8943 140.482C67.3255 146.955 71.8497 148.665 76.2242 150.319C78.9471 151.349 81.5975 152.353 85.2667 154.609C82.4578 156.762 79.2044 159.464 75.3443 162.918C74.2263 163.918 74.1307 165.635 75.1312 166.753C75.6677 167.353 76.4105 167.658 77.1566 167.658C77.8013 167.658 78.4486 167.43 78.9668 166.966C83.4428 162.961 87.0203 160.034 89.9998 157.832C92.979 160.034 96.5564 162.961 101.033 166.966C101.551 167.43 102.198 167.658 102.843 167.658C103.589 167.658 104.332 167.353 104.868 166.753C105.869 165.635 105.774 163.918 104.655 162.918C100.796 159.464 97.5419 156.762 94.7329 154.609C98.4018 152.353 101.053 151.349 103.775 150.319C108.15 148.666 112.674 146.955 121.105 140.482C125.96 137.068 130.351 133.486 134.156 129.836C134.157 129.835 134.158 129.834 134.159 129.833C138.417 125.753 142.2 121.581 145.402 117.43C145.402 117.43 145.402 117.43 145.402 117.43C145.402 117.429 145.403 117.429 145.403 117.429C148.993 112.782 152.103 108.119 154.647 103.569C154.648 103.568 154.648 103.567 154.649 103.566C157.515 98.4471 159.904 93.3843 161.751 88.5183C161.751 88.5169 161.752 88.5155 161.753 88.5141C163.847 83.0034 165.471 77.6227 166.581 72.5219C166.582 72.518 166.582 72.5142 166.583 72.5103C167.848 66.7092 168.658 61.106 168.992 55.8561C168.992 55.8547 168.992 55.8537 168.992 55.8523C169.369 49.9516 169.327 44.3098 168.869 39.0733Z"/></g><defs><clipPath id="clip0"><rect width="180" height="180" fill="#fff"/></clipPath></defs></svg>