<svg xmlns="http://www.w3.org/2000/svg" width="180" height="180" fill="none" viewBox="0 0 180 180"><path fill="#ABECFE" d="M90 107.34C40.2936 107.34 4.10661 59.2232 11.3147 46.2779C26.6857 18.6736 56.1618 0 90 0C123.877 0 153.381 18.7161 168.738 46.3721C175.913 59.2952 139.706 107.34 90 107.34Z"/><path fill="#70C5E9" d="M180 90C180 99.1586 178.632 107.997 176.087 116.322C174.319 122.112 171.984 127.653 169.144 132.884C166.244 138.227 117.327 144.152 90 144.152C62.673 144.152 13.7563 138.227 10.8601 132.884C9.70383 130.763 8.63402 128.591 7.65352 126.369C2.73164 115.249 0 102.945 0 90C0 73.7511 4.30664 58.5105 11.8406 45.3516C27.3519 72.4465 56.5453 90.7031 90 90.7031C123.455 90.7031 152.652 72.4465 168.159 45.3516C175.693 58.5105 180 73.7511 180 90Z"/><path fill="#355DD7" d="M169.194 132.785C166.676 137.433 163.768 141.835 160.502 145.944C157.536 149.682 154.273 153.175 150.757 156.393C143.267 163.251 134.614 168.859 125.126 172.885C114.333 177.466 65.5182 177.434 54.6718 172.8C45.2637 168.78 36.6792 163.203 29.243 156.393C25.7274 153.175 22.4641 149.682 19.498 145.944C16.2324 141.835 13.3235 137.433 10.8063 132.785H169.194Z"/><path fill="#CDE0F7" d="M90 141.475H85.751V167.253H90H94.2489V141.475H90Z"/><path fill="#ABCCF1" d="M90 141.475H94.249V167.253H90V141.475Z"/><path fill="#CDE0F7" d="M115.494 94.7356V103.234H128.242V122.803L122.565 126.587C120.93 127.674 106.142 137.226 90.0003 137.226C73.859 137.226 59.0702 127.674 57.4351 126.587L51.7588 122.803V103.234H64.5061V94.7356H43.2608V127.35L52.7217 133.658C54.5723 134.894 71.3612 145.724 90.0007 145.724C108.64 145.724 125.429 134.894 127.28 133.658L136.741 127.35V94.7356H115.494Z"/><path fill="#ABCCF1" d="M136.74 127.35V94.7356H115.494V103.234H128.242V122.803L122.565 126.587C120.93 127.674 106.142 137.226 90.0004 137.226V145.724C108.64 145.724 125.428 134.894 127.279 133.657L136.74 127.35Z"/><path fill="#E7FAFF" d="M119.743 45.4387C111.009 39.6731 100.346 34.9653 90 34.9653C79.6377 34.9653 68.9716 39.6865 60.2564 45.4387V60.7429L64.5054 64.9919L60.2564 69.2409V77.7389L64.5054 81.9879L60.2564 86.2369V94.7348L64.5054 98.9838L60.2564 103.233V118.254C68.991 124.019 79.6532 128.727 90 128.727C100.362 128.727 111.028 124.006 119.743 118.254V103.233L115.494 98.9838L119.743 94.7348V86.2369L115.494 81.9879L119.743 77.7389V69.2409L115.494 64.9919L119.743 60.7429V45.4387Z"/><path fill="#CDE0F7" d="M119.743 103.234L115.494 98.9845L119.743 94.7356V86.2376L115.494 81.9886L119.743 77.7396V69.2416L115.494 64.9927L119.743 60.7437V45.4395C111.009 39.6738 100.346 34.9661 90 34.9661V128.728C100.362 128.728 111.028 124.007 119.743 118.255V103.234Z"/><path fill="#797E97" d="M60.2564 60.7429H81.5017V69.2409H60.2564V60.7429Z"/><path fill="#5F657A" d="M70.0804 60.7429H81.5017V69.2409H70.0804V60.7429Z"/><path fill="#797E97" d="M60.2564 77.7393H81.5017V86.2376H60.2564V77.7393Z"/><path fill="#5F657A" d="M70.0804 77.7393H81.5017V86.2376H70.0804V77.7393Z"/><path fill="#535564" d="M98.4979 77.7393H119.743V86.2376H98.4979V77.7393Z"/><path fill="#797E97" d="M60.2564 94.7356H81.5017V103.234H60.2564V94.7356Z"/><path fill="#5F657A" d="M70.0804 94.7356H81.5017V103.234H70.0804V94.7356Z"/><path fill="#535564" d="M98.4979 94.7356H119.743V103.234H98.4979V94.7356Z"/><path fill="#535564" d="M98.4979 60.7429H119.743V69.2409H98.4979V60.7429Z"/><path fill="#797E97" d="M118.129 163.004H61.8711L54.5614 172.75C65.4377 177.414 77.4161 180 90 180C102.584 180 114.562 177.414 125.438 172.75L118.129 163.004Z"/><path fill="#5F657A" d="M118.129 163.004H78.0553L67.4459 177.15C74.6536 179.01 82.2111 180 90 180C102.584 180 114.562 177.414 125.438 172.75L118.129 163.004Z"/><path fill="#3B3B3B" d="M118.129 163.004H90V180C102.584 180 114.562 177.414 125.438 172.75L118.129 163.004Z"/><path fill="#fff" d="M34.6974 80.343H34.1617C31.7872 80.343 29.8635 78.4175 29.8635 76.0445V75.509H26.7996V76.0445C26.7996 78.4175 24.8741 80.343 22.501 80.343H21.9642V83.4069H22.501C24.8741 83.4069 26.7996 85.3306 26.7996 87.7051V88.2423H29.8635V87.7051C29.8635 85.3306 31.7872 83.4069 34.1617 83.4069H34.6974V80.343Z"/><path fill="#fff" d="M45.0728 45.9408H44.537C42.1625 45.9408 40.2388 44.0153 40.2388 41.6422V41.1068H37.1749V41.6422C37.1749 44.0153 35.2494 45.9408 32.8764 45.9408H32.3395V49.0047H32.8764C35.2494 49.0047 37.1749 50.9284 37.1749 53.3029V53.8401H40.2388V53.3029C40.2388 50.9284 42.1625 49.0047 44.537 49.0047H45.0728V45.9408Z"/><path fill="#fff" d="M145.3 83.4069H145.835C148.21 83.4069 150.134 85.3306 150.134 87.7051V88.2423H153.198V87.7051C153.198 85.3306 155.123 83.4069 157.496 83.4069H158.033V80.343H157.496C155.123 80.343 153.198 78.4175 153.198 76.0445V75.509H150.134V76.0445C150.134 78.4175 148.21 80.343 145.835 80.343H145.3V83.4069Z"/><path fill="#fff" d="M134.924 49.0047H135.46C137.835 49.0047 139.758 50.9284 139.758 53.3029V53.8401H142.822V53.3029C142.822 50.9284 144.748 49.0047 147.121 49.0047H147.658V45.9408H147.121C144.748 45.9408 142.822 44.0153 142.822 41.6422V41.1068H139.758V41.6422C139.758 44.0153 137.835 45.9408 135.46 45.9408H134.924V49.0047Z"/></svg>