<svg height="512" viewBox="0 0 512 512" width="512" xmlns="http://www.w3.org/2000/svg"><g id="flat"><path d="m280 440h-48l8-32h32z" fill="#a8a8a8"/><path d="m256 416a128.145 128.145 0 0 1 -128-128v-72a8 8 0 0 1 16 0v72a112 112 0 0 0 224 0v-72a8 8 0 0 1 16 0v72a128.145 128.145 0 0 1 -128 128z" fill="#cbcbcb"/><path d="m168 216v-104a88 88 0 0 1 88-88 88 88 0 0 1 88 88v104z" fill="#0296e5"/><path d="m344 216v72a88 88 0 0 1 -88 88 88 88 0 0 1 -88-88v-72z" fill="#0276b4"/><path d="m168 248h176v40h-176z" fill="#cbcbcb"/><path d="m216 440h80a48 48 0 0 1 48 48 0 0 0 0 1 0 0h-176a0 0 0 0 1 0 0 48 48 0 0 1 48-48z" fill="#cbcbcb"/><path d="m120 184h32v32h-32z" fill="#a8a8a8"/><path d="m88 176h32v48h-32z" fill="#cbcbcb"/><path d="m360 184h32v32h-32z" fill="#a8a8a8" transform="matrix(-1 0 0 -1 752 400)"/><path d="m392 176h32v48h-32z" fill="#cbcbcb" transform="matrix(-1 0 0 -1 816 400)"/><g fill="#0276b4"><circle cx="256" cy="144" r="8"/><circle cx="256" cy="112" r="8"/><circle cx="256" cy="80" r="8"/><circle cx="256" cy="48" r="8"/><circle cx="288" cy="144" r="8"/><circle cx="288" cy="112" r="8"/><circle cx="288" cy="80" r="8"/><circle cx="288" cy="48" r="8"/><circle cx="320" cy="144" r="8"/><circle cx="320" cy="112" r="8"/><circle cx="320" cy="80" r="8"/><circle cx="224" cy="144" r="8"/><circle cx="224" cy="112" r="8"/><circle cx="224" cy="80" r="8"/><circle cx="224" cy="48" r="8"/><circle cx="192" cy="144" r="8"/><circle cx="192" cy="112" r="8"/><circle cx="192" cy="80" r="8"/></g><path d="m288.007 341.963a8 8 0 0 1 -4.584-14.562 48.569 48.569 0 0 0 13.724-14.67 8 8 0 0 1 13.706 8.257 64.735 64.735 0 0 1 -18.276 19.536 7.966 7.966 0 0 1 -4.57 1.439z" fill="#0296e5"/><path d="m256 352a8 8 0 0 1 0-16 48.783 48.783 0 0 0 6.867-.486 8 8 0 1 1 2.266 15.839 64.835 64.835 0 0 1 -9.133.647z" fill="#0296e5"/><path d="m136.005 136a7.984 7.984 0 0 1 -6.252-3 72.034 72.034 0 0 1 0-90 8 8 0 0 1 12.494 10 55.722 55.722 0 0 0 0 70 8 8 0 0 1 -6.242 13z" fill="#fbb540"/><path d="m105.973 152a7.984 7.984 0 0 1 -6.078-2.793 94.05 94.05 0 0 1 0-122.414 8 8 0 0 1 12.148 10.414 78.047 78.047 0 0 0 0 101.586 8 8 0 0 1 -6.07 13.207z" fill="#fbb540"/><path d="m376 136a8 8 0 0 1 -6.242-13 55.722 55.722 0 0 0 0-70 8 8 0 0 1 12.494-10 72.034 72.034 0 0 1 0 90 7.984 7.984 0 0 1 -6.252 3z" fill="#fbb540"/><path d="m406.027 152a8 8 0 0 1 -6.07-13.207 78.047 78.047 0 0 0 0-101.586 8 8 0 0 1 12.148-10.414 94.05 94.05 0 0 1 0 122.414 7.984 7.984 0 0 1 -6.078 2.793z" fill="#fbb540"/><path d="m152 176h208v40h-208z" fill="#cbcbcb"/><path d="m168 216h176v16h-176z" fill="#015078"/></g></svg>