<svg xmlns="http://www.w3.org/2000/svg" width="32" height="32" fill="none" viewBox="0 0 40 40"><path fill="#FA9C0F" d="M36.7751 7.27423V18.4495C36.7751 28.6268 29.8638 37.501 19.9916 40C10.1359 37.5093 3.22461 28.6268 3.22461 18.4495V7.27423C10.9854 6.4 15.3813 3.44742 19.9999 0C24.6184 3.44742 29.0143 6.4 36.7751 7.27423Z"/><path fill="#69440B" d="M20 35.5878C12.569 33.2291 7.46387 26.3342 7.46387 18.4497V10.8785C12.6845 9.7404 16.5195 7.6373 20 5.2373C23.5546 7.70328 27.3154 9.76514 32.536 10.8868V18.4579C32.536 26.3342 27.4309 33.2291 20 35.5878Z"/><path fill="#FA9C0F" d="M17.2206 26.8373L13.0886 22.7053L15.1835 20.6022L17.2206 22.6311L24.8165 15.0435L26.9113 17.1383L17.2206 26.8373Z"/></svg>