<svg id="Capa_1" enable-background="new 0 0 512 512" height="32" viewBox="0 0 512 512" width="32" xmlns="http://www.w3.org/2000/svg"><g><path d="m511.996 201.264c0 .155-.021.32-.052.475-.103.537-.351 1.054-.734 1.488l-3.265 3.74-243.615 278.439-2.067 2.366c-.837.961-2.325.971-3.172.031l-.269-.3-1.261-1.384h-.01l-252.202-277.911-4.515-4.97-.01-.01c-.382-.434-.641-.94-.754-1.478-.031-.155-.062-.32-.062-.486l7.429-1.87 248.555-62.679 249.63 62.947z" fill="#90d8f9"/><path d="m511.996 201.264c0 .155-.021.32-.052.475l-5.115 1.715-122.805 41.259h-256.366l-121.286-40.845-6.303-2.118c-.031-.155-.062-.32-.062-.486-.041-.62.114-1.25.444-1.808 0-.01.01-.031.021-.041l1.581-2.573 46.415-75.667h415.047l46.053 75.078 1.963 3.203c.341.558.496 1.188.465 1.808z" fill="#b1e4f9"/><path d="m152.156 172.953h207.37l24.501 71.759h-256.372z" fill="#e4f6ff"/><path d="m384.025 244.714-121.318 240.867-1.436 2.831c-.393.114-.816.114-1.209 0l-1.312-2.418-131.092-241.28z" fill="#b1e4f9"/><path d="m358.774 69.395h-205.865c-.495 0-.983.115-1.426.336l-103.012 51.443 103.685 51.779h207.37l103.685-51.779-103.012-51.443c-.442-.221-.931-.336-1.425-.336z" fill="#90d8f9"/><path d="m358.774 69.395h-56.247l50.498 25.218c21.899 10.936 21.899 42.186 0 53.122l-50.498 25.218h57l103.685-51.779s-103.012-51.443-103.012-51.443c-.443-.221-.932-.336-1.426-.336z" fill="#75cef9"/><g><g><path d="m460.998 47.072c-4.28 0-7.75-3.469-7.75-7.75v-8.073c0-4.28 3.469-7.75 7.75-7.75 4.28 0 7.75 3.469 7.75 7.75v8.073c-.001 4.281-3.47 7.75-7.75 7.75z" fill="#e4f6ff"/></g><g><path d="m460.998 89.346c-4.28 0-7.75-3.469-7.75-7.75v-8.074c0-4.28 3.469-7.75 7.75-7.75 4.28 0 7.75 3.469 7.75 7.75v8.074c-.001 4.281-3.47 7.75-7.75 7.75z" fill="#e4f6ff"/></g><g><path d="m486.171 64.172h-8.073c-4.28 0-7.75-3.469-7.75-7.75s3.469-7.75 7.75-7.75h8.073c4.28 0 7.75 3.469 7.75 7.75s-3.47 7.75-7.75 7.75z" fill="#e4f6ff"/></g><g><path d="m443.897 64.172h-8.074c-4.28 0-7.75-3.469-7.75-7.75s3.469-7.75 7.75-7.75h8.074c4.28 0 7.75 3.469 7.75 7.75s-3.47 7.75-7.75 7.75z" fill="#e4f6ff"/></g></g><g><g><path d="m39.785 60.045c-4.28 0-7.75-3.469-7.75-7.75v-8.073c0-4.28 3.47-7.75 7.75-7.75s7.75 3.469 7.75 7.75v8.073c-.001 4.28-3.47 7.75-7.75 7.75z" fill="#e4f6ff"/></g><g><path d="m39.785 102.318c-4.28 0-7.75-3.469-7.75-7.75v-8.074c0-4.28 3.47-7.75 7.75-7.75s7.75 3.469 7.75 7.75v8.074c-.001 4.281-3.47 7.75-7.75 7.75z" fill="#e4f6ff"/></g><g><path d="m64.958 77.144h-8.074c-4.28 0-7.75-3.469-7.75-7.75 0-4.28 3.47-7.75 7.75-7.75h8.074c4.28 0 7.75 3.469 7.75 7.75-.001 4.281-3.47 7.75-7.75 7.75z" fill="#e4f6ff"/></g><g><path d="m22.685 77.144h-8.073c-4.28 0-7.75-3.469-7.75-7.75 0-4.28 3.47-7.75 7.75-7.75h8.073c4.28 0 7.75 3.469 7.75 7.75-.001 4.281-3.47 7.75-7.75 7.75z" fill="#e4f6ff"/></g></g><g><g><path d="m73.645 409.153c-4.28 0-7.75-3.469-7.75-7.75v-8.074c0-4.28 3.47-7.75 7.75-7.75s7.75 3.469 7.75 7.75v8.074c-.001 4.28-3.47 7.75-7.75 7.75z" fill="#e4f6ff"/></g><g><path d="m73.645 451.425c-4.28 0-7.75-3.469-7.75-7.75v-8.073c0-4.28 3.47-7.75 7.75-7.75s7.75 3.469 7.75 7.75v8.073c-.001 4.281-3.47 7.75-7.75 7.75z" fill="#e4f6ff"/></g><g><path d="m98.818 426.252h-8.073c-4.28 0-7.75-3.469-7.75-7.75s3.47-7.75 7.75-7.75h8.073c4.28 0 7.75 3.469 7.75 7.75s-3.47 7.75-7.75 7.75z" fill="#e4f6ff"/></g><g><path d="m56.545 426.252h-8.074c-4.28 0-7.75-3.469-7.75-7.75s3.47-7.75 7.75-7.75h8.074c4.28 0 7.75 3.469 7.75 7.75s-3.47 7.75-7.75 7.75z" fill="#e4f6ff"/></g></g><g><g><path d="m435.823 349.779c-4.28 0-7.75-3.469-7.75-7.75v-8.073c0-4.28 3.469-7.75 7.75-7.75 4.28 0 7.75 3.469 7.75 7.75v8.073c0 4.281-3.469 7.75-7.75 7.75z" fill="#e4f6ff"/></g><g><path d="m435.823 392.052c-4.28 0-7.75-3.469-7.75-7.75v-8.074c0-4.28 3.469-7.75 7.75-7.75 4.28 0 7.75 3.469 7.75 7.75v8.074c0 4.281-3.469 7.75-7.75 7.75z" fill="#e4f6ff"/></g><g><path d="m460.998 366.879h-8.074c-4.28 0-7.75-3.469-7.75-7.75 0-4.28 3.469-7.75 7.75-7.75h8.074c4.28 0 7.75 3.469 7.75 7.75-.001 4.281-3.47 7.75-7.75 7.75z" fill="#e4f6ff"/></g><g><path d="m418.724 366.879h-8.073c-4.28 0-7.75-3.469-7.75-7.75 0-4.28 3.469-7.75 7.75-7.75h8.073c4.28 0 7.75 3.469 7.75 7.75s-3.47 7.75-7.75 7.75z" fill="#e4f6ff"/></g></g></g></svg>