<?xml version="1.0" encoding="iso-8859-1"?>
<!-- Generator: Adobe Illustrator 19.0.0, SVG Export Plug-In . SVG Version: 6.00 Build 0)  -->
<svg version="1.1" id="Capa_1" width="32" height="32" xmlns="http://www.w3.org/2000/svg" xmlns:xlink="http://www.w3.org/1999/xlink" x="0px" y="0px"
	 viewBox="0 0 511.76 511.76" style="enable-background:new 0 0 511.76 511.76;" xml:space="preserve">
<polygon style="fill:#4B9FD8;" points="170.792,273.12 170.456,511.488 255.784,455.76 340.968,511.744 341.304,273.36 "/>
<path style="fill:#3789C9;" d="M289.272,469.728c-0.384-7.424-7.04-13.008-14.48-13.024l-7.296-0.016
	c-7.408-0.224-13.36-6.288-13.36-13.744c0.016-7.584,6.192-13.76,13.792-13.744l20.576,0.032
	c6.352,0.016,11.568-5.184,11.488-11.536v-0.976c0.448-6.272-4.576-11.568-10.832-11.584l-61.568-0.096
	c-7.504-0.016-14.112-5.584-14.544-12.992c-0.336-7.936,5.936-14.464,13.792-14.448l57.088,0.08
	c6.352,0.016,11.568-5.184,11.584-11.552l-0.08-0.8v-0.176c0.096-6.704-5.36-12.192-12.08-12.192l-32.032-0.048
	c-7.504-0.016-14.112-5.584-14.544-13.088c-0.336-7.856,5.936-14.464,13.792-14.448l35.376,0.048
	c6.624,0.016,11.568-5.536,11.488-12.16c0-0.096,0-0.096,0-0.176c0-0.096,0-0.096,0-0.176c0.096-6.624-4.832-12.192-11.456-12.192
	l-38.144-0.048c-7.408-0.016-14.016-5.584-14.448-12.992c-0.336-7.952,5.936-14.464,13.792-14.448l94.144,0.144l-0.352,238.384
	l-53.392-35.088C288.648,474.56,289.4,472.272,289.272,469.728z"/>
<circle style="fill:#D8D9D8;" cx="255.88" cy="186.736" r="186.736"/>
<path style="fill:#E5E5E5;" d="M281.208,165.312H162.872c-9.2,0-16.752-7.552-16.752-16.752c1.52-13.568,8.352-19.056,17.648-19.056
	h82.016c10.864,0,20.464-8.048,21.104-18.928C267.4,99.2,258.328,89.6,246.936,89.6h-86.88c-9.584,0-16.752-8.048-16.624-17.648
	c0.16-11.6,7.904-18.16,16.624-18.16h90.912c10.736,0,20.336-8.048,20.976-18.8c0.512-11.504-8.56-20.976-19.952-20.976h-66.576
	C117.528,42,69.688,108.752,69.688,186.736s47.84,144.72,115.744,172.672h84.528c10.736,0,20.336-8.048,20.976-18.8
	c0.512-11.504-8.56-20.96-19.952-20.96l-96.16-0.016c-11.344,0-20.48-9.488-19.872-20.976c0.56-10.752,10.224-18.832,20.992-18.832
	h37.28c10.72-0.304,19.376-9.088,19.376-19.888c0-10.992-8.944-19.952-19.952-19.952h-56.512c-9.2,0-16.752-7.536-16.624-16.752
	c0-12.368,7.152-18.16,15.728-18.16h124.816c10.864,0,20.464-8.048,21.104-18.8C301.672,174.784,292.584,165.312,281.208,165.312z"
	/>
<path style="fill:#F3F3F3;" d="M255.88,320.032c-73.504,0-133.296-59.808-133.296-133.296S182.376,53.44,255.88,53.44
	s133.296,59.808,133.296,133.296S329.384,320.032,255.88,320.032z"/>
<path style="opacity:0.5;fill:#FFFFFF;enable-background:new    ;" d="M389.176,186.736c0-70.912-55.712-128.912-125.648-132.912
	h-12.416c-8.192,0-15.504,6.144-16,14.336c-0.384,8.768,6.528,16,15.216,16l73.344,0.016c8.656,0,15.616,7.232,15.152,16
	c-0.432,8.208-7.792,14.368-16.016,14.368h-28.432c-8.176,0.24-14.784,6.928-14.784,15.168c0,8.384,6.832,15.216,15.216,15.216
	h43.104c7.024,0,12.768,5.76,12.672,12.768v1.056c0.48,6.928-5.072,12.768-12,12.768H243.4c-8.288,0-15.6,6.144-16.096,14.336
	c-0.384,8.768,6.528,16,15.216,16h90.24c7.024,0,12.768,5.76,12.768,12.768l-0.096,0.88v0.192
	c0.096,7.408-5.952,13.456-13.36,13.456h-62.56c-8.288,0-15.6,6.144-16.096,14.432c-0.384,8.672,6.528,16,15.216,16h66.256
	c7.312,0,12.768,6.144,12.672,13.456c0,0.096,0,0.096,0,0.192c0,0.096,0,0.096,0,0.192c0.096,7.312-5.36,13.456-12.672,13.456
	H265.56c-8.192,0-15.504,6.144-16,14.336c-0.384,8.784,6.528,16,15.216,16h18.288C343.592,304.608,389.176,250.896,389.176,186.736z
	"/>
<path style="fill:#3789C9;" d="M348.936,157.216h-64.832l-20.048-61.664c-2.576-7.92-13.792-7.92-16.368,0l-20.032,61.664h-64.832
	c-8.336,0-11.808,10.672-5.056,15.568l52.448,38.112l-20.032,61.664c-2.576,7.92,6.496,14.512,13.248,9.616l52.448-38.112
	l52.448,38.112c6.752,4.896,15.824-1.696,13.248-9.616l-20.032-61.664l52.448-38.112
	C360.728,167.888,357.272,157.216,348.936,157.216z"/>
<g>
</g>
<g>
</g>
<g>
</g>
<g>
</g>
<g>
</g>
<g>
</g>
<g>
</g>
<g>
</g>
<g>
</g>
<g>
</g>
<g>
</g>
<g>
</g>
<g>
</g>
<g>
</g>
<g>
</g>
</svg>
