<svg class="site-logo__svg" width="1628" height="268" viewBox="0 0 1628 268" fill="white" xmlns="http://www.w3.org/2000/svg"><path d="M123 201.3c-12.7 4.8-27 7.2-43.1 7.2C27.2 208.5.8 183 .8 132c0-48.3 26.4-72.4 79.1-72.4 16.1 0 30.5 2.4 43.1 7.2v24.6c-12.7-5.5-26.4-8.2-41.1-8.2C46.6 83.2 29 99.5 29 132c0 35.3 17.6 52.9 52.9 52.9 14.7 0 28.4-2.7 41.1-8.2v24.6zM137.2 134.2c0-49.8 24.6-74.7 73.7-74.7 48.4 0 72.6 24.9 72.6 74.7 0 49.5-24.2 74.2-72.6 74.2-46.9.1-71.5-24.7-73.7-74.2zm73.7 50.6c29.6 0 44.4-17.1 44.4-51.2 0-33.6-14.8-50.4-44.4-50.4-30.3 0-45.5 16.8-45.5 50.4 0 34.2 15.2 51.2 45.5 51.2zM304.9 207.4V60.6h28.2L382.9 172l48.8-111.4h27.2v146.9h-25.2V105.1l-39.8 102.3h-23.2L330 105.1v102.3h-25.1zM489.7 207.4V60.6H518L567.8 172l48.8-111.4h27.2v146.9h-25.2V105.1l-39.8 102.3h-23.2l-40.7-102.3v102.3h-25.2zM810.3 60.6l-64.4 146.9h-29.3L655 60.6h32.3L732.8 173l45.4-112.5h32.1v.1zM779.9 207.4l62.3-146.9h29.3l63.7 146.9h-29.3l-18.5-40.1h-46l9.3-23.6h29.5l-24-55.1-48.4 118.8h-27.9zM938.9 149.7V60.6h27.2v89.1c0 23.4 12 35.1 35.9 35.1s35.9-11.7 35.9-35.1V60.6h27.2v89.1c0 39.2-21.1 58.8-63.2 58.8s-63-19.6-63-58.8zM1120.2 60.6v123.2h68.6v23.6H1093V60.6h27.2zM1285.4 60.6v23.6h-42.1v123.2h-27.2V84.2H1174V60.6h111.4zM1311.7 65.4c1.7 0 2.9.3 3.7 1 .8.7 1.2 1.7 1.2 3s-.3 2.2-1.1 2.8c-.7.6-1.6.9-2.6 1l4 6.2h-2.3l-3.8-6h-2.3v6h-2.2V65.3l5.4.1zm-1 6.2h1.4c.4 0 .8-.1 1.2-.3.3-.1.6-.4.8-.7.2-.3.3-.7.3-1.3 0-.5-.1-.9-.3-1.1-.2-.3-.4-.5-.7-.6-.3-.1-.6-.2-1-.3-.4 0-.8-.1-1.1-.1h-2.9v4.5l2.3-.1z" fill="#fff"></path><path d="M1310.9 60.4c-6.6 0-12 5.4-12 12s5.4 12 12 12 12-5.4 12-12-5.3-12-12-12zm0 22.3c-5.7 0-10.3-4.6-10.3-10.3 0-5.7 4.6-10.3 10.3-10.3 5.7 0 10.3 4.6 10.3 10.3 0 5.7-4.6 10.3-10.3 10.3z" fill="#0B2E44"></path><path d="M1509.1.2L1391 68.4v131.1l118.1 68.2 118.1-68.2V68.4L1509.1.2zm97.7 187.6l-97.7 56.4-97.7-56.4V80.2l97.7-56.4 97.7 56.4v107.6z" fill="#FF4A6A"></path><path d="M1502.3 217c0 1-1.1 1.6-2 1.1l-68.7-39.7c-1.2-.7-2-2-2-3.4V98.2c0-1 1.1-1.6 2-1.1l68.7 39.7c1.2.7 2 2 2 3.4V217zM1577.6 86.6l-65.8 38c-1.6.9-3.6.9-5.2 0l-65.8-38c-.9-.5-.9-1.8 0-2.3l65.8-38c1.6-.9 3.6-.9 5.2 0l65.8 38c.8.6.8 1.8 0 2.3zM1577.6 183.6l-59.7 34.4c-.9.5-2-.1-2-1.1V148c0-1 1.1-1.6 2-1.1l59.7 34.4c.8.6.8 1.8 0 2.3z" fill="#FF4A6A"></path></svg>