<svg xmlns="http://www.w3.org/2000/svg" width="31" height="35" fill="none" viewBox="0 0 31 35"><path fill="#fff" d="M26.9605 0C28.9114 0 30.5046 1.57675 30.5378 3.54375V35L26.786 31.675L24.6745 29.715L22.4409 27.6325L23.3657 30.87H3.57728C2.63672 30.8678 1.73468 30.4951 1.06554 29.8322C0.396396 29.1694 0.0137282 28.2694 0 27.3263L0 3.605C0 1.631 1.57226 0.03325 3.5162 0H26.9605ZM12.7735 8.365L12.599 8.155H12.4995C12.0231 8.17075 9.90645 8.33 7.69551 9.9925L7.61175 10.1535C7.17375 11.011 5.18269 15.1795 5.18269 20.195L5.21759 20.2528C5.46539 20.6325 6.99576 22.743 10.505 22.855L11.0198 22.2233L11.6741 21.4025C9.63946 20.7917 8.76695 19.5632 8.63782 19.3655L8.62037 19.3375L8.69192 19.3848C8.77044 19.4373 8.91353 19.5247 9.10898 19.635C9.12642 19.6525 9.14388 19.67 9.17878 19.6875C9.23113 19.7225 9.28348 19.74 9.33583 19.775C9.77208 20.02 10.2083 20.2125 10.6097 20.37C11.3251 20.65 12.1802 20.93 13.1749 21.1225C14.447 21.3605 15.932 21.4498 17.5514 21.1663L17.6944 21.14C18.5146 21 19.3522 20.755 20.2247 20.3875C20.8355 20.16 21.516 19.8275 22.2315 19.355L22.2036 19.3988C22.036 19.6437 21.1217 20.8565 19.073 21.4375L19.3609 21.7997C19.8024 22.3492 20.2247 22.855 20.2247 22.855C24.0812 22.7325 25.5645 20.195 25.5645 20.195C25.5645 14.56 23.0516 9.9925 23.0516 9.9925C20.8913 8.36675 18.82 8.17775 18.2825 8.15675L18.1481 8.155L17.9038 8.435C20.5353 9.24175 21.9174 10.3653 22.1966 10.6103L22.2489 10.6575C19.575 9.17861 16.4975 8.60185 13.4715 9.0125C13.3668 9.0125 13.2796 9.03 13.1749 9.0475L13.0771 9.05625C12.414 9.1245 10.9884 9.3695 9.21368 10.15L8.96065 10.269C8.64306 10.4195 8.41271 10.5367 8.28882 10.6015L8.18412 10.6575C8.18412 10.6575 9.60281 9.303 12.6793 8.393L12.7735 8.365ZM12.1104 14.6825C13.1051 14.6825 13.9078 15.5575 13.8903 16.625C13.8903 17.6925 13.1051 18.5675 12.1104 18.5675C11.1332 18.5675 10.3305 17.6925 10.3305 16.625C10.3305 15.5575 11.1157 14.6825 12.1104 14.6825ZM18.4797 14.6825C19.4744 14.6825 20.2596 15.5575 20.2596 16.625C20.2596 17.6925 19.4744 18.5675 18.4797 18.5675C17.5025 18.5675 16.6998 17.6925 16.6998 16.625C16.6998 15.5575 17.485 14.6825 18.4797 14.6825Z"/></svg>