<svg xmlns="http://www.w3.org/2000/svg" width="180" height="180" fill="none" viewBox="0 0 180 180"><g clip-path="url(#clip0)"><path fill="#FED130" d="M70.8531 106.812C70.3204 106.812 69.887 106.379 69.887 105.846V94.838C69.887 94.3054 70.3201 93.8719 70.8531 93.8719H85.8458V50.2385C85.8458 49.7808 85.8496 47.5385 85.8581 45.2077L73.3052 55.7398C73 55.9961 72.6133 56.137 72.2161 56.137C71.6785 56.137 71.1846 55.8913 70.8611 55.4627L64.6244 47.1965C64.0827 46.4796 64.1959 45.4622 64.8818 44.8807L88.2606 25.0664C88.5665 24.8069 88.956 24.6638 89.3575 24.6638H100.113C101.049 24.6638 101.809 25.4246 101.809 26.3598V93.8723H114.752C115.284 93.8723 115.718 94.3054 115.718 94.8384V105.846C115.718 106.379 115.284 106.813 114.752 106.813H70.8531V106.812Z"/><path fill="#F7BC14" d="M114.751 93.8719H101.809V26.3594C101.809 25.4228 101.05 24.6635 100.113 24.6635H89.3572C88.9557 24.6635 88.5672 24.8058 88.2607 25.0656L85.8455 27.1128V87.5835C85.8455 91.057 88.6611 93.8726 92.1345 93.8726H99.3627V106.813H114.751C115.285 106.813 115.717 106.38 115.717 105.847V94.8387C115.717 94.3047 115.285 93.8719 114.751 93.8719Z"/><path fill="#FD9727" d="M13.745 38.8511C18.2858 33.8969 23.0445 29.4387 28.2839 25.2998C28.9001 24.8132 29.7871 25.3957 29.5808 26.1534C26.6442 36.9474 21.5131 47.6144 13.603 55.5443C13.2479 49.9928 13.2426 44.3948 13.745 38.8511Z"/><path fill="#FD9727" d="M13.6037 55.5485C9.03688 50.0374 5.11275 44.3397 1.57639 38.188C1.17209 37.4846 0.0966655 37.7356 0.0555328 38.5459C-0.5822 51.147 4.23244 65.8911 15.9623 71.8378C14.7934 66.4789 13.951 61.0259 13.6037 55.5485Z"/><path fill="#FD9727" d="M15.9616 71.8336C18.8356 65.9203 22.0528 60.4184 25.8233 55.0852C26.2708 54.4524 27.2738 54.7424 27.3065 55.5165C27.766 66.4016 25.8982 77.9082 20.6824 87.4633C18.7495 82.3776 17.1182 77.1538 15.9616 71.8336Z"/><path fill="#FD9727" d="M20.6838 87.4675C14.754 83.6565 9.33676 79.4891 4.14068 74.8088C3.54127 74.2688 2.60084 74.8327 2.80404 75.6132C5.93435 87.6492 14.8862 100.001 27.6313 102.182C24.982 97.4508 22.6086 92.5405 20.6838 87.4675Z"/><path fill="#FD9727" d="M27.6292 102.179C28.6681 95.7271 30.1538 89.573 32.222 83.4204C32.4681 82.6884 33.507 82.6743 33.7647 83.4021C37.3819 93.6142 38.8472 105.135 36.6647 115.723C33.3477 111.43 30.2786 106.918 27.6292 102.179Z"/><path fill="#FD9727" d="M36.6675 115.727C29.9077 113.812 23.5219 111.417 17.197 108.481C16.4664 108.142 15.7341 108.955 16.1553 109.642C22.6581 120.246 34.8327 129.428 47.6559 127.845C43.7195 124.074 39.9996 120.046 36.6675 115.727Z"/><path fill="#FD9727" d="M47.6527 127.843C46.7302 121.343 46.3386 115.003 46.5197 108.487C46.5411 107.714 47.5322 107.398 47.9906 108.019C54.4674 116.8 59.2989 127.467 60.4552 138.281C55.9517 135.116 51.6275 131.656 47.6527 127.843Z"/><path fill="#FD9727" d="M166.255 38.8511C161.714 33.8969 156.955 29.4387 151.716 25.2998C151.1 24.8132 150.213 25.3957 150.419 26.1534C153.355 36.9474 158.487 47.6144 166.397 55.5443C166.752 49.9928 166.757 44.3948 166.255 38.8511Z"/><path fill="#FD9727" d="M166.396 55.5485C170.963 50.0374 174.887 44.3397 178.423 38.188C178.828 37.4846 179.903 37.7356 179.944 38.5459C180.582 51.147 175.767 65.8911 164.037 71.8378C165.206 66.4789 166.049 61.0259 166.396 55.5485Z"/><path fill="#FD9727" d="M164.038 71.8336C161.164 65.9203 157.947 60.4184 154.176 55.0852C153.729 54.4524 152.726 54.7424 152.693 55.5165C152.234 66.4016 154.101 77.9082 159.317 87.4633C161.25 82.3776 162.881 77.1538 164.038 71.8336Z"/><path fill="#FD9727" d="M159.316 87.4675C165.246 83.6565 170.663 79.4891 175.859 74.8088C176.458 74.2688 177.399 74.8327 177.196 75.6132C174.065 87.6492 165.113 100.001 152.368 102.182C155.018 97.4508 157.391 92.5405 159.316 87.4675Z"/><path fill="#FD9727" d="M152.37 102.179C151.332 95.7271 149.846 89.573 147.778 83.4204C147.532 82.6884 146.493 82.6743 146.235 83.4021C142.618 93.6142 141.152 105.135 143.335 115.723C146.652 111.43 149.721 106.918 152.37 102.179Z"/><path fill="#FD9727" d="M143.332 115.727C150.092 113.812 156.478 111.417 162.803 108.481C163.534 108.142 164.265 108.955 163.845 109.642C157.342 120.246 145.167 129.428 132.344 127.845C136.28 124.074 140 120.046 143.332 115.727Z"/><path fill="#FD9727" d="M132.347 127.843C133.269 121.343 133.661 115.003 133.48 108.487C133.458 107.714 132.467 107.398 132.009 108.019C125.532 116.8 120.701 127.467 119.544 138.281C124.048 135.116 128.372 131.656 132.347 127.843Z"/><path fill="#FF6D3A" d="M168.869 39.0733C168.868 39.0198 168.869 38.9667 168.865 38.913C168.245 30.6488 166.721 22.3642 164.338 14.2899C163.913 12.851 162.401 12.0287 160.963 12.4537C159.524 12.8784 158.702 14.3891 159.127 15.828C161.379 23.4565 162.823 31.2788 163.427 39.0814C163.428 39.1397 163.428 39.1981 163.434 39.2571C163.891 44.3017 163.937 49.7681 163.57 55.5053C163.57 55.5074 163.569 55.5098 163.569 55.5119C163.254 60.4932 162.481 65.8271 161.272 71.3656C161.272 71.366 161.272 71.3667 161.272 71.367C160.22 76.2056 158.673 81.3257 156.674 86.5854C156.673 86.5872 156.673 86.5886 156.672 86.5904V86.5907C154.919 91.2095 152.643 96.0298 149.905 100.918C147.492 105.235 144.531 109.672 141.105 114.107C141.104 114.108 141.104 114.109 141.103 114.11C141.103 114.11 141.102 114.111 141.101 114.112C138.065 118.047 134.465 122.016 130.403 125.909L130.403 125.909C126.783 129.382 122.589 132.8 117.938 136.069C117.921 136.081 117.906 136.094 117.89 136.106C117.874 136.118 117.857 136.128 117.842 136.14C110.017 142.152 106.053 143.651 101.855 145.238C98.5302 146.495 95.1362 147.781 90.0006 151.205C84.8649 147.781 81.471 146.495 78.1462 145.238C73.9486 143.651 69.9837 142.152 62.1593 136.14C62.1439 136.128 62.127 136.118 62.1112 136.107C62.0946 136.094 62.0795 136.081 62.0626 136.069C57.4115 132.801 53.218 129.382 49.598 125.909L49.5977 125.909C45.5354 122.017 41.9361 118.047 38.8993 114.112C38.8986 114.111 38.8979 114.11 38.8975 114.11C38.8968 114.109 38.8965 114.108 38.8958 114.107C35.4694 109.672 32.5086 105.235 30.0955 100.918C27.3579 96.0298 25.0815 91.2095 23.329 86.5907C23.329 86.5904 23.329 86.5904 23.3286 86.5904C23.3279 86.5886 23.3276 86.5872 23.3269 86.5854C21.3272 81.3257 19.7799 76.2056 18.7277 71.367C18.7277 71.3663 18.7274 71.366 18.7274 71.3656C17.5187 65.8271 16.746 60.4929 16.4303 55.5119C16.4299 55.5095 16.4296 55.5074 16.4296 55.5053C16.0625 49.7685 16.1082 44.3017 16.566 39.2571C16.5712 39.1981 16.5716 39.1397 16.573 39.0814C17.1763 31.2788 18.6208 23.4569 20.873 15.828C21.2976 14.3891 20.4753 12.8784 19.0364 12.4537C17.5989 12.028 16.0868 12.851 15.6621 14.2899C13.2785 22.3642 11.7552 30.6488 11.1343 38.913C11.1301 38.9667 11.1312 39.0198 11.1305 39.0733C10.6734 44.3098 10.6302 49.9516 11.0081 55.8523C11.0081 55.8537 11.0081 55.8547 11.0081 55.8561C11.3414 61.106 12.1521 66.7092 13.417 72.5103C13.4177 72.5142 13.4181 72.518 13.4188 72.5219C14.5283 77.6227 16.1525 83.0034 18.2471 88.5141C18.2478 88.5155 18.2482 88.5169 18.2485 88.5183C20.0953 93.3843 22.4845 98.4471 25.3508 103.566C25.3515 103.567 25.3519 103.568 25.3526 103.569C27.8965 108.119 31.0064 112.782 34.5965 117.429C34.5969 117.429 34.5972 117.429 34.5976 117.43C34.5979 117.43 34.5979 117.43 34.5979 117.43C37.8 121.581 41.5824 125.753 45.8405 129.833C45.8416 129.834 45.843 129.835 45.844 129.836C49.649 133.486 54.0396 137.068 58.8944 140.482C67.3255 146.955 71.8498 148.665 76.2243 150.319C78.9471 151.349 81.5975 152.353 85.2668 154.609C82.4578 156.762 79.2044 159.464 75.3443 162.918C74.2263 163.918 74.1307 165.635 75.1312 166.753C75.6677 167.353 76.4106 167.658 77.1566 167.658C77.8014 167.658 78.4486 167.43 78.9668 166.966C83.4429 162.961 87.0204 160.034 89.9999 157.832C92.979 160.034 96.5565 162.961 101.033 166.966C101.551 167.43 102.198 167.658 102.843 167.658C103.589 167.658 104.332 167.353 104.868 166.753C105.869 165.635 105.774 163.918 104.655 162.918C100.796 159.464 97.5419 156.762 94.7329 154.609C98.4018 152.353 101.053 151.349 103.775 150.319C108.15 148.666 112.674 146.955 121.105 140.482C125.96 137.068 130.351 133.486 134.156 129.836C134.157 129.835 134.158 129.834 134.159 129.833C138.417 125.753 142.2 121.581 145.402 117.43C145.402 117.43 145.402 117.43 145.402 117.43C145.402 117.429 145.403 117.429 145.403 117.429C148.993 112.782 152.103 108.119 154.647 103.569C154.648 103.568 154.648 103.567 154.649 103.566C157.515 98.4471 159.904 93.3843 161.751 88.5183C161.752 88.5169 161.752 88.5155 161.753 88.5141C163.847 83.0034 165.471 77.6227 166.581 72.5219C166.582 72.518 166.582 72.5142 166.583 72.5103C167.848 66.7092 168.658 61.106 168.992 55.8561C168.992 55.8547 168.992 55.8537 168.992 55.8523C169.37 49.9516 169.327 44.3098 168.869 39.0733Z"/></g><defs><clipPath id="clip0"><rect width="180" height="180" fill="#fff"/></clipPath></defs></svg>