<svg xmlns="http://www.w3.org/2000/svg" width="106" height="32" class="topbar__brand" viewBox="0 0 106 32"><path fill="#fff" fill-rule="evenodd" d="M53.455 12.645h2.861c-.086-3.159-2.871-5.451-6.866-5.451-3.947 0-6.973 2.263-6.973 5.663 0 2.744 1.96 4.352 5.12 5.21l2.323.635c2.104.559 3.727 1.252 3.727 3.005 0 1.926-1.835 3.197-4.36 3.197-2.286 0-4.188-1.02-4.36-3.168h-2.978c.192 3.572 2.949 5.778 7.357 5.778 4.62 0 7.28-2.437 7.28-5.778 0-3.554-3.16-4.93-5.657-5.547l-1.92-.501c-1.538-.395-3.583-1.117-3.574-3.005 0-1.675 1.527-2.918 3.948-2.918 2.257 0 3.86 1.06 4.072 2.88zm13.062-.25H63.49V8.85h-2.87v3.544h-2.161v2.31h2.16v8.735c-.009 2.687 2.037 3.987 4.303 3.939.913-.01 1.527-.183 1.863-.308l-.518-2.379c-.192.039-.548.125-1.009.125-.931 0-1.767-.308-1.767-1.974v-8.137h3.026v-2.311zm7.198 15.119c2.44 0 3.813-1.242 4.36-2.35h.116v2.022h2.804v-9.822c0-4.305-3.38-5.162-5.724-5.162-2.67 0-5.128 1.078-6.089 3.775l2.7.616c.422-1.05 1.497-2.06 3.428-2.06 1.853 0 2.804.972 2.804 2.648v.067c0 1.05-1.076 1.03-3.726 1.339-2.795.327-5.657 1.06-5.657 4.42 0 2.908 2.18 4.507 4.984 4.507zm.625-2.311c-1.623 0-2.795-.732-2.795-2.158 0-1.54 1.364-2.09 3.025-2.31.932-.126 3.14-.376 3.554-.79v1.906c0 1.753-1.393 3.352-3.784 3.352zm10.21 1.983h2.87v-9.033c0-1.935 1.49-3.332 3.526-3.332.595 0 1.267.106 1.497.174V12.24a11.594 11.594 0 00-1.22-.068c-1.728 0-3.207.983-3.745 2.571h-.153v-2.35h-2.776v14.792zm21.162-11.18c-.595-2.302-2.391-3.804-5.58-3.804-3.332 0-5.695 1.762-5.695 4.382 0 2.1 1.268 3.495 4.034 4.112l2.497.549c1.421.317 2.084.953 2.084 1.877 0 1.146-1.22 2.042-3.102 2.042-1.72 0-2.824-.741-3.17-2.196l-2.775.424c.48 2.62 2.65 4.093 5.964 4.093 3.563 0 6.031-1.897 6.031-4.574 0-2.09-1.325-3.38-4.033-4.007l-2.344-.539C98 17.98 97.3 17.431 97.31 16.43c-.01-1.136 1.22-1.945 2.852-1.945 1.786 0 2.612.992 2.948 1.984l2.603-.462zM15.999 0C7.164 0 0 7.345 0 16.405c0 7.248 4.584 13.397 10.942 15.566.8.151 1.092-.356 1.092-.79 0-.39-.013-1.422-.021-2.79-4.45.99-5.39-2.2-5.39-2.2-.728-1.895-1.777-2.4-1.777-2.4-1.452-1.017.11-.997.11-.997 1.606.116 2.451 1.691 2.451 1.691 1.427 2.507 3.745 1.783 4.657 1.363.145-1.06.559-1.783 1.015-2.193-3.552-.413-7.288-1.821-7.288-8.108 0-1.79.624-3.256 1.647-4.402-.165-.415-.714-2.083.158-4.341 0 0 1.342-.441 4.399 1.682A14.97 14.97 0 0116 7.933c1.36.007 2.728.188 4.006.553 3.055-2.123 4.395-1.682 4.395-1.682.874 2.258.325 3.926.16 4.341 1.026 1.146 1.645 2.612 1.645 4.402 0 6.303-3.741 7.69-7.305 8.095.574.507 1.085 1.508 1.085 3.039 0 2.192-.02 3.962-.02 4.5 0 .438.29.949 1.1.789C27.42 29.796 32 23.65 32 16.405 32 7.345 24.836 0 15.999 0"/></svg>