<svg xmlns="http://www.w3.org/2000/svg" fill="white" viewBox="0 0 244 46"><path d="M32.8 21c0 7.4-4.4 15.4-16 15.4C8.4 36.4.7 31.8.7 21c0-8.9 5.8-15.8 17.2-15.2 12.2.7 14.9 9.9 14.9 15.2zm-21.7-5.6C10 17 9.6 19 9.6 21c0 4.5 2.3 8.6 7.2 8.6 4.8 0 7.1-3.8 7.1-8.2 0-3.2-.8-5.6-2.5-7.1-1.8-1.6-3.9-1.7-5.2-1.6-2.4.1-3.9.9-5.1 2.7zm100-6.3c.9-.9 1.4-1.6 3-2.3 1.4-.6 3.3-1 5.5-1 1.8 0 3.8.3 5.3 1.1 3.1 1.6 4 4.2 4 8.8v20H120V19.2c0-2.6-.1-3.6-.4-4.4-.7-1.6-2.2-2.2-4-2.2-4.6 0-4.6 3.6-4.6 7.3v15.8h-8.8V6.5h8.9v2.6zM98 28.1c-.8 1.7-3.4 8.3-14.9 8.3-8.9 0-15.1-5.3-15.1-14.9 0-7 3.6-15.7 15.4-15.7 1.8 0 6.9-.2 10.8 3.8 3.9 4.1 4.1 9.8 4.2 13.1H76.9c0 3.6 2.1 7.3 6.9 7.3 4.8 0 6.5-3.1 7.6-5.1l6.6 3.2zm-8.8-10.8c-.2-1.2-.4-2.9-1.7-4.1-1.1-1.1-2.8-1.6-4.3-1.6-2.1 0-3.6 1-4.5 1.9-1.2 1.3-1.5 2.6-1.8 3.9l12.3-.1zm131.5-4.7h5.8v-6h-5.8V.4h-8.8v6.1h-1.4l-4 6h5.4v13.9c0 2.8.1 4.9 1.3 6.6 1.9 2.7 5.2 2.9 8.3 2.9 1.6 0 2.8-.2 4.6-.5v-6.7l-3.1.1c-2.4 0-2.4-1.5-2.3-3.3V12.6zM133.1.4h8.8v6.1h9.1l-4 6h-5.2v13c-.1 1.8-.1 3.3 2.3 3.3l3.1-.1v6.7c-1.9.3-3 .5-4.6.5-3 0-6.4-.2-8.3-2.9-1.2-1.7-1.3-3.8-1.3-6.6V.4zm101.5 12.2h-1.1V7.4h-2v-.9h5v.9h-2v5.2zm8.5 0H242V8.9l.1-1.2-.3 1-1.3 4h-1l-1.3-4-.3-1 .1 1.2v3.7h-1v-6h1.5l1.5 4.8 1.5-4.8h1.5v6z"/><path d="M178.6 28.1l-1.7 2.5c-1.6 2.2-4.5 5.7-13 5.7-8.9 0-14.8-5.3-14.8-14.9 0-7 3.6-15.7 15.4-15.7 1.8 0 6.9-.2 10.8 3.8 3.9 4.1 4.1 9.8 4.2 13.1h-21.4c-.1 3.6 1.8 7.3 6.5 7.3 4.8 0 6.2-3.1 7.3-5.1l6.7 3.3zm-8.2-10.8c-.2-1.2-.4-2.9-1.7-4.1-1.1-1.1-2.8-1.6-4.3-1.6-2.1 0-3.6 1-4.5 1.9-1.2 1.3-1.5 2.6-1.8 3.9l12.3-.1z"/><path d="M208.7 35.7l-11-15.3 9.1-13.8h-10l-4.3 6.5-4.7-6.5h-10l9.9 13.8-10.2 15.3h10l5.3-8.1 5.8 8.1h10.1zM44.9 9.1c.8-1.3 3.5-3.3 7.8-3.3 7.3 0 12.5 5.4 12.5 15.1 0 6-2.2 15.4-12.9 15.4-3.8 0-6.8-2.1-7.5-3.3v12.2H36V6.5h8.9v2.6zm6 3.4c-1.6 0-3.3.6-4.5 2.2-1.3 1.5-1.8 3.8-1.8 6.4 0 3.4 1 5.5 2.1 6.7 1 1.1 2.5 1.8 4 1.8 4.3 0 6.2-4.4 6.2-8.7 0-3.6-1.1-7.4-4.7-8.2-.5-.1-.9-.2-1.3-.2z"/></svg>