<svg xmlns="http://www.w3.org/2000/svg" width="34" height="27" fill="none" viewBox="0 0 34 27"><path fill="#fff" d="M33.4794 3.19988C32.2617 3.73947 30.9535 4.10405 29.5783 4.26884C30.9973 3.41979 32.0589 2.08348 32.565 0.509259C31.2319 1.30112 29.7728 1.8585 28.2512 2.15718C27.2281 1.06469 25.8728 0.340568 24.3959 0.0972415C22.919 -0.146085 21.4031 0.104996 20.0835 0.811502C18.7639 1.51801 17.7145 2.64041 17.0981 4.00445C16.4818 5.36849 16.3331 6.89785 16.675 8.35509C13.9737 8.21946 11.3311 7.51735 8.91874 6.29433C6.50636 5.07131 4.3781 3.3547 2.67208 1.25593C2.08875 2.26218 1.75333 3.42884 1.75333 4.67134C1.75268 5.78988 2.02813 6.89128 2.55524 7.87783C3.08235 8.86438 3.84482 9.70556 4.775 10.3268C3.69623 10.2924 2.64127 10.0009 1.69791 9.47655V9.56405C1.6978 11.1328 2.24046 12.6534 3.23381 13.8676C4.22715 15.0818 5.61 15.915 7.14771 16.2257C6.14697 16.4966 5.09778 16.5364 4.07937 16.3424C4.51322 17.6922 5.35832 18.8726 6.49637 19.7183C7.63441 20.564 9.00842 21.0326 10.426 21.0586C8.01955 22.9478 5.04754 23.9725 1.98812 23.968C1.44618 23.9682 0.904691 23.9365 0.366455 23.8732C3.47194 25.8699 7.08695 26.9296 10.779 26.9255C23.2769 26.9255 30.1092 16.5743 30.1092 7.59676C30.1092 7.30509 30.1019 7.01051 30.0888 6.71884C31.4177 5.75776 32.5649 4.56765 33.4765 3.20426L33.4794 3.19988Z"/></svg>