<svg fill="none" height="42" viewBox="0 0 240 42" width="240" xmlns="http://www.w3.org/2000/svg" xmlns:xlink="http://www.w3.org/1999/xlink"><clipPath id="a"><path d="m0 .669403h240v40.512h-240z"/></clipPath><g clip-path="url(#a)" fill="#fff"><path d="m20.1581 41.1649v-7.8754c8.3497 0 14.7904-8.2324 11.5712-16.9437-.5857-1.617-1.5197-3.0854-2.7357-4.3014-1.2161-1.2161-2.6845-2.15001-4.3014-2.73577-1.8766-.70566-3.896-.9473-5.8862-.70436-1.9901.24295-3.892.96329-5.5438 2.09963-1.6518 1.1364-3.0044 2.6552-3.94277 4.427-.93833 1.7718-1.43454 3.7441-1.44638 5.749h-7.87305c0-13.12576 12.7641-23.5066 26.7186-19.20959 2.9988.94195 5.7255 2.59473 7.9479 4.81757 2.2225 2.22284 3.8747 4.94992 4.8161 7.94892 4.2946 13.9616-6.0838 26.7281-19.3245 26.7281z"/><path d="m20.2777 33.2895h-7.873v-7.7557h7.873zm-7.873 6.0862h-5.9641v-6.0862h5.9641zm-5.9641-6.0862h-5.00359v-5.0108h5.00359zm65.4874-20.8815c-2.2658-1.5521-5.2479-2.3952-8.5892-2.3952h-7.2742v23.2671h7.2766c3.3405 0 6.2036-.8351 8.5892-2.5054 1.303-.9479 2.3319-2.2239 2.9821-3.6982.7185-1.5521 1.073-3.4611 1.073-5.4898 0-2.0288-.3569-3.9377-1.073-5.3701-.7186-1.7796-1.6719-2.9724-2.9845-3.8084zm-11.5688 1.5521h2.2658c2.5054 0 4.6515.4791 6.321 1.5521 1.7892 1.0731 2.6347 3.1138 2.6347 6.0863 0 2.9724-.9581 5.1305-2.6347 6.3233-1.5497.9581-3.5785 1.5521-6.2036 1.5521h-2.3832zm20.7544-4.29457c-.3315-.00886-.6613.05034-.969.17392-.3077.12359-.5869.30895-.8202.54465-.2718.21-.4895.482-.6349.7932-.1454.3113-.2143.6528-.201.996 0 .6645.264 1.3017.7338 1.7716.4699.4698 1.1071.7338 1.7716.7338s1.3017-.264 1.7716-.7338c.4698-.4699.7338-1.1071.7338-1.7716.0087-.3315-.0506-.6612-.1741-.969-.1236-.3077-.3089-.5868-.5445-.8202-.3569-.47905-.9581-.71857-1.6766-.71857zm-2.1652 7.15927h4.1748v16.3473h-4.1581v-16.3473zm19.1018 1.4371c-1.1976-1.073-2.6348-1.7892-4.1749-1.7892-1.0513-.0231-2.0954.1786-3.0624.5917-.967.413-1.8347 1.028-2.5448 1.8035-1.4899 1.5782-2.3031 3.6767-2.2658 5.8467 0 2.2683.7185 4.2946 2.1557 5.8467 1.4371 1.5521 3.3389 2.2683 5.6071 2.2683 1.4597.0229 2.8858-.4387 4.0551-1.3126v.3569c0 1.3126-.3568 2.3952-1.073 3.1138-.7162.7185-1.6767 1.073-2.9821 1.073-1.9161 0-3.1018-.7185-4.5317-2.7449l-2.8742 2.7449.1197.1198c.5964.8359 1.5497 1.6766 2.7425 2.5054 1.1929.8287 2.7426 1.1976 4.5318 1.1976 2.5054 0 4.4143-.7186 5.8443-2.2683 1.4295-1.5497 2.2655-3.461 2.2655-5.9664v-14.824h-4.05v1.4371h.2396zm-1.0707 9.6647c-.7185.8359-1.6766 1.1976-2.8742 1.1976s-2.1557-.3569-2.8743-1.1976c-.7185-.8407-1.073-1.9162-1.073-3.2215 0-1.3054.3808-2.3929 1.0994-3.2288.7185-.8359 1.6766-1.1976 2.8742-1.1976s2.1557.3569 2.8743 1.1976c.7185.8407 1.073 1.9162 1.073 3.2216s-.3569 2.3952-1.073 3.2215zm8.7325-11.1042h4.175v16.3473h-4.201v-16.3449zm2.003-7.15687c-.331-.00821-.661.05097-.969.17397-.307.123-.587.3072-.821.5416-.234.2343-.419.5137-.542.8214s-.182.6372-.174.9684c0 .6645.264 1.3017.734 1.7716.47.4698 1.107.7338 1.772.7338.664 0 1.302-.264 1.771-.7338.47-.4699.734-1.1071.734-1.7716.008-.3314-.051-.6611-.174-.969-.123-.3078-.308-.5874-.542-.8217-.235-.2344-.514-.41857-.822-.54142s-.638-.18179-.97-.17325zm11.087 2.74247h-4.05v4.4168h-2.395v3.6982h2.395v6.8024c0 2.1557.479 3.6982 1.313 4.5341.833.836 2.395 1.3126 4.414 1.3126.678.0197 1.357-.0204 2.029-.1197h.239v-3.7006l-1.437.1197c-.958 0-1.677-.1197-1.916-.479-.357-.3569-.479-1.0731-.479-2.1557v-6.194h3.818v-3.7006h-3.806zm23.14-2.3952h4.175v23.2671h-4.17v-23.2527zm45.811 17.4348c-.61.7054-1.289 1.3474-2.029 1.9161-.649.3939-1.395.6004-2.155.5964-.56-.0048-1.112-.125-1.623-.3529s-.97-.5586-1.347-.9716c-.836-.9581-1.198-2.0288-1.198-3.4611s.357-2.5054 1.198-3.4611c.362-.4338.82-.7779 1.337-1.0056s1.08-.3328 1.645-.3069c1.312 0 2.742.8359 3.935 2.2682l2.743-2.6347c-1.79-2.2683-4.056-3.3413-6.8-3.3413-2.266 0-4.175.8359-5.845 2.5054-1.562 1.6382-2.422 3.8226-2.395 6.0862 0 2.3952.836 4.5341 2.395 6.0862.742.8068 1.647 1.4471 2.654 1.879 1.007.4318 2.095.6453 3.191.6264 2.982 0 5.367-1.3126 7.037-3.6982l-2.743-2.7449zm16.819-8.2467c-.627-.8269-1.45-1.4853-2.395-1.9162-1.082-.5014-2.266-.7473-3.459-.7186-2.265 0-4.174.836-5.607 2.5054-1.355 1.7353-2.072 3.8846-2.028 6.0862 0 2.5054.718 4.5342 2.265 6.0863 1.548 1.5521 3.459 2.3952 5.964 2.3952 2.743 0 5.011-1.0731 6.8-3.3413l.12-.1198-2.742-2.6347c-.24.3569-.597.5964-.958.9581-.339.3567-.746.6411-1.198.8359-.621.3399-1.322.5054-2.029.479-1.039.0151-2.052-.3227-2.874-.9581-.719-.5964-1.073-1.4371-1.198-2.5053h10.975v-1.5521c.027-1.0582-.135-2.1126-.479-3.1138-.174-.9251-.587-1.7887-1.197-2.5054zm-8.946 3.8275c.183-.7221.553-1.3832 1.073-1.9162.282-.281.619-.5003.99-.6442s.768-.2092 1.166-.1917c.958 0 1.789.2395 2.266.8359.479.4791.718 1.1976.836 1.9162zm24.812-4.8934c-1.197-1.0731-2.982-1.5521-5.128-1.5521-1.312.0372-2.606.3216-3.813.8383-1.073.5964-2.156 1.4371-2.743 2.6348l2.635 2.5053c1.073-1.7892 2.266-2.3952 3.935-2.3952.781-.0207 1.544.2337 2.156.7186.272.21.49.482.635.7932.145.3113.214.6528.201.996v.8359c-.961-.324-1.968-.4859-2.982-.479-2.028 0-3.698.479-5.011 1.4371-1.312.9581-1.916 2.3952-1.916 4.0575 0 1.5521.479 2.7449 1.55 3.6982 1.07.9533 2.395 1.3126 3.935 1.3126s2.982-.5964 4.414-1.6767v1.3126h4.056v-10.5006c0-1.9161-.597-3.4611-1.917-4.5341zm-7.269 8.8311c.479-.3569 1.073-.479 1.916-.479 1.059.0357 2.105.2369 3.102.5964v1.5521c-.988.8687-2.264 1.3369-3.579 1.3126-.718 0-1.312-.1198-1.676-.4791s-.597-.7185-.597-1.1976c.042-.2643.138-.5172.282-.7429.144-.2258.332-.4197.554-.5697zm25.042-8.5916c-1.198-1.3126-2.743-1.9162-4.772-1.9162-1.67 0-2.982.4791-3.935 1.4372v-.9581h-4.057v16.3473h4.174v-9.0635c0-1.1976.24-2.2682.836-2.982.292-.3485.66-.6261 1.075-.812.414-.1859.866-.2751 1.321-.2611.409-.0199.817.0564 1.191.2228.375.1664.705.4182.964.7353.56.7627.854 1.6886.836 2.6347v9.545h4.156v-9.5593c-.12-2.2675-.716-4.0575-1.789-5.3701zm-101.392-.2395c-1.198-1.0731-2.982-1.5521-5.128-1.5521-1.314.0358-2.609.3194-3.818.8359-1.073.5964-2.156 1.4372-2.743 2.6348l2.635 2.5053c1.073-1.7892 2.266-2.3952 3.935-2.3952.781-.0207 1.544.2337 2.156.7186.272.2101.49.482.635.7933.145.3112.214.6527.201.9959v.8359c-.96-.324-1.968-.4859-2.982-.479-2.028 0-3.698.479-5.011 1.4371-1.312.9581-1.916 2.3952-1.916 4.0575 0 1.5521.479 2.7449 1.55 3.6982 1.07.9533 2.395 1.3126 3.935 1.3126s2.982-.5964 4.415-1.6767v1.3126h4.055v-10.4982c0-1.9161-.719-3.4611-1.917-4.5341zm-7.394 8.8311c.479-.3569 1.073-.479 1.916-.479 1.059.0357 2.106.2369 3.102.5964v1.5521c-.987.8687-2.264 1.3369-3.578 1.3126-.719 0-1.313-.1198-1.677-.4791s-.597-.7185-.597-1.1976c.179-.4939.464-.9421.836-1.3126zm31.619 6.6755c-2.36.0009-4.668-.6981-6.631-2.0088-1.963-1.3106-3.493-3.1739-4.397-5.3543s-1.141-4.5798-.681-6.8949 1.596-4.4418 3.265-6.1111c1.668-1.6693 3.795-2.8063 6.11-3.2672 2.315-.46077 4.714-.22474 6.895.6783 2.181.903 4.045 2.4325 5.356 4.395 1.311 1.9624 2.011 4.2697 2.011 6.63-.011 3.1605-1.271 6.1884-3.506 8.4237-2.234 2.2352-5.261 3.4967-8.422 3.5093zm0-19.806c-1.534-.0024-3.035.4503-4.311 1.3009-1.277.8506-2.273 2.0607-2.862 3.4774s-.745 2.9762-.447 4.4813c.297 1.5051 1.034 2.8882 2.118 3.9742 1.084 1.0861 2.465 1.8263 3.97 2.1271 1.504.3007 3.064.1485 4.482-.4374s2.63-1.5792 3.484-2.8543c.853-1.275 1.309-2.7745 1.31-4.3087.002-1.0189-.197-2.0283-.586-2.9701s-.96-1.7975-1.68-2.5181-1.576-1.2918-2.518-1.681c-.941-.3891-1.95-.5884-2.969-.5865"/></g></svg>