<svg fill="none" height="53" viewBox="0 0 160 53" width="160" xmlns="http://www.w3.org/2000/svg" xmlns:xlink="http://www.w3.org/1999/xlink"><clipPath id="a"><path d="m0 .881958h160v51.9152h-160z" /></clipPath><g clip-path="url(#a)" fill="#15B04B"><path d="m26.9808.881958-1.8311 10.878542h-5.2238l-1.5617 9.9629h5.4392l-3.7159 23.6419 5.3315 7.4318h15.6177l6.1393-7.3241 1.0232-6.247h-10.2861l-.2692 1.9926-1.4541 1.2924h-4.3083l-1.1309-1.1847 3.1773-19.7644 10.1784-.0539 1.5618-9.7475-9.3706.0538 1.9926-10.932342z" fill="#fff" /><path d="m82.3426 11.8143 5.7085 7.001-1.831 11.0401-7.4318 6.0855-16.6409.1615-.754 4.9008 1.1848 1.4002 9.3168-.1078 1.831-1.454v-1.8849l10.9323.1077-1.0232 6.5702-6.4086 7.1626h-21.2723l-5.7624-7.3242 4.3083-26.2807 8.7782-7.3241zm-6.247 14.2713.9693-4.2006-.9693-1.1848h-9.586l-1.5618 1.2925-.9694 5.6547h11.0401z" fill="#fff"/><path fill="#fff" d="m113.793 52.7972h-21.4874l-5.7623-7.4319 4.416-26.4423 8.4551-7.1087h20.3566l4.955 7.1626-1.024 6.5702-11.363-.2693.162-2.3157-.754-1.2386-9.586-.2155-1.885 1.5618-2.962 18.5796 1.131 1.4002h9.478l1.67-1.4541.431-2.4234 11.255-.1077-.915 6.4625z"/><path d="m130.703.989624-8.724 51.807476h10.448l4.577-27.3578 3.339-2.208h6.894l1.561 2.8543-4.416 26.7115h10.125l5.493-33.8741-5.439-7.1087h-11.902l-3.877 3.1235 2.208-13.948176z" fill="#fff"/><path d="m8.67048 52.7971c4.78862 0 8.67052-3.8819 8.67052-8.6704 0-4.7886-3.8819-8.6705-8.67052-8.6705-4.78857 0-8.67048 3.8819-8.67048 8.6705 0 4.7885 3.88191 8.6704 8.67048 8.6704z" /></g></svg>