<svg fill="none" height="64" viewBox="0 0 184 64" width="184" xmlns="http://www.w3.org/2000/svg" xmlns:xlink="http://www.w3.org/1999/xlink"><clipPath id="a"><path d="m0 0h184v63.0819h-184z"/></clipPath><g clip-path="url(#a)" fill="#fff"><path d="m24.8901 27.1651 13.8636 6.3162 13.9706-12.2577c.2141-1.017.2944-2.0073.2944-3.0778 0-8.61792-7.0121-15.62999-15.6299-15.62999-5.1654 0-9.9561 2.54254-12.8734 6.79796l-2.3284 12.07043z"/><path d="m10.5449 41.8316c-.2141 1.017-.2944 2.0608-.2944 3.1313 0 8.6447 7.0388 15.6568 15.6835 15.6568 5.1921 0 10.0363-2.5693 12.9536-6.8515l2.3016-12.0169-3.0778-5.888-13.9171-6.343z"/><path d="m10.4645 17.8513 9.5011 2.2482 2.0876-10.78576c-1.2847-.99026-2.8905-1.52553-4.5499-1.52553-4.1216 0-7.4938 3.34549-7.4938 7.49379 0 .8832.1606 1.7664.455 2.5693z"/><path d="m9.63496 20.1262c-4.22865 1.3917-7.19941 5.4598-7.19941 9.9293 0 4.3625 2.70312 8.2432 6.74443 9.7955l13.32832-12.0436-2.4355-5.2189z"/><path d="m41.2964 53.7681c1.3114.9903 2.8905 1.5523 4.523 1.5523 4.1216 0 7.4939-3.3454 7.4939-7.4938 0-.91-.1606-1.7932-.455-2.5961l-9.4743-2.2213z"/><path d="m43.2232 40.5201 10.4378 2.4355c4.2554-1.3917 7.1994-5.4598 7.1994-9.956 0-4.3357-2.7031-8.2432-6.7444-9.7688l-13.6494 11.9634z"/><path d="m88.5342 44.2938 1.2579-.1338.0803 2.5693c-3.3187.455-6.1557.6959-8.5109.6959-3.1313 0-5.3527-.91-6.6641-2.7299s-1.9537-4.6569-1.9537-8.4841c0-7.6544 3.051-11.4816 9.1264-11.4816 2.944 0 5.1386.8297 6.5838 2.4623 1.4453 1.6325 2.1679 4.2286 2.1679 7.7347l-.1874 2.489h-14.3988c0 2.4087.4282 4.2019 1.3114 5.3527s2.382 1.7396 4.5498 1.7396c2.1946.0536 4.3893-.0267 6.6374-.2141zm-1.1776-9.4475c0-2.6764-.4282-4.5766-1.2846-5.6739-.8565-1.0973-2.2482-1.6594-4.1752-1.6594s-3.399.5888-4.3625 1.7397c-.9634 1.1508-1.472 3.0243-1.4987 5.5936z"/><path d="m95.1714 47.0237v-31.3134h3.2652v31.3134z"/><path d="m119.071 31.7952v10.7322c0 1.0973 2.704 1.3114 2.704 1.3114l-.161 2.8905c-2.302 0-4.202.1873-5.353-.91-2.623 1.1509-5.219 1.6326-7.841 1.6326-2.008 0-3.533-.562-4.577-1.7129-1.044-1.124-1.579-2.7566-1.579-4.8977 0-2.1143.535-3.6934 1.606-4.6836 1.07-.9903 2.756-1.6326 5.058-1.8467l6.852-.6424v-1.8734c0-1.472-.322-2.5426-.964-3.1849s-1.525-.9635-2.623-.9635h-8.591v-2.8905h8.377c2.462 0 4.256.5621 5.38 1.7129 1.15 1.1241 1.712 2.9173 1.712 5.326zm-13.435 8.8855c0 2.6764 1.097 4.0146 3.319 4.0146 1.98 0 3.934-.3212 5.834-.9903l.991-.3479v-7.1994l-6.45.6155c-1.312.1071-2.249.4818-2.837 1.1241-.589.6423-.857 1.579-.857 2.7834z"/><path d="m131.838 27.6736c-3.158 0-4.764 1.0973-4.764 3.3187 0 1.017.374 1.7396 1.097 2.1679.723.4282 2.382.8564 4.978 1.3114s4.416 1.0705 5.487 1.9002c1.07.8029 1.605 2.3284 1.605 4.5766 0 2.2481-.722 3.8807-2.167 4.9245-1.446 1.0438-3.533 1.579-6.317 1.579-1.793 0-7.815-.6691-7.815-.6691l.188-2.8369c3.452.3212 5.968.5888 7.654.5888s2.971-.2676 3.854-.8029 1.338-1.4452 1.338-2.7031-.374-2.1144-1.124-2.5693c-.749-.455-2.408-.8832-4.978-1.2847-2.569-.4014-4.389-.9902-5.46-1.7932-1.07-.7761-1.605-2.2481-1.605-4.3624 0-2.1144.749-3.6934 2.248-4.7104s3.372-1.5256 5.593-1.5256c1.767 0 7.922.455 7.922.455v2.8637c-3.238-.1873-5.888-.4282-7.734-.4282z"/><path d="m156.032 28.0483h-6.932v10.4378c0 2.489.188 4.1484.536 4.9245.374.7762 1.231 1.1776 2.596 1.1776l3.88-.2676.214 2.7031c-1.953.3212-3.425.4817-4.442.4817-2.275 0-3.827-.562-4.711-1.6593-.883-1.0973-1.311-3.2116-1.311-6.3162v-11.4816h-3.105v-2.8369h3.105v-6.691h3.238v6.6642h6.932z"/><path d="m160.582 20.2601v-3.7737h3.265v3.8004zm0 26.7636v-21.8124h3.265v21.8124z"/><path d="m178.032 24.7563c.963 0 2.596.1874 4.898.5353l1.043.1338-.134 2.6496c-2.328-.2676-4.041-.4014-5.138-.4014-2.462 0-4.149.5888-5.032 1.7664s-1.338 3.3722-1.338 6.5571c0 3.1848.402 5.4062 1.231 6.6641.83 1.2579 2.543 1.8735 5.166 1.8735l5.138-.4015.134 2.7031c-2.703.4015-4.737.6156-6.075.6156-3.399 0-5.754-.8832-7.039-2.6228-1.285-1.7397-1.954-4.6837-1.954-8.832 0-4.1484.696-7.0656 2.088-8.725 1.418-1.6593 3.747-2.5158 7.012-2.5158z"/></g></svg>