<svg fill="none" height="80" viewBox="0 0 200 80" width="200" xmlns="http://www.w3.org/2000/svg" xmlns:xlink="http://www.w3.org/1999/xlink"><clipPath id="a"><path d="m0 .60141h200v79.2079h-200z"/></clipPath><g clip-path="url(#a)" fill="#fff"><path d="m81.0226 24.6899 5.1919-1.2533v25.0644c0 2.775.8057 4.3863 2.4169 4.9234-.8056 1.5217-2.1483 2.3274-4.1177 2.3274-2.3274 0-3.5806-1.6113-3.5806-4.9234v-26.1385zm13.0693 30.6143v-18.0822h-2.8645v-4.2967h8.1459v22.3789zm2.6855-30.9724c.8056 0 1.5217.2685 2.1483.8952.6266.6266.8952 1.3427.8952 2.1483 0 .8057-.2686 1.5218-.8952 2.1484s-1.3427.8952-2.1483.8952c-.8057 0-1.5218-.2686-2.1484-.8952s-.8952-1.3427-.8952-2.1484c0-.8056.2686-1.5217.8952-2.1483.6266-.6267 1.3427-.8952 2.1484-.8952zm23.0056 30.9724v-12.8903c0-1.8798-.358-3.312-1.074-4.1177-.716-.8951-1.88-1.3427-3.581-1.3427-.806 0-1.611.179-2.417.6266-.895.4476-1.522.9847-2.059 1.6113v16.1128h-5.192v-22.2894h3.76l.985 2.0589c1.432-1.7008 3.491-2.5065 6.266-2.5065 2.685 0 4.744.8057 6.266 2.417 1.522 1.6112 2.327 3.8491 2.327 6.6241v13.6959zm9.309-11.1895c0-3.4015.985-6.1765 2.954-8.3249 1.97-2.1484 4.566-3.2226 7.788-3.2226 3.402 0 5.998.9847 7.878 3.0436 1.88 2.0588 2.775 4.8338 2.775 8.4144 0 3.5807-.985 6.3556-2.865 8.504-1.88 2.0589-4.476 3.1331-7.877 3.1331-3.402 0-5.998-1.0742-7.878-3.1331-1.79-2.1484-2.775-4.9233-2.775-8.4145zm5.461 0c0 4.9234 1.79 7.3403 5.281 7.3403 1.612 0 2.865-.6266 3.849-1.8798.985-1.2532 1.433-3.133 1.433-5.4605 0-4.8338-1.791-7.2507-5.282-7.2507-1.611 0-2.954.6266-3.849 1.8798-.985 1.2532-1.432 3.0435-1.432 5.3709zm34.463 11.1895v-1.3427c-.447.4475-1.163.8951-2.148 1.2532-.985.358-2.059.5371-3.223.5371-3.133 0-5.55-.9847-7.34-2.954-1.79-1.9694-2.685-4.7444-2.685-8.2355s.984-6.3556 3.043-8.5935 4.566-3.312 7.699-3.312c1.7 0 3.222.358 4.654 1.0741v-8.9515l5.192-1.2532v31.778zm0-17.008c-1.074-.8951-2.238-1.3427-3.491-1.3427-2.059 0-3.67.6266-4.834 1.8798-1.163 1.2532-1.7 3.1331-1.7 5.4605 0 4.6548 2.238 6.9822 6.713 6.9822.537 0 1.074-.179 1.88-.4476.716-.2685 1.164-.6266 1.432-.8951zm30.346 7.4298h-15.934c.09 1.7903.716 3.1331 1.791 4.1177 1.163.9847 2.596 1.5218 4.565 1.5218 2.327 0 4.207-.6266 5.371-1.8798l2.059 3.9387c-1.791 1.5217-4.566 2.2379-8.236 2.2379-3.401 0-6.087-.9847-8.056-2.9541-1.969-1.9693-2.954-4.7443-2.954-8.3249 0-3.4911 1.074-6.3556 3.222-8.504 2.149-2.1484 4.745-3.2225 7.788-3.2225 3.223 0 5.819.9846 7.788 2.8645 1.97 1.9693 2.954 4.3862 2.954 7.3402.09.6266-.089 1.5218-.358 2.8645zm-15.755-3.9387h10.921c-.358-3.2225-2.148-4.9233-5.371-4.9233-2.954.0895-4.833 1.7008-5.55 4.9233z"/><path d="m56.0477 41.9095-.8951 10.2943-2.954-2.0588.358-5.1919v-.0896-.0895l-.0895-.0895-.0895-.0895-6.3556-4.2072.0895-4.5653zm-15.5757 11.1895-4.5652-3.4911v.8056c0 .179-.0896.3581-.1791.4476l-3.4016 2.3274 3.7597 3.0435.0895.0895v.1791l.179 3.5806 4.2073 3.4911zm-28.7344 4.4757 2.1483 10.2943 8.8621 9.3992-1.5218-10.3838zm8.3249 1.5218-2.1484-14.412-10.74183-8.9515 2.86453 13.9644zm-3.4016-23.274-2.954-20.4096-12.35314-7.6983 4.0282 19.2458z" opacity=".6"/><path d="m64.8202 36.3596-1.3427 9.7572-7.3403 5.908.8952-10.0257zm-23.3635 16.7394.0895 10.5628 9.3992-7.5193.6266-10.2942zm-6.087 4.2967-13.2483 9.4887 1.6113 10.9209 11.995-9.5782zm-.3581-7.1612-.6266-14.3225-15.4862 8.8621 2.1484 14.8595zm-.9847-22.6474-.8056-19.33536-18.6192 7.16126 3.0435 20.7676z" opacity=".4"/><path d="m65.8945 35.2854c0-.0895 0-.0895 0 0v-.179s0-.0895-.0895-.0895c0 0-.0895 0-.0895-.0895l-10.7419-5.9976c-.179-.0895-.3581-.0895-.4476 0l-9.1306 5.55h-.0895v.5371l-.0895 4.8338-3.6701-2.4169c-.1791-.0895-.3581-.0895-.5371 0l-5.4605 3.0435-.2685-5.3709v-.0895-.0895-.0896-.0895-.0895h-.0895l-5.55-3.6701 5.1919-2.6855c.179-.0895.2686-.2685.2686-.4476l-.9847-20.32v-.08951s0-.08952-.0895-.08952c0 0 0-.08951-.0895-.08951l-14.054-6.803185c-.0895-.089516-.179-.089516-.2685-.089516l-19.066828 5.908021s-.089516 0-.089516.08952c0 0-.089515 0-.089515.08952v.53709l4.207229 20.49909c0 .0895.08952.179.17903.2685l5.729 4.4758-4.20724 1.9693s-.08951 0-.08951.0895c0 0 0 .0896-.08952.0896v.179l3.22256 15.3967c0 .0895.08952.179.17903.2685l4.02818 3.7597-2.6854 1.6112-.0896.0896s0 .0895-.0895.0895v.2685l2.5065 11.9056c0 .0895.0895.179.0895.2685l9.7572 10.7419h.0895s.0895 0 .0895.0895h.4476l12.8902-10.2943c.0895-.0895.179-.2685.179-.358l-.2685-7.0718 4.2967 3.5807s.0896 0 .0896.0895h.4475l10.3838-8.2355c.0895-.0895.1791-.179.1791-.358l.358-5.1919 3.1331 2.1484h.358s.0895 0 .0895-.0896l8.4145-6.7136c.0895-.0895.179-.1791.179-.2686l1.5218-11.0104c0 .0895 0 .0895 0 0zm-9.7572 16.7394.8952-10.0257 7.8773-5.6395-1.3427 9.7572zm-3.9387-1.8798.3581-5.1919v-.0895-.0895l-.0895-.0896-.0895-.0895-6.3556-4.2072.0895-4.5653 9.9362 6.1766-.8952 10.2943zm-1.3427 5.9975-9.3991 7.5193-.0896-10.5628 10.1153-7.2508zm-15.0386 12.0846-12.0846 9.5782-1.6113-10.9209 13.1588-9.3991zm-22.0208-.358-2.1484-10.2943 9.5782 9.3096 1.5217 10.3838zm-.1791-52.4561 2.954 20.4095-11.18939-8.862-4.0282-19.24587zm19.6039-7.16127.8057 19.33537-16.3814 8.5935-3.0435-20.7676zm1.7903 41.98277-13.9644 9.3096-2.1483-14.8596 15.4861-8.862zm-17.0974-5.4604 2.1484 14.412-10.0258-9.4887-2.86448-13.9644zm18.3507 11.7265v-.0895-.0895l-.0896-.0895-3.7596-3.0436 3.4016-2.3274c.179-.0895.179-.2685.179-.4476v-.8056l4.5653 3.4911.0895 10.5628-4.2072-3.4911z"/></g></svg>