<svg xmlns="http://www.w3.org/2000/svg" width="109" height="21" fill="none" viewBox="0 0 109 21"><path fill="#FF2400" fill-rule="evenodd" d="M6.62544 10.9617C6.72448 11.9203 7.17536 12.8081 7.89092 13.4535C8.60648 14.0989 9.53592 14.4562 10.4996 14.4562C11.4632 14.4562 12.3927 14.0989 13.1082 13.4535C13.8238 12.8081 14.2747 11.9203 14.3737 10.9617C14.3868 10.8307 14.3933 10.6979 14.3933 10.5634C14.3977 10.0493 14.3003 9.53939 14.1065 9.06312C13.9128 8.58685 13.6267 8.15366 13.2647 7.78854C12.9027 7.42343 12.472 7.13363 11.9974 6.93585C11.5228 6.73808 11.0137 6.63625 10.4996 6.63625C9.98542 6.63625 9.47635 6.73808 9.00175 6.93585C8.52716 7.13363 8.09643 7.42343 7.73442 7.78854C7.37242 8.15366 7.0863 8.58685 6.89259 9.06312C6.69889 9.53939 6.60142 10.0493 6.60581 10.5634C6.60581 10.6974 6.61235 10.8306 6.62544 10.9617ZM3.85501e-09 10.5003C-5.62581e-05 8.42355 0.615725 6.39343 1.76947 4.66666C2.92322 2.9399 4.5631 1.59404 6.48176 0.799297C8.40041 0.00454992 10.5116 -0.203393 12.5485 0.201766C14.5853 0.606925 16.4563 1.60699 17.9247 3.07548C19.3932 4.54398 20.3932 6.41495 20.7983 8.4518C21.2034 10.4886 20.9954 12.5999 20.2006 14.5185C19.4058 16.4371 18.0599 18.077 16.3331 19.2307C14.6063 20.3844 12.5762 21.0001 10.4994 21C9.1206 21 7.75527 20.7284 6.48141 20.2008C5.20754 19.6731 4.05008 18.8997 3.07511 17.9247C2.10015 16.9497 1.32677 15.7922 0.79914 14.5183C0.271511 13.2444 -3.73547e-05 11.8791 3.85501e-09 10.5003Z" clip-rule="evenodd"/><path fill="#fff" d="M34.0049 10.4292C34.0049 13.6224 31.7886 15.0141 29.6968 15.0141C27.3556 15.0141 25.55 13.3018 25.55 10.572C25.55 7.68174 27.4443 5.98712 29.8396 5.98712C32.3247 5.98712 34.0049 7.78871 34.0049 10.4292ZM27.1407 10.5182C27.1407 12.4097 28.2315 13.8369 29.7686 13.8369C31.2701 13.8369 32.3962 12.4274 32.3962 10.483C32.3962 9.01963 31.6629 7.16428 29.804 7.16428C27.945 7.16428 27.1407 8.87739 27.1407 10.5182Z"/><path fill="#fff" d="M43.2295 12.4631C43.2295 13.355 43.2471 14.1415 43.301 14.818H41.907L41.8177 13.4087H41.7815C41.4901 13.9051 41.0717 14.3154 40.5693 14.5975C40.0668 14.8796 39.4983 15.0234 38.9219 15.0143C37.5629 15.0143 35.9366 14.2653 35.9366 11.2308V6.18333H37.5096V10.9645C37.5096 12.6059 38.0104 13.7117 39.4404 13.7117C39.8885 13.7042 40.3243 13.5647 40.6933 13.3108C41.0622 13.0568 41.3478 12.6998 41.5142 12.2845C41.609 12.0275 41.6572 11.7558 41.6567 11.482V6.18333H43.2295V12.4631Z"/><path fill="#fff" d="M51.2958 13.2125C51.9185 13.6017 52.6342 13.8178 53.3687 13.8383C54.5128 13.8383 55.0504 13.2677 55.0504 12.5539C55.0504 11.8043 54.6035 11.3938 53.4417 10.9657C51.8863 10.4127 51.1535 9.5561 51.1535 8.52175C51.1535 7.1301 52.28 5.98821 54.1389 5.98821C54.8823 5.98099 55.6149 6.1654 56.266 6.52359L55.873 7.66548C55.341 7.338 54.7282 7.16492 54.1033 7.16566C53.1735 7.16566 52.655 7.70075 52.655 8.34338C52.655 9.05713 53.1735 9.37774 54.2999 9.80616C55.8014 10.3774 56.5696 11.1261 56.5696 12.4111C56.5696 13.9274 55.3898 15.016 53.3345 15.016C52.4852 15.0263 51.6477 14.8171 50.9033 14.4087L51.2958 13.2125Z"/><path fill="#fff" d="M66.6694 13.2125C67.2925 13.6016 68.0084 13.8177 68.7432 13.8383C69.8867 13.8383 70.4248 13.2677 70.4248 12.5539C70.4248 11.8043 69.9779 11.3938 68.8162 10.9657C67.2608 10.4127 66.5283 9.55611 66.5283 8.52175C66.5283 7.1301 67.6539 5.98821 69.5128 5.98821C70.2562 5.98095 70.9889 6.16536 71.6399 6.5236L71.2469 7.66548C70.715 7.33805 70.1023 7.16497 69.4774 7.16566C68.5474 7.16566 68.0289 7.70076 68.0289 8.34339C68.0289 9.05714 68.5474 9.37774 69.6738 9.80616C71.1753 10.3774 71.944 11.1261 71.944 12.4111C71.944 13.9274 70.764 15.0161 68.7084 15.0161C67.8593 15.0262 67.022 14.8169 66.2778 14.4087L66.6694 13.2125Z"/><path fill="#fff" d="M88.3838 8.52028C88.3838 7.62817 88.3662 6.89621 88.3129 6.18331H89.6884L89.7599 7.5744H89.8132C90.0727 7.08317 90.4647 6.67416 90.9448 6.3936C91.425 6.11304 91.9742 5.97211 92.5304 5.98674C93.0692 5.98091 93.5961 6.14511 94.0359 6.45593C94.4757 6.76674 94.8058 7.20827 94.9793 7.71749H95.0149C95.2542 7.27939 95.5831 6.89637 95.9803 6.59324C96.5275 6.17464 97.2041 5.9601 97.8931 5.98674C99.0371 5.98674 100.735 6.73634 100.735 9.73357V14.8183H99.1979V9.92958C99.1979 8.27023 98.5902 7.27143 97.3213 7.27143C96.9018 7.28912 96.498 7.43572 96.1652 7.69119C95.8323 7.94666 95.5867 8.29852 95.4618 8.69865C95.3802 8.95245 95.3381 9.21725 95.337 9.4838V14.8183H93.7998V9.64425C93.7998 8.27023 93.1922 7.27143 91.9942 7.27143C91.0112 7.27143 90.2961 8.05659 90.0458 8.84146C89.9579 9.08782 89.9156 9.34808 89.921 9.60954V14.8183H88.3833L88.3838 8.52028Z"/><path fill="#fff" d="M103.056 13.2125C103.679 13.6017 104.395 13.8178 105.13 13.8384C106.273 13.8384 106.811 13.2677 106.811 12.554C106.811 11.8044 106.364 11.3939 105.203 10.9657C103.646 10.4113 102.913 9.55473 102.913 8.52038C102.913 7.12872 104.039 5.98684 105.898 5.98684C106.642 5.97962 107.374 6.16402 108.025 6.52222L107.632 7.66411C107.1 7.33662 106.488 7.16354 105.863 7.16428C104.933 7.16428 104.414 7.69938 104.414 8.34201C104.414 9.05576 104.933 9.37636 106.059 9.80478C107.559 10.376 108.329 11.1262 108.329 12.4097C108.329 13.926 107.149 15.0147 105.094 15.0147C104.245 15.0248 103.407 14.8156 102.663 14.4073L103.056 13.2125Z"/><path fill="#fff" d="M63.8746 6.29001L62.1582 11.2399C61.9442 11.8657 61.7655 12.6816 61.6044 12.9274H61.5688C61.4263 12.6816 61.2114 11.8464 61.0141 11.2774L59.1199 6.29001H57.4035L60.6037 14.1936C60.6595 14.315 60.6956 14.4446 60.7106 14.5773C60.691 14.7044 60.6487 14.827 60.5858 14.9392C60.2871 15.6149 59.8339 16.2113 59.2624 16.6805C58.8569 17.0206 58.3897 17.2798 57.8863 17.444L58.3138 18.7563C59.0214 18.5849 59.6738 18.2369 60.2098 17.745C61.2826 16.8176 62.0511 15.354 63.1772 12.392L65.5369 6.29001H63.8746Z"/><path fill="#fff" d="M86.3822 10.7156C86.424 10.4845 86.442 10.2498 86.4361 10.015C86.4361 8.42334 85.6831 5.95352 82.8522 5.95352C80.3255 5.95352 78.7846 8.01881 78.7846 10.6297C78.7846 13.2406 80.3808 15.0152 83.0492 15.0152C84.0353 15.0237 85.0107 14.8113 85.9037 14.3936L85.5109 13.1988C84.1913 13.7345 83.2056 13.8415 82.4691 13.7018C82.169 13.6397 81.8805 13.5311 81.6141 13.3798C80.4478 12.6663 80.3069 11.1296 80.2907 10.8081C80.2907 10.7873 80.2887 10.7145 80.2887 10.7145L86.3822 10.7156ZM82.7265 7.17449C84.5008 7.17449 84.9306 8.74793 84.9129 9.73164H80.3078C80.4332 8.74793 81.1318 7.17449 82.7265 7.17449Z"/><path fill="#fff" d="M49.3553 13.2284C49.068 13.44 48.7307 13.5739 48.3763 13.6173C47.8316 13.6088 47.4562 13.2324 47.4562 12.1778V7.27263H49.6734V6.29005H47.4562V3.12042L45.7316 4.29246V12.0871C45.7316 13.1044 45.9858 13.871 46.4327 14.3344C46.6865 14.6004 47.0071 14.7936 47.361 14.894C47.7644 15.0166 48.1919 15.0376 48.6053 14.9552C49.0188 14.8728 49.4054 14.6895 49.7307 14.4218L49.3553 13.2284Z"/><path fill="#fff" d="M77.4498 13.2284C77.1606 13.4398 76.822 13.5737 76.4662 13.6173C75.9221 13.6088 75.5421 13.2324 75.5421 12.1778V7.27263H77.7599V6.29005H75.5421V3.12042L73.818 4.29246V12.0871C73.818 13.1044 74.0763 13.871 74.5232 14.3345C74.7776 14.6006 75.0988 14.7938 75.4535 14.894C75.8569 15.0165 76.2845 15.0375 76.6981 14.9551C77.1116 14.8728 77.4983 14.6895 77.8237 14.4218L77.4498 13.2284Z"/></svg>