<svg fill="none" height="38" viewBox="0 0 208 38" width="208" xmlns="http://www.w3.org/2000/svg" xmlns:xlink="http://www.w3.org/1999/xlink"><clipPath id="a"><path d="m0 .684174h208v36.5248h-208z"/></clipPath><g clip-path="url(#a)" fill="#fff"><path d="m42.8359 31.7889 5.2447-4.1107c1.4742 2.5514 3.8272 4.0256 6.5204 4.0256 2.92 0 4.4792-1.8994 4.4792-3.9689 0-2.4664-3.0051-3.2602-6.2085-4.2524-4.0257-1.2474-8.5332-2.8066-8.5332-8.5616 0-4.8194 4.1957-8.64655 10.0073-8.64655 4.9045 0 7.7111 1.84272 10.1491 4.36585l-4.7343 3.572c-1.2474-1.8427-3.0051-2.8349-5.3581-2.8349-2.6648 0-4.1107 1.4458-4.1107 3.3452 0 2.2963 2.8917 3.0901 6.0952 4.1674 4.0823 1.3324 8.7033 3.1184 8.7033 8.9017 0 4.791-3.7989 9.3837-10.4326 9.3837-5.4715.0283-9.1002-2.2963-11.8218-5.3864zm46.0963-15.6206h5.6132v2.2963c1.3324-1.7009 3.3452-2.7215 5.6986-2.7215 4.847 0 7.796 3.1184 7.796 8.4481v12.5588h-5.727v-11.7934c0-2.7499-1.276-4.3658-3.7987-4.3658-2.1545 0-3.9122 1.4742-3.9122 4.9328v11.2548h-5.6416v-20.6101zm20.3828 10.3192c0-7.2858 5.359-10.7161 10.008-10.7161 2.665 0 4.791.9923 6.152 2.4381v-11.50991h5.641v30.07881h-5.641v-2.2963c-1.361 1.6159-3.544 2.7215-6.209 2.7215-4.366 0-9.951-3.487-9.951-10.7161zm16.33-.0567c0-3.0617-2.211-5.5281-5.273-5.5281-3.119 0-5.528 2.353-5.528 5.5281 0 3.1752 2.381 5.5565 5.528 5.5565 3.033 0 5.273-2.4947 5.273-5.5565zm6.804-4.6776c0-8.5616 6.463-15.4505 15.365-15.4505 4.451 0 8.193 1.61592 10.915 4.1674 1.105 1.0489 2.041 2.2396 2.778 3.5437l-5.018 3.0617c-1.843-3.4303-4.706-5.188-8.618-5.188-5.472 0-9.724 4.4793-9.724 9.894 0 5.5282 4.167 9.894 9.922 9.894 4.366 0 7.456-2.4664 8.533-6.2936h-9.44v-5.5282h15.621v2.2963c0 8.0796-5.755 15.0253-14.714 15.0253-9.412.0283-15.62-7.1158-15.62-15.4221zm31.751-5.5849h5.613v3.3736c1.021-2.1546 2.892-3.3736 5.698-3.3736h2.268l-2.069 5.4998h-1.531c-3.005 0-4.337 1.5592-4.337 5.3864v9.7239h-5.642zm15.025 0h5.642v20.6101h-5.642v-15.1103h-2.041zm2.835-3.1184c1.871 0 3.374-1.5025 3.374-3.37361 0-1.87107-1.503-3.37359-3.374-3.37359s-3.373 1.50252-3.373 3.37359c0 1.84271 1.502 3.37361 3.373 3.37361zm4.139 13.4376c0-7.2858 5.358-10.7161 10.008-10.7161 2.664 0 4.791.9923 6.151 2.4381v-11.50991h5.642v30.07881h-5.642v-2.2963c-1.36 1.6159-3.543 2.7215-6.208 2.7215-4.394 0-9.951-3.487-9.951-10.7161zm16.33-.0567c0-3.0617-2.212-5.5281-5.273-5.5281-3.119 0-5.529 2.353-5.529 5.5281 0 3.1752 2.382 5.5565 5.529 5.5565 3.033 0 5.273-2.4947 5.273-5.5565zm-114.9292 0c0-5.925-4.3375-10.6594-10.6311-10.6594-5.925 0-10.7161 4.7911-10.7161 10.7161 0 5.9251 4.4509 10.7161 10.8862 10.7161 4.4509 0 7.6544-2.1545 9.4404-5.2163l-4.4792-2.6648c-.9356 1.8143-2.7783 2.9483-4.9328 2.9483-2.9767 0-4.8195-1.4742-5.4715-3.7421h15.9041zm-15.6489-2.4664c.8788-1.9277 2.6648-3.2602 5.0745-3.2602 2.3814 0 4.1674 1.1057 4.9045 3.2602z"/><path d="m12.0297 12.9633h-12.0297v24.0593h24.0593v-24.0593z"/><path d="m12.0298.933777v24.059123h24.0591v-24.059123z"/><path d="m0 37.0226h12.0296v-12.0296h-12.0296zm24.0593-24.0593h12.0295v-12.029523h-12.0295z"/><path d="m12.0298 24.9931h12.0295v-12.0296h-12.0295z"/></g></svg>