<svg fill="none" height="35" viewBox="0 0 240 35" width="240" xmlns="http://www.w3.org/2000/svg" xmlns:xlink="http://www.w3.org/1999/xlink"><clipPath id="a"><path d="m0 .932739h240v33.2164h-240z"/></clipPath><g clip-path="url(#a)" fill="#fff"><path d="m47.9533 31.8568c-3.3684 0-6.4562-.3743-9.1696-3.0878l3.5088-3.5087c1.7777 1.7777 4.0701 2.0117 5.7543 2.0117 1.8714 0 3.7895-.6082 3.7895-2.2457 0-1.076-.5614-1.8245-2.2924-1.9649l-3.3684-.3275c-3.883-.3742-6.269-2.0584-6.269-6.0351 0-4.4444 3.9298-6.87714 8.3275-6.87714 3.3684 0 6.1754.56144 8.2339 2.52634l-3.3216 3.3684c-1.2632-1.1228-3.1345-1.4503-5.0059-1.4503-2.152 0-3.0409.9825-3.0409 2.0585 0 .7953.3275 1.6842 2.2456 1.8713l3.3684.3275c4.2573.4211 6.4094 2.6667 6.4094 6.3158 0 4.7719-4.0702 7.0176-9.1696 7.0176z"/><path d="m66.4795 31.6228c-4.3977 0-6.2223-3.0877-6.2223-6.1754v-10.6667h-2.2924v-4.0702h2.2924v-6.36254h5.3802v6.36254h3.7894v4.0702h-3.7894v10.3392c0 1.2164.5614 1.9649 1.8713 1.9649h1.9649v4.538z"/><path d="m71.8127 6.40645v-4.39766h5.5205v4.39766zm.0936 25.21635v-21.5204h5.3801v21.5204z"/><path d="m89.4035 31.8568c-4.304 0-9.6374-2.2924-9.6374-11.041 0-8.7017 5.3334-10.99414 9.6374-10.99414 2.9942 0 5.193.88884 7.1111 2.90054l-3.6491 3.6492c-1.1228-1.2164-2.0584-1.6842-3.462-1.6842-1.2631 0-2.2924.4678-3.0409 1.4035-.8421 1.0292-1.2164 2.4795-1.2164 4.7719s.3743 3.7427 1.2164 4.8187c.7953.9357 1.7778 1.4035 3.0409 1.4035 1.4036 0 2.3392-.5146 3.462-1.6842l3.6491 3.6023c-1.9181 1.9182-4.1169 2.8539-7.1111 2.8539z"/><path d="m111.345 31.6228-5.286-8.9825-2.293 2.5731v6.4094h-5.38v-29.42694h5.38v16.70174l7.158-8.7953h6.503l-7.673 8.7017 8.281 12.8655h-6.69z"/><path d="m122.48 22.5c0 2.7602 1.684 4.7719 4.725 4.7719 2.339 0 3.509-.655 4.865-2.0117l3.275 3.1813c-2.199 2.1988-4.304 3.3684-8.187 3.3684-5.099 0-9.965-2.2924-9.965-11.0409 0-7.0176 3.79-10.99416 9.404-10.99416 5.988 0 9.403 4.39766 9.403 10.29236v2.386h-13.52zm7.719-5.9883c-.561-1.2632-1.778-2.2456-3.602-2.2456-1.825 0-3.041.9356-3.603 2.2456-.327.7953-.468 1.3567-.514 2.2924h8.187c-.047-.9357-.141-1.4971-.468-2.2924z"/><path d="m150.222 15.9503c-.842-.8421-1.544-1.2632-2.854-1.2632-1.637 0-3.462 1.2632-3.462 3.9766v12.9591h-5.38v-21.5205h5.24v2.0585c1.029-1.2632 3.088-2.29239 5.427-2.29239 2.105 0 3.602.51459 5.099 2.01169z"/><path clip-rule="evenodd" d="m22.2222 34.0088c-.3275.1403-.7485.0936-1.1696.1403-.3742 0-.8889 0-1.1228-.1871-.1403-.0936-.1403-.3275-.1403-.4678 0-.1404.0468-.3743.0468-.5147.0467-.1871.0935-.4678 0-.6081-.0936-.1404-.4211-.0936-.6082-.1872-.1872-.0935-.2339-.3742-.2807-.6549 0-.0936-.0936-.1872-.0936-.234-.0468-.421.0936-1.0292.1871-1.4503.0936-.4678.234-.8888.3275-1.3567.1404-.655.1404-1.4035.0936-2.1052 0-.3743-.0936-.655 0-.9357.0468-.2807.1871-.5146.2339-.7953 0-.0936 0-.1872 0-.2807 0-.0936.0468-.1404.0468-.234 0-.1871-.0468-.421-.0468-.6549-.0468-.6082 0-1.4971.0468-2.0117 0-.1872.0936-.3743-.0468-.4679-.655 0-1.2164.0936-1.8246.1872-1.5906.1871-3.6491.2339-5.1929-.0936-.1404-.0468-.2807-.0468-.4211-.0468-1.1228-.2339-2.1052-.7485-2.90057-1.3567-.14035-.0936-.2807-.1871-.42105-.3275-.14036-.0936-.28071-.2339-.42106-.3275-.60818-.2807-1.45029.0468-1.73099.4679-.09357.1403-.18713.3742-.2807.5614-.09357.1871-.18714.3742-.23392.5614-.42105.9356-.88889 1.8713-1.30994 2.807-.23392.5614-.51462 1.1696-.70176 1.7778-.37427 1.3099-.04678 3.0409.2807 4.3041.04679.0935.09357.2339.14036.3742.09356.2807.2807.7018.51462.8889.14035.0936.32748.1872.46783.2807.18714.1404.2807.4211.42105.7018.04679.0935.14036.2339.18714.3742.14035.2807.23392.5147-.09357.7018-.23392.1403-.60819.1404-.93567.1871-.14035.0468-.09357.234-.18713.3275-.04679.0468-.28071.1404-.37427.1872-.42106.1403-1.16959.1403-1.49708 0-.18713-.0468-.37427-.1872-.42105-.3275-.09357-.2807.14035-.6082-.04678-.7954-.09357-.0935-.28071-.0935-.42106-.1403-.23392-.0936-.42105-.3275-.5614-.5614-.23392-.655-.09357-1.6374-.14035-2.4328 0-.2339-.04679-.4678-.04679-.7485 0-.4678-.14035-.9357-.18713-1.4035-.04678-.2339-.09357-.4211-.14035-.6082-.09357-.3275-.14035-.7017-.233921-1.0292-.093567-.3743-.093567-.7486 0-1.0293.046781-.0935.140351-.1871.187131-.2807.09357-.1871.09357-.3742.09357-.5614-.04678-.0935-.2807 0-.327484-.0935-.140351-1.0293-.280703-2.0117-.37427-3.0878-.046784-.3742-.046783-.7017-.046783-1.076-.046784-.7017.000001-1.4503-.093566-2.152-.046784-.3275-.093569-.655-.140353-.9825-.14035-.9357-.3742693-2.1053-.1871348-3.0877.1403508-.6082.3274858-1.1228.7017548-1.5907.233916-.3274.514626-.6081.795326-.9356.2807-.2807.60818-.5614.93567-.79534.23392-.14036.46784-.32749.70175-.46784.51462-.23392 1.21638-.46784 1.96492-.51462.74853-.04678 1.59064-.04678 2.29239.09357.70176.14035 1.40351.23392 2.10527.37427.65495.14035 1.30995.32748 1.96495.46783.0935 0 .1403.09357.2339.09357.1871.04678.421.04678.6549.14036.6082.1403 1.3568.2339 2.1053.2339.7953 0 1.4971 0 2.1521-.1871.0935-.0468.1871-.09359.2807-.09359.0935-.04678.2339-.04679.3274-.04679.0468 0 .1404-.09356.1872-.14035.3742-.18713.7017-.37427 1.0292-.60818.2807-.18714.4679-.32749.8421-.46784.1404-.04679.3275-.14035.4679-.18714.3274-.09356.7017-.18713.9356-.37426.4211-.23392.7018-.60819 1.0293-.93568.3275-.2807.7017-.60818 1.076-.88889.7485-.60818 1.4971-1.1228 2.1988-1.68421.3743-.2807.7486-.5614 1.1696-.79532.7953-.46784 1.6374-.98245 2.807-1.07602.4679-.04678.9357-.04678 1.4035 0 .1404 0 .2807.09357.4211.04678.1403-.04678.2339-.23392.2807-.37427.1871-.32748.2807-.51461.4678-.88888.0936-.23392.0468-.46784.2807-.46784.234 0 .1872.60819.1872.8421 0 .2807-.0468.65498 0 .84211.0468.14035.2339.32748.421.32748.1404 0 .2339-.09356.3275-.18713.1404-.09357.2339-.09357.3275-.18713.1871-.14035.421-.37427.6082-.56141.1403-.14035.421-.5614.655-.51462.4678.04679 0 .74854-.0936.93567-.2339.51462-.4679.93568-.7486 1.40351-.0935.18714-.3742.46784-.3742.70176 0 .14035.1403.23392.1871.42105.0468.09357.0468.14035.0936.23392.1403.37427.2807.88889.421 1.30994.0936.37427.1872.74854.3275 1.07602.1404.32749.3275.65497.4679 1.02924.0467.09357.0467.18714.0935.28071.2807.74853.5614 1.59066.9357 2.33916.1403.2807.3275.655.3275 1.076 0 .4679-.2339.7018-.4679 1.0761-.0935.1871-.2807.4678-.4678.5146-.1403.0468-.2807 0-.421 0-.1872.0468-.3275.1403-.4679.1403-.421.0468-.8421-.2807-.9357-.6082-.0467-.0935 0-.2339-.0467-.3742-.0936-.5146-.3743-.7486-.7018-1.1228-.2339-.2339-.421-.3743-.7017-.5147-.4211-.2339-.8422-.3274-1.31-.5614-.1403-.0935-.3743-.1871-.5146-.1403-.2339.0468-.4678.421-.655.655-1.1228 1.497-2.152 3.0409-3.2281 4.4912-.7485.9824-1.497 1.9649-2.1052 3.0409-.1404.2807-.2339.6082-.3743.9357-.0935.3275-.1871.655-.2807 1.0292-.421 1.2164-.5614 2.7135-.9357 3.9766-.0467.1404-.0467.2808-.0935.4211-.1872.655-.3743 1.4035-.5614 2.1053-.1404.5146-.1872 1.2163-.2339 1.8713 0 .655-.0468 1.5439.1871 1.9181.1403.234.5614.2807.7017.5147.0936.1403.1872.4678.3275.6549.0936.1404.3275.4211.2807.655 0 .1404-.1403.2807-.2807.3275-.1403.0468-.3275.0468-.4678.0936 0 .1871.0468.3742-.0936.4678z" fill-rule="evenodd"/><path d="m178.433 9.82166c-2.667 0-4.632.84214-6.456 2.71344-1.357-1.8713-3.322-2.71344-5.708-2.71344-1.965 0-3.977.79534-5.38 2.24564v-1.9649h-5.24v21.5204h5.38v-13.0058c0-2.9474 1.918-3.9298 3.603-3.9298 1.684 0 3.555.9824 3.555 3.9298v13.0058h5.38v-13.1462c0-2.807 1.965-3.7894 3.603-3.7894 1.684 0 3.555.9824 3.555 3.9298v13.0058h5.38v-13.7544c0-2.3391-.608-4.3976-2.339-6.1286-1.263-1.2164-3.181-1.91814-5.333-1.91814z"/><path d="m201.778 23.1082c0 2.9473-1.918 3.9298-3.603 3.9298-1.684 0-3.555-.9825-3.555-3.9298v-13.0527h-5.38v13.8012c0 2.3392.468 4.3977 2.199 6.1287 1.216 1.2163 2.947 1.9181 5.099 1.9181 1.965 0 3.977-.7485 5.38-2.2456v1.9649h5.24v-21.5205h-5.38z"/><path d="m215.953 25.1198v-22.92394h-5.38v23.25144c0 3.041 1.871 6.1755 6.269 6.1755h3.041v-4.5381h-2.059c-1.356 0-1.871-.6549-1.871-1.9649z"/><path d="m239.626 20.1141c0-5.8948-3.369-10.29244-9.404-10.29244-5.567 0-9.403 3.97664-9.403 10.99414 0 8.7018 4.865 11.041 9.965 11.041 3.883 0 5.988-1.2164 8.187-3.3685l-3.275-3.1813c-1.357 1.3568-2.527 2.0117-4.866 2.0117-3.041 0-4.725-2.0117-4.725-4.7719h13.474v-2.4327zm-13.474-1.2632c.047-.9357.187-1.5439.515-2.2924.561-1.2632 1.777-2.2456 3.602-2.2456 1.824 0 2.994.9357 3.602 2.2456.328.7953.468 1.3567.515 2.2924z"/></g></svg>