<svg id="Layer_1" fill="#fff" enable-background="new 0 0 512 512" height="512" viewBox="0 0 512 512" width="512" xmlns="http://www.w3.org/2000/svg"><g><path d="m254.054 38.465c-35.32.499-68.588 14.67-93.676 39.902-25.086 25.23-39.069 58.578-39.373 93.901-.307 35.749 13.229 69.556 38.114 95.193 17.145 17.664 27.86 39.637 30.947 62.99h131.841c3.024-23.457 13.573-45.252 30.463-62.467 24.911-25.389 38.63-58.961 38.63-94.532 0-36.42-14.284-70.561-40.221-96.134-25.931-25.569-60.273-39.355-96.725-38.853z"/><path d="m191 360.452h130v30.543h-130z"/><path d="m191.253 420.995c2.824 33.254 30.775 59.457 64.747 59.457s61.923-26.202 64.747-59.457z"/><path d="m0 157.397h76.004v30h-76.004z"/><path d="m28.679 266.537h76.005v30h-76.005z" transform="matrix(.866 -.5 .5 .866 -131.836 71.06)"/><path d="m429.265 245.362h30v76.005h-30z" transform="matrix(.5 -.866 .866 .5 -23.269 526.425)"/><path d="m435.996 159.506h76.004v30h-76.004z"/><path d="m407.317 50.367h76.005v30h-76.005z" transform="matrix(.866 -.5 .5 .866 26.979 231.419)"/><path d="m52.736 25.537h30v76.004h-30z" transform="matrix(.5 -.866 .866 .5 -21.159 90.431)"/></g></svg>